<svg width="120" height="120" viewBox="0 0 200 200" xmlns="http://www.w3.org/2000/svg"><path fill="currentColor" d="M152.836 141.321c.412 0 0 .41.412.82s.412.41.412.82 0 .41.411.82c.412 0 .412.41.412.82s0 .41.411.82v.819c0 .41.412 1.23.412 1.64s.411.82.411 1.23c0 0 0 .41.412.41v-.41-.41c.412 0 .412.41.412.82.411.41 0 .41-.412.82v.41h.412.411v.41c-.411 0-.411.41 0 .41.412.41.412.82.823.82s0-.41.412-.41c0 .41 0 .82.411 1.23 0 .41.412.41.412 0 0 0 0-.41.412-.41s0 .41 0 .41-.412.41-.412.82v.41c.412 0 0-.41.412-.41v.41.41.41c0 .409 0 .819-.412.819 0 .41 0 .82.412.82h.411-.823c0 .41.412.41.823.41-.411.41-.411.41-.411.82v.41.82c0 .41-.412.41-.824.41v.82c.412.41 0 .82 0 1.64 0 .41 0 .41-.411.82 0 0-.412.41 0 .41 0 .41 0 .41-.412.41v.41.82c-.411 0-.411-.41-.411-.41-.412-.41-.412-.41-.823-.41h-.412c-.823-.82-1.235-1.64-2.058-2.87v-.41-.41l-1.235-2.46c-.411-.41-.411-.41-.823-.41s-.823.41-1.234.41-.824 0-1.235.41c-.412 0-.823.41-1.235.41-.823 0-1.646.41-2.469.41h-.412c-.411-.41-1.235 0-1.646 0h-.412-.823c0-.41.412 0 .412-.41h-1.647c0 .41.412 0 .412.41h-.412-1.234c0 .41.411 0 .823.41h-.823c-.823 0-1.646 0-2.47-.41h-.411c-.823 0-1.646-.41-2.47-.41-1.234 0-2.469-.41-3.292-.41-1.235-.41-2.47-.41-4.116-.82-.411 0-1.235 0-1.646-.41-.412 0-.823-.41-1.646-.41s-1.647-.41-2.47-.41c-.411 0-.823 0-1.235-.41-1.234-.41-2.469-.41-3.704-.819-.823 0-1.646 0-2.058-.41h-.823c-.823 0-1.234-.41-2.057-.41h-.824-.411c-.823-.41-1.646-.41-2.058-.41h-4.527-2.881-2.058-.823c-.823 0-2.058 0-2.881.41h-2.881-1.646-4.116-1.646-2.881-4.939-6.174c-.823 0-2.058 0-2.881.41-1.235 0-2.47 0-3.293.41-.412 0-1.235 0-1.646.409-1.235.82-2.469 1.23-3.292 1.64s-1.646.82-2.058 1.64c-.411.41-.411.82-.823 1.64v.82c0 .82.412 1.64 0 2.87.412.82.412 2.049.823 2.869.412.41.412.82.412 1.23v1.23.82c0 .82.412 2.05 0 3.28 0 .41 0 .41-.412.82-.411.82-1.235 1.639-1.646 2.459 0 .41-.412 0-.412 0-.412-.41-.823-.41-1.235-.82s-.823-.41-1.235-.819l-1.235-1.23c-.412-.41-.823-.41-.823.41v.41c0 .819 0 1.229-.412 1.639v.82c0 .41.412 1.23 0 2.05 0 0 0 .41-.412.41s-.823.41-1.235.41h-.823c-.412-.41-1.235-.82-1.646-.82s-.823-.41-.823-.82 0-.82-.412-1.23-.823-1.23-1.235-1.64c-.823.41-.411 1.23-.823 2.05-.412 0-.412-.41-.412-.41v.82c0 .41.412.82 0 1.23v.82c-.412.41-.412 1.23-1.235 1.23-.411.41-.823 0-1.235-.41s-.823-.41-1.235-.82l-.823-.82-1.235-3.28c0-.41 0-.819-.412-.819 0 .409-.412.819-.412 1.229v1.23.41 1.64c0 .41-.411.82-.411 1.23s-.412.41-.823.41h-.823c-.823.41-1.235 0-2.058-.82s-1.235-1.64-1.646-2.46c-.412-1.23-.823-2.05-.823-3.279v-1.23c-.412-1.23-.412-2.87-.823-4.1v-2.05c0-.41 0-.41-.412-.41s-.823 0-1.646-.41c0 0-.412 0-.823-.41h-1.235-.823c-.823 0-.823-.41-.412-.82s.412-.819.412-1.639l.823-.82c.412-.82.823-1.23 1.235-2.05.412-.41.823-.82.823-1.23.412-.82.823-1.23 1.646-1.64l1.235-1.23c.412-.41.412-.41.823-.41s1.235 0 1.646-.41h.412c.412 0 .412 0 .412-.41s.411-.819.411-.819c.823-.82 1.235-1.64 2.058-2.46.823-1.23 2.058-2.05 3.292-2.87.412 0 .412-.41.823-.82.823-1.23 2.058-2.05 3.293-2.46.412 0 .412-.41.823-.41 0 0 .411-.409.823 0 .412 0 .412 0 .412-.409s.412-.41.823-.41v.41c0 .409.412.409.412.409v-.409l3.292-2.05c.412-.41.823-.41.823-.82h.412c.412 0 .823 0 .823-.41h.412c.411 0 .411 0 .823-.41s.412-.82.823-.82.412 0 .823-.41c.411-.82 1.235-.82 1.646-1.23s1.235-.82 1.646-1.23c.823-.41 1.235-1.23 2.058-1.64s1.235-.819 2.058-1.229 1.235-.82 2.058-.82c.412 0 .412-.41.412-.41.412-.41.823-.41 1.235-.82s1.235-.41 1.646-.82.412-.41.823 0h.411c.412 0 .823-.41 1.235-.41s.412-.41.823-.41.823-.41 1.235-.82h.412c.823 0 1.646 0 2.058-.41 0 0 .412 0 .412-.41s.412-.41.823 0h.823-.412s0-.41.412 0h.823c.412-.41.823-.41.823-.41h.412c0 .41 0 .41.412 0 0 .41.411 0 .411.41h.823v-.41h.412c.412.41.412 0 .823 0 0-.41.412-.41.412 0h.823 1.235 1.646c.823 0 1.646-.41 2.469-.41h2.469c1.235 0 2.469-.41 3.704-.82h1.646 1.646c.823 0 1.646 0 2.469-.41.823 0 2.058-.41 2.881-.41 1.235 0 2.881 0 4.116-.41h.823c.411 0 1.235 0 1.646-.41h.823c.412 0 .412.41.823 0h.412c.412.41.412.41.823 0 .412.41.823 0 1.235 0s.823.41 1.234 0c.824.41 1.235 0 2.058 0 0 0 .412 0 .412.41.823 0 1.646 0 2.881.41.411 0 .823 0 1.235.41.411 0 .823 0 .823.41.823-.41 1.234.41 1.646.41h.412.411.823.823c.412.41.824.41 1.235 0h.412c0-.41 0-.41-.412-.82v-.41-.41c-.411-.41 0-.41 0-.82 1.235 0 2.058.41 3.293.82.823.41 1.646.82 2.058 1.23.823.41 2.057 1.23 2.881 1.64s1.234.82 1.646 1.23l.411.41c.412 0 .412 0 .412.41.823 0 .823.41.823.82 0 0 .412-.41.412 0l1.234 1.23c.823 0 .823.41 1.235.82l1.235 1.229c.411.41.823.41.823.82s.411.82.411.82.412.41.824.41c0 0 .411 0 .411.41s.412.41.412.82c.411.41.411.82.823 1.23s.411.82.411 1.64c0 0 0 .41.412.41s0-.41 0-.41-.412-.41 0-.41c0-.41 0-.82-.412-.82.412 0 .412 0 .412.41s.412.41.412.41c.411 0 .411.41.411.41 0 .41 0 .41.412.41 4.115-2.05 4.115-1.64 4.115-1.23-.411.41-.411.41 0 .41v-.41zm-6.585 2.87c0-.41 0-.41 0 0v.82c.412-.41.412-.82 0-.82zm-15.639-16.399h-1.235-1.235c-.411 0-.823.41-1.234.41h-1.647-.411-2.47c-.823-.41-1.646-.41-2.058 0h-.411c-.823-.41-1.235 0-2.058-.41h-1.235c-.823 0-1.646 0-2.469-.41h-1.646c-1.235-.41-2.881 0-4.116 0-.823 0-1.235 0-2.058.41h-1.235c-.411 0-.823.41-1.234 0h-.412a1.26 1.26 0 0 1-1.646 0h-.412c-.411.41-1.234.41-1.646.41h-.823-.823-.412c0 .41-.412 0-.412 0h-3.293c-1.235 0-2.469.41-3.704.41h-.412c-.411.41-1.235.41-1.646.41-1.235 0-2.058 0-3.293.41-.823.41-2.058.41-3.293.41-1.646.41-3.704.82-5.35.82-.412 0-1.235.41-1.646.41-.823 0-2.058.41-2.881.82s-1.646.82-2.469.82c-.823.41-1.646.41-2.469.82-.412 0-.823.41-1.235.82s-.823.82-1.646.82c-.823.41-1.235.41-2.058.819-.412.41-.412.41-.823.41 0 0-.412 0-.412.41-.412.41-.823.82-1.646 1.23s-1.646.82-2.058 1.64l-1.235 1.23-.412.41c-.412 0-.823.41-1.235.41-.823.41-1.235.82-2.058 1.64-.412.41-.823.82-1.646 1.23-.412 0-.412.41-.823.41-.823.819-1.646 1.229-2.469 2.049l-1.235 1.23s0 .41-.412.41l-1.235 1.23c-.411.41-1.235.82-1.646 1.23-.823.82-1.646 1.23-2.469 2.05-.412 0-.412.41-.823.82s-.823.82-1.235.82l-.412.41c-.412.819-.823 1.229-1.646 1.639h-.412v.41c-.412.82-1.235 1.64-1.646 2.87-.412.41-.823 1.23-.823 2.05 0 .41-.412.82-.412 1.23 0 .82-.412 1.64-.823 2.459s-.412 1.23-.412 2.05c0 1.23.412 2.46.412 4.1v1.64c0 .41.412.82.412 1.64 0 .409.412.819.412 1.229s.412 1.23.412 1.64.411.41.823.41h.412c.412-.82.823-1.64.823-2.46.412-.41.412-1.229 0-1.639v-.82c.412-.41.412-.82.823-1.23l.823-.82c.823-.82.823-.82.823 0 .412.82.823 1.23.823 2.05 0 .41 0 .41.411.82s.412 1.229.823 2.049c.412.41.412.82.412 1.23s.412.41.412.82h.823a3.13 3.13 0 0 0 .823-2.05v-.41c0-.41 0-.819-.412-1.229s-.411-.41-.411-.82v-.41c0-.41 0-.41.411-.82s.823-.41 1.235-1.23c.412-.41.412-.41.823 0 0 .41.411.41.411.82s.412.82.823 1.23c.823.82 1.235 1.64 1.646 2.459.411.41.411.82 1.235.82h.412c0-.82.412-1.23 0-2.049s-.412-2.05.412-2.46c.412-.41 1.235-.82 1.646-1.23h.412c.412.41 1.235.82 1.235 1.23s.411.82.823.82c.412.41.823 1.23 1.646 1.23.411 0 .823 0 .823-.41s0-.82.412-1.23c0-.82 0-1.64-.412-2.46-.412-.41-.412-1.23-.823-1.64s-.412-1.23-.823-1.64c0-.82-.412-1.23-.823-2.049-.823-.82-.823-2.05-.823-3.28 0-.41 0-1.23.411-1.64.412-1.23.823-2.46 2.058-3.28.823-.82 1.646-1.23 2.881-1.639.411 0 .823-.41 1.235-.82l.412-.41c.823-.41 1.235-.82 2.058-.82 1.235-.41 2.058-.41 3.293-.82 1.646-.41 2.881-.41 4.527-.41h3.704 3.704H80.4h1.235c.823 0 1.646.41 2.469.41h2.058 2.881c1.646 0 2.881 0 4.527-.41h.823c.823 0 1.235 0 2.058-.41h1.646 2.058 4.115.412c.823 0 1.646 0 2.469.41.823 0 1.647 0 2.47.41 1.234 0 2.058.41 3.292.41.823 0 1.235.41 2.058.41 1.646.41 3.293.41 4.939.82h1.235c.823.41 2.057.41 2.881.41.823.41 1.646.41 2.469.41.412 0 1.235.41 1.646.41 1.235 0 2.47.409 3.704.409.824 0 1.235.41 2.058.41.412 0 1.235 0 1.647.41h1.234c.823 0 1.235 0 2.058.41 1.235 0 2.058 0 3.293.41h.411c1.235.41 2.47.41 3.704.41h2.47c.411 0 .823-.41 1.234-.41v-.41c1.647-1.639 1.647-2.049 1.647-2.049-.823-.82-1.235-1.64-1.647-2.87-.411-.41-.411-1.23-.823-1.64s-.411-.41-.411-.82-.412-.82-.412-.82c-.411 0 0 .41-.411.41 0-.41-.412-.41 0-.82v-.41c-.412-.82-.824-1.23-1.235-2.05s-.823-1.229-1.235-2.049c0-.41-.411-.41-.823-.82 0 .41 0 1.23.412 1.64v.41h-.412c0-.41-.412-.82-.823-1.23l-2.47-3.69c-.411-.82-.823-1.23-1.646-1.64-.823-.82-1.646-1.64-2.469-2.869-.823-.82-1.646-2.05-2.881-2.87l-1.646-1.64c-.824-1.23-2.058-2.05-2.881-3.28 0 0 0-.41-.412 0 1.235-.41 1.235-.41 1.235 0zm-96.719 29.517c-.412.41-.412.41 0 0-.823.41-.823.82-1.235 1.23s-.823.82-1.646 1.23l-.412.41v.41s-.412 0-.412.41c-.412.41-.412.82-.823 1.23 0 0 0 .41.412.41s.823.41.823 0c.412-.41.823 0 1.235-.41.412.41.412 0 .412-.41s.412-.82.412-1.23c.412-.82.412-1.64.823-2.46 0 .41.412 0 .412-.82zm117.709-12.708c0-.41.411-.41.411-.41 0-.41 0-.41-.411-.41v-.41s0-.41-.412-.41c-.411.41-.411.41-.411.82.823 0 .823.41.823.82zm-60.089-18.039h.823-1.235.412zm57.619 13.119l-.411-.82c-.412.41 0 .41 0 .82v.41s.411 0 .411-.41zm-2.058-4.919c0-.41-.411-.41-.411-.41h-.412v.41c0 .41.412 0 .823 0zm11.524 18.038c0-.41 0-.41-.411-.41 0 0-.412 0-.412.41.412 0 0 .41.823 0zm-13.17-17.628c0 .41 0 .819.412.41h.411c-.411 0-.411-.41-.823-.41zm-3.292-3.28c0 .41 0 .41.823.41-.412-.41-.823-.41-.823-.41zm6.173 6.559l-.411-.41c0 .41 0 .41.411.41 0 .41 0 .41 0 0zm-53.504-12.299c0-.41.412-.41 0 0-.412-.41-.412-.41 0 0zm56.797 29.927c.411 0 .411.41.823 0v-.41c-.412 0-.412.41-.823.41zm-6.997-13.528c-.412.41 0 .41 0 .82.412-.41 0-.41 0-.82zm-.823-.82c0-.41 0-.82-.412-.82 0 .41 0 .41.412.82zm6.585 0c.412-.41.412-.41 0-.41v.41c-.412 0-.412 0 0 0zm-2.469 5.329c.411-.41 0-.41 0-.82-.412.41 0 .41 0 .82zm-5.351-7.379c.412.82.412.82.823.82-.411-.41-.411-.82-.823-.82zm9.055 10.249v.41c0 .41.411.41 0-.41.411.41.411.41 0 0zm-5.351-8.609c.412-.41.412 0 0 0 .412-.41.412-.41 0 0 0-.41 0-.41 0 0zm12.759 12.709c-.412.41-.412.41 0 .41v-.41zm-10.701-14.349c0 .41 0 .41.412.82 0-.41 0-.82-.412-.82zm2.881 0c0 .41 0 .41.412.82 0-.41 0-.82-.412-.82zm2.058 9.019h0c.412-.41.412-.41 0 0 0-.41 0-.41 0 0zm-1.235-6.969h0c.412-.41.412-.41 0 0 0-.41 0-.41 0 0zm-4.939-4.92c0-.41 0-.41 0 0-.411-.41-.411-.41 0 0-.411 0-.411 0 0 0zm-.411 4.92h0c0-.41.411-.41 0 0zm-.823-7.789s0-.41-.412-.41c0 .41 0 .41.412.41zm8.231 14.348c0-.41 0-.41-.411-.41l.411.41zm-11.524-15.168c-.411 0-.411 0 0 0-.411.41-.411.41 0 0 0 .41 0 .41 0 0zm13.994 18.038v-.41.41zm-8.232-6.969h0c.412-.41.412-.41 0 0zm6.585 3.279c0 .41 0 .41 0 0 0 .41.412.41 0 0z"></path><path fill="currentColor" d="M154.071 97.046v.82 1.23.82c0 .41 0 .41-.411.41s0 .41-.412.41v.41s0-.41.412-.41v.41c-.412.41-.412.41-.412.82v.41s-.412.41 0 .41v.41c-.412.82 0 1.23-.823 2.05 0 .41-.412 1.23-.412 1.64 0 .819 0 1.639-.411 2.049v.82l-.412.41v.82c-.411.82-.823 1.64-1.646 2.46l-.412.41c0 .41 0 .82-.411.82 0 .41-.412.82-.823 1.64 0 .41 0 .41-.412.82-.412.819-.823 1.229-1.235 2.049l-1.234 1.23c-.412-.41-.824 0-.824.41s-.411.41-.411.41-.412 0-.412-.41c-.411-.41-.823-.82-1.234-.82s-.412-.41-.824 0h-.411s-.412 0-.412-.41c0 0-.411-.41 0-.41v-.41-.41c-.823-.41 0-.819 0-1.229.412 0 .412-.82.412-1.23l1.235-2.46c.411-.41.411-.82.823-1.23 0 0 0-.41.411-.41s.412-.41.412-.41c0-.82.823-1.64 1.235-2.46s.823-1.23 1.234-2.049c0-.41.823-.82.823-1.23s.412-.41 0-.82v-.41c0-.41 0-1.23.412-1.64.412-.82.823-1.23 1.235-2.05 0-.41.411-.82 0-1.23v-.41c.411-.41.411-.82.411-1.23-.823.41-.823.82-1.234 1.23 0-.41 0-.82.411-1.23 0 0 0-.41.412-.41h.411c0-.41.412-.82.412-1.64v-.41c-.412 0 0-.41 0-.41 0-.41.411-.82.411-1.23s0-.82-.411-.82c0 0-.412 0-.412-.41.412 0 .823-.41.823-.82h-.411v-1.23c.411-1.23.411-2.05.411-3.28v-3.28-3.28s.412-.82-.411-.41v-.41-1.23c0-.82-.412-1.23-.412-2.05 0-1.23-.411-2.87-.823-4.1v-.82c-.411-1.23-.411-2.46-.411-3.69-.412 0-.412.41-.412.41 0 .41-.412.82-.823 1.23v.41c0 .41-.412.41-.823.41s-.412 0-.823-.41-.824-1.23-1.235-1.64c-.412-.82-.412-2.05-.412-3.28 0-.41.412-.82.823-.82s.412 0 .412.41.412 1.23 0 1.64v.82c0 .41.412.41.412.41.411 0 .411-.41.411-.41l1.235-3.28c0-.82.411-1.23.411-2.05 0-.41 0-1.23.412-1.64.412-1.23 0-2.46.412-3.28 0-.41-.412-1.23-.412-1.64s-.823-.82-1.646 0l-1.647 1.64c0 .41-.411.41-.411.82l-.823 3.28v.41c0 .41-.412.41-.412 0-.411 0-.411-.41-.823 0h-.412c-.411 0-.411-.41-.823-.82 0-.41 0-.41-.411-.82v.82c0 .41-.412.82-.823 1.23h-.412c-.411-.82-.823-1.23-.823-2.05s-.412-1.64-.412-2.46c-.411-1.23-1.234-1.23-2.469-.82-.412.41-.823.41-1.646.41-.412 0-.412 0-.823.41h-.824c-.411.41-1.234.41-2.057.82-.412 0-.824.41-1.235.41s-.823 0-.823.41h-.412c-.823 0-1.646 0-2.058.41h-.823c-.823.41-2.058.41-3.292.41-.824 0-1.647.41-2.881.41-.412 0-1.235.41-1.647.41-.823 0-1.234 0-2.058.41-.411 0-.823 0-1.234.41-.823.41-2.058.41-2.881.41h-.823c-.412 0-.412 0-.823.41h-.412c-1.235 0-2.469.41-3.293.41h-.823c-.411 0-.411 0-.411.41-.412.41-.412.41-1.235.41-.412 0 0 .41-.412.41h-.411c-.412.41-.823.41-1.235.41h-.823c-.412 0-.823.41-1.235.41h-2.058-1.235c-.823 0-1.646.41-2.469.41 0 0-.412.41-.412 0-.412 0-.823.41-1.646.41h-1.646c-.412 0-.823 0-.823.41-.412.41-.823.41-1.235.41-.823 0-1.235.41-2.058 0h-1.235-2.469-1.646-1.235c-.412 0-1.235-.41-1.646-.41-.823 0-1.235-.82-1.646-1.23s-.823-1.23-.823-2.05c0-.41.412-.41.412-.41.412 0 .412-.41.412-.41 0-.41.412 0 .412-.41-.412-.41-.412-.41 0-.82l.823-.82c.412 0 .823-.41 1.235-.41h.412v.41s-.412 0-.412.41c-.412.41-.823.41-1.235.82s-.823.82-.823 1.64c-.412.41-.412.41 0 .82.412 0 .412.41.823.41s.823.41 1.235.41c1.646 0 2.881.41 4.527 0 1.235 0 2.469-.41 3.704-.82.412 0 1.235-.41 1.646-.41.823-.41 1.646-.41 2.469-.82 1.235-.41 2.469-.82 3.704-.82.412 0 1.235-.41 1.646-.41s1.235-.41 1.646-.41.823-.41 1.235-.41c.823-.41 2.058-.41 3.292-.82.823-.41 1.647-.41 2.47-.82 1.234-.41 2.058-.82 3.292-.82.823 0 2.058-.41 2.881-.41.412 0 1.235-.41 1.646-.41.824 0 1.235-.41 2.058-.41 1.647-.41 3.293-.41 4.528-.82.411 0 1.234-.41 1.646-.41.823-.41 2.058-.41 2.881-.41h.411c.412-.41 1.235-.41 1.647-.41s1.234-.41 1.646-.41.823-.41 1.235-.41h.411c.823 0 1.235 0 1.647-.41l3.292-1.23c.823-.41 1.646-.41 2.47-.82s1.646-.41 2.469-.82c.823 0 1.646 0 2.469-.41s2.058-.41 2.881-.82c1.235-.41 2.47-.82 3.704-.82 1.235-.41 2.47-.41 3.705-.82.823 0 1.234-.41 2.057-.41.824-.41 1.647-.41 2.881-.82l4.116-1.23 3.704-1.23c.412 0 .823-.41 1.235-.41.823-.41 1.235-.82 2.058-1.23 0 0 .411 0 .411-.41-.411 0-.411 0-.411-.41-.412 0 0-.41 0-.82.411-.41 0-.82-.412-1.23 0-.41-.411-.41-.823-.41s-1.235-.41-1.646-.41-.823 0-1.235-.41c-.411 0-.823-.41-1.235-.41h-.823v-.82-.41l.412-.41c.823 0 1.646-.82 2.469-.82 0 0 .412 0 .412-.41.411 0 .411-.41.823-.41h1.646 4.116c.823 0 1.235.41 1.646.41l.412.41c.411 0 .823.41 1.234.82 0 .41.412.82.412 1.23.412.82.412 1.23.412 2.05 0 .41 0 .82-.412 1.23s-.412.41-.412.82c-.411.82-.823 1.23-1.646 2.05-.411.41-.411.41-.411.82 0 0 0 .41-.412.41h-.412-.411c0 .41 0 0 .411 0-.411.41-.823.82-1.234.82 0 .41-.412.41-.823.41s-.824.41-.824 0c0 0-.411 0-.411.41s-.412.41-.412.41c-.411 0-.823 0-1.234.41-.412 0-.823.41-1.235 0-.412.41-.823.41-1.235.41s-.823.41-1.646.41h-.412c-.411.41-.823.41-1.234.41h-.823c-.412.41-.824.41-.824.41s-.411.41-.411 0-.823 0-1.235 0c-.411.41-1.235.82-1.235.82h-.411-.412c-.823.41-1.646.41-2.881.82h-.411c-.412.41-.823.41-.823.41-.412 0-.824 0-.824.41-.411.41-.823.41-1.646.41-.411 0-.823.41-.823.41h-.823-1.646c-.412 0-.412.41-.412.41s0 .41.412.41c0 .41.411.41.411 0h.412c.411 0 .823.41 1.234.41 1.235.41 1.647 2.05 1.647 2.87v.82.41c0 .82-.412 1.64-.412 2.46v.82c.412-.41.412-.41.823-.41.412-.82 1.235-.41 1.647-1.23.411 0 .823-.82 1.234-.82s.823-.41 1.235-.82.823-.41 1.235-.41 1.234-.41 1.646-.82c0 0 .412 0 .823-.41h.823c.412.41.823 1.23 1.647 1.64.411 0 0 .41 0 .82h-.824c-1.234 0-2.057.82-2.881.82-.823.82-2.057 1.23-2.881 2.05-.411.41-.823.82-1.646 1.23-.411.41-.823 1.23-1.235 2.05-.411 1.64-.411 3.28-.411 4.509 0 .82.411 1.64.823 2.46s.412 2.05.823 2.87c0 .82.412 1.64.412 2.46s.411 1.64.411 2.46v.41c.412.41.412.41 0 .82v.41c.412.41.412.82.412 1.23s-.412.82 0 1.23c-.412.41 0 .82 0 1.64v1.64c0 .41-.412.82 0 1.23v.41c-.412.41 0 .82 0 1.23v.41c.411.41.411.82.411 1.64 0 .41 0 .41-.411.82v.41 1.64c0 .41-.412 1.23-.412 1.64 2.058.82 2.058 1.23 2.058 1.23v-.82-.41h-.411l-.412.41c0 .82 0 .82.823.82-.411.41-.411 0 0 0zM140.489 56.05c-.411 0-.411-.82-.411-.82h-.412v.41c.412 0 .412 0 .823.41zm13.171 27.467c0 .41-.412.41 0 .41v-.41zm13.17-41.406c.411 0 .411 0 .411-.41 0 0-.411 0-.411.41zm-14.405 48.785c0-.41 0-.41 0 0-.412-.41 0-.41 0 0-.412-.41-.412-.41 0 0z"></path><path fill="currentColor" d="M175.061 106.884c-.411.41-.823.41-.823.41 0-.82.412-1.23.823-1.64s.412-.82.412-1.639c0-.41-.412 0-.412-.41v-.41c.412 0 .412-.41.412-.41v-3.28-2.05-2.46c0-1.23 0-2.46-.412-3.69 0-.82 0-1.23-.411-2.05v-1.23-1.23c0-.82 0-1.64-.412-2.46 0-1.23-.412-2.05-.412-3.28l-.411.41s-.412 0-.412.41 0 .41-.411.41c0 0 0 .41-.412 0 0-.82 0-1.23-.411-2.05 0-.41-.412-.82 0-1.64 0 0-.412 0-.412-.41s0-.82-.412-1.23c0-.41 0-.41.412-.41v-.41c0-.41-.412-1.23-.412-1.64-.411.41 0 .82 0 1.23-.411-.41-.411-.82-.411-1.23 0-1.23-.412-2.05-.823-3.28-.412-.82-.412-1.23-.823-2.05 0 0 0-.41-.412-.41-.412-.41-.411-.82-.823-1.23-.412-1.23-.823-2.05-1.646-3.28-.412-.82-.823-1.23-1.235-1.64 0-.41-.412-.41-.412-.82-.411-.82-.823-1.23-1.234-2.05-.412-.41-.823-.82-.823-1.64-.412-.41-.412-1.23-.412-1.64s0-.41.412-.41.411.41.411.41c.412.41.823.82 1.235.82 0 0 .411 0 .411.41.412.41 1.235.82 1.647 1.23s1.234.82 1.646 1.23.823.82.823 1.23l1.235 1.23c.411.41.823.41.823 1.23.411 0 .411.41.411.82 0 0 0 .41.412.41 0 0 .412 0 .412.41s.411.82.411 1.64c0 0 0 .41.412.82s0 .82.411.82.412.41.412.82c0 0 0 .41.411.41.412.41-.411.41 0 .41 0 0 .412 0 .412.41v.82.41c.412 0 .412.41.823.82v.41c0 .41 0 .41.412.41l.411.41v.82c-.411.41 0 .82 0 1.23.412.41.412.41 0 .82.412.82.412 1.23.412 2.05h.411c0 .41-.411.41 0 .82v.41.41c.412.41.412.41 0 .82v.41c.412 0 .412.41.412.82v.41.41c.412 0 .412.41 0 .41 0 0 0 .41.412.41s.411 0 .411.41c-.411 0-.411-.41-.411-.41 0 .82 0 .82.411.41v.82c.412 0 .412 0 0 .41v.82c.412 0 0 0 0 .41-.411.41-.411.82-.411 1.23.411-.41.411-.41 1.234 0-.411.41-.411.82-.411 1.23v.82.82.41c0 .41 0 .41.411.41v1.23s0 .41-.411.41-.412.82 0 1.23v-.41c0 .41.411.82 0 1.23v.41c.411.41.411.41 0 .82 0-.41 0-.41-.412-.41 0 .41.412 0 .412.41v.41c0 .41-.412.41 0 .41s0 .41 0 .41c.411 0 0-.41.411-.41v.41c0 .41-.411 0 0 .41.412 0 0 .41 0 .82.412.41 0 .82 0 1.23s0 .41-.411.41-.412.41 0 .41c.411.41.411.41 0 .82s0 .82 0 1.64h.411s0-.41.412-.41 0 .41 0 .41c0 .819 0 2.049-.412 2.869 0 .41.412.41-.411.82v.41.41.82 1.23c0 .41 0 .82-.412 1.23v.41 1.64c0 .82 0 1.639-.411 2.049 0 1.23 0 2.46-.412 3.69 0 .82-.412 1.64-.412 2.46 0 .41-.411.82-.411 1.64 0 0 0 .41-.412.41v.41.819c-.411.41 0 .41 0 .82 0 .82 0 1.23-.411 2.05 0 .41 0 .41-.412.82v.41.41c-.411 0 0 .41-.411.41 0 .41 0 .82-.412.82.412.41 0 .82 0 1.23s0 .82-.412 1.23c.412.41 0 .82-.411 1.229 0 .41-.412.41-.412.82 0 0 0 .41-.411.41-.412.41-.823 1.23-.823 1.64v.41c-.412.41-.412 1.23-.824 1.64v.41c0 .41 0 .82-.411 1.23v.41c-.412.41-.412.82-.823 1.23s-.823.82-.823 1.639v.41c0 .41 0 .41-.824.41 0 .41.412.41.412.82s0 .41.412.82v1.23.41c.411 0 .411.41.411.82v.41c.823 0 .412.82.823 1.23v.82c-.411 0 0-.41-.411-.41v.41c.411.41 0 1.23.411 1.64 0 .41 0 .82-.411.82s-.412.409-.412.409 0 .41-.411.41-.412.41-.412.82h-.412-.823-.411c0 .41-.412.41-.823 0-.823-.41-1.647-.82-2.058-1.639s-1.235-1.23-1.646-2.05l-.412-.41c.412-.41 0-.41 0-.41-.823 0-.823-.82-.823-1.23s-.412-.41-.412-.82c-.411-.41-.823-1.23-1.234-1.64 0-.41 0-.41-.412-.41-.412-.41-.412-.82-.823-.82-.823-1.23-1.646-2.459-2.881-3.689l-.412-.41c-.411-.82-.823-1.23-1.234-1.64l-.412-.41s.412.41 0 .41l-2.469-2.46c-1.235-1.23-2.058-2.46-3.293-3.28-.823-.819-1.646-1.229-2.058-2.049-.411-.41-1.235-.82-1.646-1.23-.823-.41-1.235-1.23-2.058-1.64s-1.646-1.23-2.469-1.64h-.412c-.411-.41-1.235-.82-2.058-1.23-.823-.82-2.058-.82-2.881-1.64-.823-.41-1.646-1.229-2.469-1.639 0 0-.412 0-.412-.41 0 0 0-.41-.411 0 0 0-.412-.41 0-.41l-.412-.41h.412c0-.41-.412 0-.412-.41.823 0 1.235 0 2.058.41 1.235 0 2.469.41 3.293.41.411 0 1.234.41 1.646.41 1.235.41 2.058.82 2.881 1.229.411 0 .823.41 1.646.82.412.41.823.41 1.235.82v.41h.823.823s0-.41.412 0c.411 0 .411.41.823.41 0 .41.411.41.411.82h.412c.411 0 1.235.41 1.235.82s.411.41.411.82c0 0 .412 0 .823.41l.823.82h.412c.412-.41.412 0 .412 0 .411.41.823.41.823 1.23.411 0 .411 0 .823.41s.823.41 1.235.82c0 0 .411 0 .411.41s.412.41.823.819v-.409l1.647 1.639v.41c0 .41 0 .41.411.41.823.41 1.235 1.23 1.646 2.05v.41c.412.41.412.41.824 1.23v.41c0-.41 0-.41.411-.41v.41c0 .41 0 .41.412.82s.411 0 .411 0c0 .41.412.41.412.82s.411.82.823 1.23l1.235 1.229s0 .41.411.41c0 0-.411-.41 0-.41s.412 0 .412.41c.411.41.411 1.23.823 1.64v-.82c-.412-.41-.412-1.23-.823-1.64v-.409c4.115-5.74 4.115-6.56 4.115-6.97 0-.82.412-1.23.412-2.05 0-1.229.823-2.869.823-4.099 0-.41.412-.82.823-1.23 0 0-.411 0-.411-.41.411 0 .823-.41.411-.82.412-.82.412-1.64.823-2.46.412-.41.412-.82.412-1.639v-.41c.412-.41.412-.41.412-.82v-.82c.411-1.23.823-2.46.823-3.69 0-.82 0-1.23.411-2.05s.412-2.049.412-2.869c0-.41 0-1.23.411-1.64 0-.41 0-.82.412-1.23.412-.82.412-1.23.412-2.05v-1.23c.823 0 .823-.41.411-.82v-.82.82zm-2.881-31.157c.412.82 0 1.23 0 1.64v2.05c0 .41 0 .41.412.41h.411c0 .41-.411.41-.411.82v1.23c0-.41.823-.41 1.234-.82-.411 0-.411 0 0-.41v-.41c-.411-.41 0-.82-.411-1.23-.412-.82-.823-2.05-1.235-3.28.412.41.412 0 0 0zm-1.235-4.1c-.411.41 0 .41 0 .41.412.41.412 0 0-.41.412.41.412 0 0 0zm1.235 80.352c-.411 0 0-.41 0 0-.411 0 0 .41 0 0zm-8.231-14.349c0-.41 0-.41 0 0 0-.41 0-.41-.412-.41 0 0 .412 0 .412.41zm-2.47-2.87c-.411 0-.411 0 0 0-.411.41-.411.41 0 0 0 .41 0 .41 0 0zM180 98.275c0-.41 0-.41 0 0-.412-.41 0-.41 0 0zM61.468 116.313c.412 0 .823-.41.823-.819v-.82s0-.41.412-.41l.411-.41c0-.41.412-.82.823-1.23s.412-.82.823-1.23v-.82c-.411-.41-.411-1.23-.823-1.64v-.82c.412-.82 1.235-1.64 2.058-2.459.823-.41 1.646-1.64 2.469-2.05.412-.41.823-.82 1.235-.82s.823-.41 1.235-.82.823-.82.823-1.23l.823-.82c.823-.41.823-.82 1.235-1.23 0-.82.411-1.23.411-2.05s.823-1.64 1.235-2.46c.412-.41 1.235-.82 2.058-.82h1.646c.412 0 1.235 0 1.235.82l1.235 1.23c.411.82 1.235.82 2.058.82 1.235 0 2.469-.41 3.704-.41h1.235c.412 0 .412-.41.823-.41.412-.82.823-1.23.823-2.05 0-.41-.412 0-.823 0 .823-.82 1.235-1.64 2.058-2.46-.823-.41-.823-.82-1.646-1.23-.412 0-.412-.82-.823-.82-1.235-1.23-2.058-2.46-2.469-4.1-.412-.82-.412-1.23-.412-2.05v-2.87c0-.82 0-1.64.412-2.87 0-.82.412-1.64.823-2.05s.412-.82.823-1.23l.412-.41c0-.82.412-1.23.823-1.64 0 0 .412-.41.412-.82s0-.41.412-.41.412-.41.412-.82.412-.82.823-.82c.412-.41.823-.41.823-.82.411-.82.823-1.23 1.646-1.64.412 0 .823-.41 1.235-.82l3.292-1.23c.823 0 1.647-.41 2.47-.41h1.646.412c.823.41 1.646.41 2.469.41h1.646c.823 0 1.235.41 2.058.41 1.235.41 2.47 1.23 3.704 1.64.412 0 .823.41.823.82.412.41.824.82 1.647 1.23l.823.82c.411.41.823 1.23 1.646 1.64.412.41.823.82.823 1.23.412.41.412.82.823.82s.412.41.412.82v.41c.411.82.411 1.64.411 2.46 0 .41 0 1.23.412 1.64 0 .41 0 .82-.412 1.23v.41.82c-.411.82-.411 1.23-.823 2.05-.411.41-.411.82-.411.82-.412.41-.412.82-.823.82v.41c.411-.41.823-.41 1.234 0h.823c.412 0 1.235 0 1.647.41.411 0 .411 0 .823.41h1.235l1.234-1.23 1.235-1.23c.823-.82 1.646-1.64 2.881-2.46.823-.41 1.646-.82 2.881-.41v.41c-.823.82-1.235 1.64-2.058 2.46 0 0 0 .41-.411.41-.824.41-1.235 1.23-1.647 2.05s-1.234 1.23-1.646 1.64h-.412c-.823.82-2.057.41-2.881.41-.411-.41-1.234-.41-1.646-.82s-.823-.41-1.235-.82h-.823c-.411.41-.823 0-1.234 0h-.824c-.411.41-.411.82-.823.82-.411.41-.411.82-.823.82l-1.234 1.23c-.824 1.23-1.647 1.64-2.881 2.05 0 0-.412 0-.412.41-.823.82-2.469 1.23-3.293 1.23s-1.646 0-2.057.41-.824.41-1.235 0c-.412 0-1.235.41-1.646.41 0 .41-.412 0-.824.41 0 .41-.411 0-.823 0-.823 0-1.646-.41-2.881-.41h-.412c-.823-.41-1.646-.41-2.469-.82-.411 0-.411 0-.411.41-.412.82-.412 1.23-.823 2.05-.412.41 0 .82-.412 1.23v.41c.412 0 .412.41.823.41s.412 0 .823.41l.823 1.64v.41c0 .41-.412.41 0 .82v.41c-.412.41-1.235.82-1.646 1.23-.412 0-.823.41-1.235.41 0-.41.412 0 .412-.41h-.412-.412v-.82-.41c.823 0 .823-.82 1.235-1.23v-.82c0-.41-.412-.82-.823-.82h-.412s0 .41-.412.41c0 .41-.411.82-.823 1.23s-.412.82-.823 1.23v.41c.412.41.412.82.823 1.23 0 .41.412.82.823 1.23.823.82 1.235 1.23 1.646 2.05.412.409 0 .819 0 1.639 0 0 0 .41-.412.41l-1.235 1.23h-.411c-1.235.41-2.058.41-3.293 0-.412 0-.823-.41-1.235-.82s-.823-.82-1.646-1.23h-.823c-.823-.82-1.646-1.639-2.469-2.049-.412-.41-1.235-.82-1.646-1.23s-.823-.41-.823-.82l-1.235-1.23c0-.41-.412-.41-.823-.41s-.823-.41-.823-.41h.412 1.235H80.4c.412.41.823.41 1.235.41 0 0 .411 0 .411.41.412.82 1.235 1.64 2.058 2.05.823.82 1.646 1.23 2.469 2.05.823.409 2.058 1.229 2.881 1.639.412.41 1.235.41 1.646.41s.412 0 .412-.41v-.82c0-.41 0-.819-.412-.819-.412-.41-.823-.82-1.235-1.64-.412-.41-.412-.82-.823-.82-1.235-.82-2.058-1.64-3.704-2.46-.412-.41-.823-.41-1.235-.82-.412 0-.412-.41-.823-.41s-.412-.41-.412-.41c-.823-.41-1.235-.82-2.058-1.23s-1.646-1.23-2.881-2.05c-.412-.41-.823-.41-1.235-.41s-.412 0-.823.41c-.412 0-.823.41-1.235.82v.41c0 .41 0 .82-.412 1.23v.82c.412.41 0 .82-.411 1.23s-.412.82 0 1.23v.41l-1.235 1.23s-.412.41-.823.41c-.823 0-1.235.41-1.646 1.23 0 .41-.412.41-.823.41-.412.41-1.235.819-1.646 1.229s-.823.41-1.235.82c-.823.41-.823.82-1.235 1.23 0 0 0 .41-.412.41s-.411.41-.411 1.23.411 1.64.823 2.05c.412 0 .412.41.823.82s0 .41 0 .82c-.412.41-.823 1.23-1.646 1.64-.412 0-.823.409-.823.819s-.412.82-.823 1.23-.412.41 0 .82.411 1.23.823 1.64.823.82 1.646.82h1.646c.823 0 1.235 0 1.235.82 0 .41-.412.41-.412.41-.823 0-1.235.41-1.646.41h-.823c-.412 0-.823 0-1.235-.41 0 0-.412 0-.412-.41l-1.235-1.23c-.823-.41-1.235-1.64-1.646-2.46.823-.82.823-1.23.823-1.64zm27.575-35.666v.82c.412.82.412 1.64.412 2.46.412.82.411 1.64.823 2.46s.823 1.64 1.646 2.05c1.235.82 2.469 2.05 3.704 2.87s2.469 1.23 4.116 1.64h.412c.823 0 1.646 0 2.469-.41 1.646-.41 2.881-.41 4.527-.82s3.293-1.23 4.939-2.05c1.235-.82 2.058-1.64 3.293-2.87.823-.82 1.234-1.64 2.057-2.46.412-.41.824-.82 1.235-1.64s.412-2.05.412-2.87v-2.05-.82c.411-.41 0-.82 0-1.23s-.412-.41-.412-.41c0-.41 0-.41-.411-.41v-.41c-.412 0-.412 0-.412-.41 0-.82-.412-1.23-1.235-1.64 0 0-.411 0-.411-.41.411-.41-.412-.82-.412-.82-.823-.82-2.058-1.23-3.292-2.05-.412-.41-.823-.41-1.235-.82-.823-.41-1.646-.41-2.058-.82-.411 0-.411 0-.823-.41-.823-.41-1.235 0-2.058-.41-.411 0-1.235-.41-1.646-.41h-1.235-1.646c-.823 0-1.646.41-2.058.82l-.412.41c-.412 0-.823.41-1.646.41s-1.646.41-2.058.82c-.411 0-.411.82-.823.41-.412.82-.823 1.23-1.235 1.64s-.823.82-1.235 1.64c0 .41-.412.82-.823.82l-.412.41c0 .41-.412 1.23-.412 1.64s0 .82-.412.82v.41c-.823 1.64-1.235 2.87-1.235 4.1zm-3.704 17.218l2.469 1.23h.412c0-.41.412-.82.412-1.23s0-.41-.412-.41h-1.646-.412c0 .41-.412.41-.823.41zm31.691-75.842c-.412 0-.823-.41-1.235-.41s-.411-.41-.411-.82v-.82c0-.41.411 0 .411 0 0-.41.412-.41.412-.82s.411-.41.411-.41c.412 0 .823-.41 1.235-.41h.823c.823.41 1.235.82 2.058 1.64.412.41.823.82.823 1.23h.412c1.234-.41 2.881 0 4.115 0s2.881.41 4.116.82l2.47 1.23c.411.41 1.234.82 1.646 1.23l1.646 1.64 1.235 1.23c.411.41.823 1.23 1.235 1.64.823.82 2.057 1.64 2.881 2.87 0 .41.411.41.411.41l.412.41c0 .41.411.82.823 1.23 0 .41.411.41.411.82v.82c0 .41 0 .82.412 1.23v.82c.411.41 0 .41 0 .82v.41c.411 0 .411.41.411.82v.82c-.411 0-.411.41 0 .41v1.23c0 .41 0 .82.412 1.23 0 .41.412.41 0 .82v.82.41c-.412 0-.412 0-.412-.41-.411-.82-.823-1.23-1.234-2.05 0-.41-.412-.41-.412-.82s-.411-.41-.411-.82c-.412-.41-.412-.82-.823-.82 0 0-.412 0 0-.41v-.41c-.412 0-.412-.41-.412-.41l-2.469-4.51c-.412-.82-1.235-2.05-1.647-2.87-.823-.82-1.234-1.64-2.058-2.05l-.411-.41c-.823-.82-1.646-1.64-2.47-2.87-.823-.82-2.057-1.64-3.292-2.05-.412 0-.823-.41-1.646-.82-1.235 0-2.47-.41-4.116-.41-.823 0-.823 0-.823.82v.41c-.412 0-.412 0-.412-.41-.411-.41-1.235-.41-1.646-.41-1.235-.41-2.058 0-2.881.41s-1.235.41-2.058.82c-1.235.82-2.058 1.23-2.881 2.05s-1.646 1.23-2.469 2.05c-.823.41-1.235 1.23-2.058 2.05l-.412.41c-.411.41-.411.41-.411.82s-.412.82-.823 1.23-.412 1.23-.824 1.64-.823 1.23-1.646 1.64c-.411.41-.411.82-.823 1.23-.412.82-.823 1.64-1.235 2.87v.41c0 .82-.411 1.23-.823 1.64v.41c0 1.23-.411 2.87 0 4.1v1.64.82c.412.41.412.82 0 1.23.823 0 1.646-.41 2.47-.41 1.234-.41 2.057-.41 3.292-.82h.412s0 .41.411 0c0-.41.412 0 .412 0 .411 0 0-.41.411-.41h.412c.823 0 1.235-.41 2.058-.41l4.116-1.23c1.234-.41 2.88-.41 4.115-.82.823 0 1.646-.41 2.47-.82h.823 1.646 2.058.823.412v.41c-.412 0-.412.41-.412.82 0 0 0 .41-.412.41-.411.82-.823.82-1.646 1.23s-1.235.82-2.058.82c-.411 0-1.234.41-1.646.41s-.823 0-1.235.41c-.411 0-.411.41-.823.41s-1.235.41-1.646.41h-.412-.411c0 .41-.412.41-.823.82-.412 0-.823.41-1.235.41 0 0-.412.41-.412 0-.411 0-.823.41-.823 0 0 .41-.411.41-.411 0 0 0-.412-.41-.412 0h-.411-.412c-.412.41-.412.41-.823.41h-.412l-.411.41h-.412c0-.41-.411-.41-.411 0-.412.41-.824.41-1.235.82-.412 0-.412.41-.823 0h-.412c0 .41-.411-.41-.411 0 0 0-.412 0-.412.41h-.412s0-.41-.411-.41l-.412.41-.411-.41s0 .41-.412.41-.411-.41-.823 0c0 0-.412.41-.823.41 0 0-.412-.41-.412 0 0 0 0-.41-.411-.41h-.412c-.411.41-.823.41-1.235.41h-.412-.823s-.412-.41-.412 0c-.412-.41-1.235 0-1.646 0h-.823-.823-.823c0-.41.412-.41.823-.41.823-.41 2.058-.41 3.293-.41.412 0 .412 0 .412-.82.412-.82 0-1.64 0-2.46v-.41h.412c-.412-.82 0-2.05 0-2.87l1.235-4.51 1.235-2.46 1.234-2.46c1.235-1.64 2.058-2.87 3.293-4.1.823-.82 2.058-1.64 2.881-2.87.412-.41 1.235-.82 1.646-1.23l3.704-2.46s.412-.41.824-.41c-.824-3.69-.412-3.69.411-4.1.412-.41 1.235-.82 2.058-1.23zm1.646-.41c.412 0 .823-.41 1.646-.41-.411-.41-.411-.82-.823-1.23 0 0 0-.41-.411-.41l-.412.41v.41 1.23zm-4.939 29.107c0 .41 0 .41 0 0 .412.41.412.41 0 0 .412.41.412 0 0 0zM30.6 76.138c.412-.41.823-.82 1.235-.82.823 0 1.646 0 2.058-.41h1.235c1.646-.41 2.881-1.64 3.704-2.87s1.235-2.05 1.646-3.28c.823-1.23 1.235-2.87 1.235-4.51v-.82c.412-.41.823-.82 1.235-.82s.823.41 1.235 1.23v.82 1.23.41c-.411 1.23 0 2.87.412 4.1.412 2.05 2.058 3.28 3.704 4.51.823.41 1.646.82 2.469.41.412 0 .823 0 1.235.41.823.82.823 1.23 0 2.05s-1.646 1.64-2.058 2.46l-.412.41c-.823.41-1.235 1.23-1.235 2.05-.412.82-.412 1.64-.823 2.05-.412 1.23-.823 2.46-.823 3.69 0 .82-.412 1.64-.412 2.46s-.412 1.64-.412 2.87v.82c0 .41-.412 1.23-1.235 1.23-.412 0-.412 0-.412-.41 0-.82-.411-1.64-.823-2.46-.412-.41-.412-1.23-.823-2.05l-1.235-3.28c-.823-1.23-1.235-2.46-2.058-3.28s-1.235-1.64-1.646-2.87l-2.469-2.46-.823-.82c-.412-.82-1.235-1.64-2.058-1.64 0 .82 0 .41-.412.41-.412-.41-.823-.82-1.235-.82zm17.286 2.46c-2.881-2.05-4.939-4.51-5.762-7.789-.412 0-.412.41-.412.41-.411.82-.411 1.64-.823 2.05-.823 1.64-1.646 2.87-3.704 3.69v.41l1.235 1.23c.823.41 1.235.82 1.646 1.64.412.41.412.82.823 1.23l2.469 4.51s0 .41.412.41v-.41c.411-1.64.823-3.28 1.646-4.51s1.235-2.05 2.469-2.87z"></path><path fill="currentColor" d="M86.162 109.344c.412 0 .823 0 .823.41h.412v-.41c-.412 0-.412-.41 0-.41v-.41h.823c.412 0 .412.41.823.41.412.82 1.235 1.23 1.646 2.05.412.41 0 .82 0 1.23v.41c0 .41 0 .82-.823.82-.411 0-.823.41-1.235.41-.412.41-.823.41-1.235.41-.823 0-1.646-.41-2.058-.41s-.823-.41-1.235-.41h-.412v.41c.412.41.823.82.823 1.64 0 .409.412.409.412.819.823 1.64.823 2.46.823 3.28 0 .41-.412.41-.412.82-.412 0-.823.41-1.235.41s-.823 0-1.235.41h-1.646c-.823 0-1.646 0-2.058-.41-.823-.41-2.058-.82-2.881-1.23-.412-.41-.412-.41-.823-.41l-2.469-1.23c-.412-.41-1.235-.41-2.058-.82-.412 0-.823 0-.823-.41h-.823c-.412-.41-.823-.41-1.646-.82.412-.409.412-.409.823-.409h1.646 2.058.823c.412 0 .823 0 1.235.409.412 0 .823.41 1.235.41s.412.41.823.82c.412 0 .412.41.823.41s.823 0 .823.41h.412c.412.41.823.41.823.41h.412c.412 0 0-.41 0-.41 0-.82-.412-1.64-.823-2.459 0-.41-.412-.41-.412-.82s-.412-.41-.412-.82c-.823-.82-1.235-1.64-2.469-2.05-.412 0-.412-.41-.412-.41-.412 0-.412-.41-.412-.41v-.82-.82-.41c0-.41 0-.82.412-.82s.823-.41 1.235-.82.412-.41.823-.41h.823c.412.82.823.82 1.646 1.23s1.646 1.23 2.469 2.05c.412.41 1.235.82 1.646 1.23l2.469 1.23c.412.41.412 0 .412-.41 0-.82-.412-1.64-.412-2.05.412-.41 0-.41 0-.82zM56.118 68.758c-.823 0-1.235-.41-1.235-1.23 0-1.64-.412-2.87-.412-4.1 0-.41-.412-1.23-.412-1.64s-.412-.82-.823-.82-.823-.41-1.235-.82-.412-1.23.411-1.64c.412 0 .412-.41.823-.41.412-.41 1.235-.82 1.646-1.23v-.82-3.69c0-.82.411-1.23.823-1.23s.412 0 .412.41v.82c.412 1.23.823 2.05 1.646 3.28.412.41.823 1.23 1.646 1.64.412 0 .823.41 1.235.41s.412 0 .412.41v.41c0 .82 0 .82-.823 1.23s-1.235.82-2.058 1.64c-.823 1.64-1.646 3.28-2.058 4.919.412 0 0 1.23 0 2.46zm-.412-4.92c.412-.41.412-.41.412-.82s.412-1.23.412-1.64l1.235-2.46c.412-.41.412-.82 0-1.23s-.823-.82-1.646-1.23c-.412 1.23-1.235 2.05-2.469 2.87.412.82 1.235 1.23 1.646 2.05s.412 1.64.412 2.46zm79.845.411c-.824 0-1.647-.41-2.47 0-.823 0-2.058.41-2.469 1.23l-1.235 1.23c-.412.41-.823 1.23-1.235 2.05 0 .41 0 .41-.411.82s-1.235.82-1.647.82h-.411v-.41c.411-.41.411-.82.823-1.23.412-.82.823-1.23 1.235-2.05.823-.82 1.646-1.64 2.469-2.05s1.646-.82 2.058-1.23c1.235-.41 2.469-.82 3.704-.41.412 0 1.235 0 1.646.41h.824c-.412 0-1.235.41-1.647.41-.411.41-.823.41-1.234.41zm-7.82-24.598c0 .41-.412.41-.412.82v-1.23-1.64-.82-.41c0-.82-.411-1.64-.411-2.46 0-1.23-.412-2.46-.824-3.69 0-.41 0-.82-.411-.82-.412-1.64-1.646-2.87-2.47-3.69v-.41c.412.41.824.82 1.235.82.412.41 1.235.82 1.646 1.64.412.41.412.82.824 1.23s.411.82.823 1.23c0 .82.823 1.23.823 2.05s.411 1.23.411 2.05 0 1.23.412 2.05c0 .41 0 .41-.412.82s-.411.82-.411 1.23 0 .41-.412.41c.412 0 .412.41.823.82h-1.234v-.82c-.412.41-.412.82 0 .82zm-.412 51.655c.412.41.823 0 1.235-.41 1.235-.41 2.058-1.23 2.881-1.64s1.646-.82 2.469-.82h.412c.411 0 .411.41 0 .41l-.823.82c0 .41-.412.82-.823.82-.824.41-1.647.82-2.058 1.23s-.823.41-1.235 0h-.823-.412l-.411-.41s-.412 0-.412-.41c-.823.41-.411.41 0 .41zm2.881-23.778c.412-.41 1.235-.41 1.646-.82.824 0 1.647-.41 2.47-.82h.823.412v.41c-.824.82-1.235 1.23-2.47 1.23h-1.646-1.235zm44.45 38.127c-.412-.41-.412-.82 0-1.23h.411v.41c0 .41 0 .41-.411.82zm-18.521 41.815c-.412-.41-.412-.82-.412-1.64.412.41.412.82.412 1.64zm.823-7.379c0-.41-.411-.82-.411-1.23.411 0 .411.41.411 1.23zm3.293 15.169v.82c0-.41-.412-.82 0-.82zm-2.881-4.92c0-.41 0-.82.411-.82 0 .41 0 .41-.411.82h0zm17.286-40.996c-.412 0-.412 0-.412-.41s0-.41.412-.41v.82zm-25.106-13.938c0 .41 0 .41-.412.41l.412-.41zm24.282-8.61c-.411.41 0 .41 0 0-.411.41-.411.41 0 0-.411 0-.823 0 0 0-.411 0-.411 0 0 0zm-21.813 39.356c-.411 0-.411-.41-.411-.41.411 0 0 0 .411.41zM80.4 58.099h-.412c0-.41.412-.41.412 0zm69.555 35.667c-.411 0-.411.41 0 0-.411-.41-.411 0 0 0zm-2.881 29.517c-.411 0-.411 0 0 0h0zm-34.983-51.245c-.411.82-1.235.82-2.058.41-.823 0-1.646-.41-2.469-.82s-1.646-.41-2.058-.82c-.412 0-1.235-.41-1.646-.41h-1.235c-.823 0-1.646.41-2.469.41-.412 0-.412 0-.824.41-.823.41-1.235 1.23-1.646 1.64s-.823.82-.823 1.64c-.412 0-.412.41-.412.41-.412.41-.823.82-1.646.41.823-.41 1.235-1.23 1.646-2.05.823-1.23 1.235-2.46 2.469-3.28l2.469-1.23c.823-.41 2.058-.41 2.881-.41 1.235 0 2.058 0 2.881.41.412 0 1.235.41 1.647.82l2.469 1.23c.412.82.412.82.823 1.23zM95.217 83.517c.412-.41.823-.41.823-.82l1.235-1.23 1.235-2.46a3.7 3.7 0 0 1 2.47-2.46c.411-.41 1.234-.41 2.058-.41 1.234-.41 2.469 0 3.704.41.411 0 .823.41 1.234.41.824.41 1.647.82 2.47 1.64v.41.41c0 .41-.412 0-.412 0-.823 0-1.234-.41-1.646-.82-1.235-1.23-2.058-1.64-3.293-1.64s-2.057 0-2.881.41c-.411 0-.823.41-.823.41l-.411.41-1.235 1.23v.41s-.412.82-.412 1.23 0 .82-.412.82c0 .41-.823.82-1.235 1.23s-.411.41-.823.41c-1.235-.41-1.235 0-1.646 0z"></path><path fill="currentColor" d="M96.863 84.337c.823 0 1.646-.41 2.881-.41.412 0 1.235.41 1.646.41h3.293c2.058-.41 3.292-1.23 4.527-2.87v-.41c0-.41 0-.41.412-.41s.411 0 .411.41c0 0 0 .41.412.41.411.41.411.41 0 .82-.412 0-.412.41-.412.82v.41c-.411.41-.411 1.23-1.234 1.64h-.412-.412c-.823 0-1.646 0-2.057.41-1.235.41-2.881.41-4.116 0l-4.939-1.23zm7.408-2.46c0 .41-.823.82-1.234.82-.824-.41-1.235-.82-2.058-1.23-.412-.41 0-.41-.412-.82l.412-.41c.823-.41 1.234-.41 2.058-.41h.411c0 .41.412.41.412.82.411.41.411.82.411 1.23z"></path></svg>