<svg width="120" height="120" viewBox="0 0 200 200" xmlns="http://www.w3.org/2000/svg"><path fill="currentColor" d="M140.487 89.485c-.872.291-1.163 1.164-1.744 1.746 0 .291.581.291 0 .291-.291 0 0 .291-.291.582-.582.873-.582 1.746-.873 2.909-.29.582 0 1.164.291 1.746s.582 1.164 1.163 1.455.873 1.164 1.164 1.455c.29.582.29 1.164.581 1.745v.873a.63.63 0 0 1-.581.582c-.291 0-.291 0-.582.291s-.872.291-1.163.291c-.873-.291-1.745 0-2.617.582-.582.582-1.454 1.164-2.036 1.745-.291.291-.291.873-.581 1.164-.291.873 0 1.164.872 1.746 1.454.582 2.617 1.164 4.071 2.036.291 0 .291.291.582.291.581 0 .581 0 .29.291v.291c.582-.582.582-.873.582-.873h.291c-.291 0-.582 0-.873.291-.29 0-.29 0 0 .291v.291h-.29c-.582-.291-1.454-.291-2.036-.582-1.163-.291-2.035-.291-3.199-.872-.872-.582-1.454-1.164-1.454-2.037 0-.291 0-.873-.29-1.164-.291-.873-.291-1.454 0-2.327l.872-2.328s0-.291.291-.291c0 0 .291 0 .291-.291-.291-.582.29-.582.29-.872.582-.873 1.454-1.164 2.327-1.746 0 0 .29 0 .29-.291s.291-.291.582-.582c0-.291-.291-.873-.291-1.164-.291-1.455-.581-2.618-.291-4.073v-1.746c0-.291 0-.291.291-.582s.291-.582.291-.873c-.291-.873.291-1.455.872-2.037 0 0 .291 0 .291-.291v-.291h.291c.291 0 .291-.291.582-.582a8.81 8.81 0 0 1 1.454-2.037c.29-.291.872-.291 1.163-.582.291.582.581 0 .581 0 .291 0 .582-.582 1.163-.582.582-.291.873-.291 1.454-.291s1.164.291 1.745.582c0 0 .291 0 .582.291.291 0 .291 0 .581-.291.582-1.164 1.454-2.037 2.327-2.909.581-.582 1.454-1.455 2.326-1.746.872-.873 2.036-1.164 3.49-1.455 1.163-.291 2.035-.291 3.198-.291 1.163.291 2.617.291 3.781.873 1.163.291 2.035 1.164 2.907 2.036.582.582.873 1.164 1.164 1.746.29.291.29.873.581 1.455 0 .291 0 .582.291.873v.291c-.291.873 0 1.455 0 2.328v.582c0 .582-.291 1.164-.291 1.746.291 0 .582-.291.873-.291.872-.582 1.744-.873 2.617-1.455.29-.291.872 0 1.454 0 1.163 0 2.326-.291 3.489 0 .582.291 1.454.291 1.745 1.164.581.291.872 1.164 1.163 1.746s.582 1.455.582 2.037v1.746h1.163c1.745 0 3.199.582 4.652 1.164.873.291 1.454.873 2.036 1.455.582.291.872.873.872 1.455.291.873.582 1.746.582 2.619.291.872.291 1.454.291 2.327 0 .291 0 .873-.291 1.164 0 .873-.872 1.745-1.454 2.327v.291c-.291 0-.291 0-.291.291v.291c0 .582-.581.873-.872 1.164.581.291 1.163.291 1.745.582s1.163.582 1.744 1.163c.291 0 .291.291.582.582.582.291.872.873.872 1.455s.291.873.291 1.455c.291.873.291 1.454 0 2.327-.291.582-.581.873-1.163 1.164s-1.163.873-1.745 1.455c0 .582-.581.291-.581.872.29.291.581.291.872.582a5.71 5.71 0 0 1 2.617 2.619c.291.291.291.873.291 1.164s.291.581.291.872c-.291.582 0 1.164-.291 1.746v.873.582c-.291.291-.291.291-.291.582s0 .581-.291.581-.29.291-.29.582c0 .873-.582 1.164-1.164 1.746 0 0-.29 0-.29.291-.291.582-.873 1.164-1.164 1.455-.581.581-1.163 1.163-2.035 1.163-.582 0-1.454.291-2.036.291s-1.163 0-1.744.291h-.291c-.291.291-.873.291-1.454.291-.582-.291-1.163 0-1.454-.291-.873-.291-1.454-.291-2.036-.873-.29-.291-.581-.872-.872-1.454s-.582-1.455-1.163-1.746l-.291-.291c-.291-.291-.582-.582-.872-.291-.291 0-.291 0-.291.291-.582.582-.873.582-1.163 0s-.582-.873-.873-1.455l.291.291c.291.291.582.582.872.291.582.291.873 0 1.164-.291.581-.872 1.454-1.454 2.035-2.327.291-.582.582-.873.873-1.455s.29-1.455.29-2.036c0-.291 0-.291-.29-.291s-.582 0-.873.291c-.872.581-1.745 1.163-2.617 1.454-.291 0-.291.291-.291.291-.291.291-.291.291-.872 0 .581-.582 1.163-1.164 1.745-1.454.872-.582 1.454-.873 2.326-1.164.291-.291.582-.291 1.163-.291.291 0 .291 0 .291-.291h.291c.29 0 .581.291.581.291.582 0 .582.291.582.873s0 1.454-.291 1.745v.582c0 .873-.582 1.455-1.163 2.037-.291.582-.582 1.163-1.163 1.454-.291.291 0 .582.291.873l.581.582s.291.582.582.291c.29.291.29.582.872.582.582.582 1.163.873 2.036.582h.29c0 .291.291.291.582 0s.582.582.872 0c0-.291.582 0 .873-.291.291 0 .291 0 .291-.291v-.291c.581.291.581-.291.872-.291 0 .291.291.582-.291.291-.291 0-.291.291-.291.291v.291h.291c.291-.291.582 0 .872-.291 0 0-.29-.291 0-.291.582.291 1.164-.291 1.745-.291s.873-.582 1.163-.873c0-.291-.29 0-.29-.291v-.291c.872-1.163 1.744-2.909 2.035-4.073 0-.582.291-.873.291-1.454 0-.873-.582-1.455-1.163-2.037-.873-.582-1.745-.873-2.908-1.164h-.873c-.581 0-.581 0-.872-.291-.291-.582-.291-1.454 0-2.036a.63.63 0 0 1 .582-.582c.29-.291.872-.291 1.454-.291.29 0 .581 0 .872-.291s.872-.291.872-.582c0 0 .291 0 .291-.291 0-.582.291-.582.582-.873s.581-.582.581-.872 0-.582.291-.873 0-.291 0-.582c-.291-.582-.581-.873-1.163-1.164-.872-.582-2.036-.873-3.199-1.164-.581 0-1.163 0-1.744.291-.873.291-.873.291-1.164-.291s-.581-.872-.581-1.454c0-.291.581-.873.872-.873s.582 0 .582-.291c.291 0 .291-.291 0-.291 0-.291-.291 0-.291 0h-.291v-.291c.291 0 .582-.291.873-.582.29.291.29-.291.581-.291s.291-.582.582-.582.29-.582.581-.582c.291-.29.582-.29.582-.581.291-.582.581-1.164.581-1.746v-2.037c0-.872-.581-1.454-1.163-2.036-.581-.873-1.454-1.455-2.326-2.037-.872-.291-1.454-.582-2.326-.582-.291 0-.582 0-.873.291-.581.291-.872.582-1.454.873s-.872.291-1.163.873c-.291.291-.291.291-.872.291-.873 0-1.745-.582-2.617-1.164h-.291c.291-.291.872-.291 1.163-.582v-.291c0-.291.291-.291.291-.291.581 0 .872-.291 1.163-.582.582-.291.582-.873.582-1.455-.291-1.164-.582-2.037-1.454-2.909-.582-.582-.873-1.164-1.745-1.455-.582-.291-1.163-.291-2.036-.291-.872.291-1.744.291-2.617.873a2.27 2.27 0 0 0-1.163 1.164c-.291.291-.582.291-.582.873 0 .291-.872.582-1.163.291-.581 0-.872-.291-1.454-.291s-1.163-.582-1.744-.582c.29 0 .581-.291.872-.291s.581-.291.872-.582v-.291c-.291-1.164-.291-2.618 0-4.073 0-.873-.291-1.455-.291-2.328-.29-1.455-1.163-2.618-2.617-3.2-1.744-.873-3.489-1.164-5.234-1.164-1.454 0-2.617.873-3.78 1.746l-1.163 1.164c-.291.291-.873.873-.873 1.455 0 .291 0 .873-.581.873-.291.291-.291.291 0 .582l-3.49.873c-.581 0-1.454.291-2.035.582-.873 0-1.164.582-1.745 1.164-.291.291-.582.582-.872.582-.873-.291-1.164 0-1.164 0zm-7.269-22.693v2.037c0 .873.29 1.455.581 2.328v.291c-.291.873 0 1.455-.291 2.328v.291 1.746c0 .873-.29 1.746-.581 2.328 0 .291-.291.582-.291.873 0 .582-.291 1.164-.582 2.037 0 .291-.29.582-.29.873-.291.873-.582 1.455-1.164 2.328-.29.291-.581.873-.872 1.164-.582.873-1.163 1.746-2.035 2.618-.582.291-.873.873-1.454 1.455-1.164 1.164-2.327 2.037-3.49 2.909l-1.745.873c-1.454.582-2.908 1.164-4.071 2.037-.291 0-.291 0-.581.291s-.873.291-1.164.582-.581.291-.872.291c-.581.291-1.454.291-2.035.582h-.291c-.582-.291-1.163 0-1.745.291-.872.291-2.036.291-2.908.582h-1.163-3.78c-.582 0-1.164.291-2.036 0-1.454-.291-2.908-.291-4.653-.582h-.582c-1.163 0-2.326-.291-3.49-.582s-2.326-.291-3.199-.873c-1.454-.582-2.908-.873-4.362-.873-1.163-.582-2.036 0-3.199.291h-.582c-.872 0-1.454.291-2.326.291-.291 0-.582.291-.582.291-1.163.873-2.036 1.746-2.908 2.909-.582.873-1.454 1.164-2.036 1.746s-1.163.872-1.745 1.163l-1.745.873c-.872.582-2.035.582-2.908 1.164h-.291c-.872 0-1.454 0-2.326.291-.291 0-.872 0-1.163-.291s-.872-.291-1.163-.291-.582 0-1.163-.291l-.291-.291a.63.63 0 0 0-.582-.582c-.291-.291-.291-.873.291-.873.291 0 .582-.291.872-.581 1.745-1.164 3.489-2.619 4.943-4.074.582-.582 1.454-1.164 2.036-1.746.872-.873 1.454-1.746 1.745-2.909 0-.873.291-2.037.582-2.909v-1.746c0-1.164 0-2.619.291-3.782.291-.873.291-1.746.582-2.618s.291-1.455.582-2.328c.582-1.455.872-3.2 1.745-4.655 1.163-2.328 2.617-4.655 4.071-6.983.872-1.455 2.035-2.909 2.908-4.655a21.97 21.97 0 0 1 3.199-4.073c.582-.582 1.163-1.164 1.745-1.455l5.525-3.491c.582-.291 1.454-.873 2.036-1.164 1.454-.873 3.199-1.746 4.943-2.328 1.163-.291 2.036-.873 3.199-.873s2.036-.291 3.199-.582h.291c1.454 0 2.908-.291 4.361 0 .582 0 1.164 0 1.745.291h.291 1.163.582c1.454 0 2.617.582 3.78.873.582 0 1.163.291 1.745.291.291 0 .291 0 .581.291h.291c.873-.291 1.454 0 2.327 0l2.326.873c.872.582 1.745.873 2.617 1.455.582.582 1.163.873 1.454 1.746l.291.291c.581.582 1.163 1.455 1.744 2.328.291.291.291.582.582 1.164 0 .582.582 1.164.582 1.455l1.744 3.491c.291.582.291.873.582 1.455 0 .582.582 1.455.582 2.037 0 0 .29 0 0 .291zm-72.698 34.33c.582.291 1.454.291 2.035.582.582 0 1.163.291 1.745.291 1.163 0 2.326-.291 3.199-.582 1.745-.581 3.199-1.745 4.362-2.909 1.163-.873 2.036-2.037 2.908-2.909 1.454-1.164 2.908-2.328 4.653-2.618.291 0 .582 0 .872-.291.582-.291 1.163-.291 1.745-.291 1.745 0 3.78 0 5.525.291.582 0 .872.291 1.454.291.872 0 1.454.291 2.036.582a16.46 16.46 0 0 0 5.234.873h.291c.291 0 .582 0 .872.291.582 0 1.454 0 2.035.291 1.163.291 2.035.291 3.198 0 1.164 0 2.327-.291 3.199-.291l4.944-.873 2.617-.873 4.071-1.746 2.326-.873c1.163-.582 2.036-1.164 2.908-2.036.582-.582 1.454-1.164 1.745-1.746.581-.582 1.163-1.164 1.454-2.037.581-.582 1.163-1.164 1.454-2.037.581-.291.581-1.164.872-1.455v-.291c-.291-.291 0-.582 0-.873.291-.582.291-1.455.582-2.037.29-.873.29-1.455.581-2.327s.291-1.746.291-2.618c-.291-1.455-.291-3.2-.582-4.655-.29-.582-.29-1.455-.29-2.037s0-.873-.291-1.455-.582-1.164-.582-1.746c-.29-1.164-1.163-2.037-1.454-3.2l-.29-.291c-.291-.582-.582-.873-.873-1.455-.872-1.455-1.745-2.618-2.908-3.491-1.454-1.164-2.908-1.746-4.652-1.746-1.164 0-2.327-.291-3.781-.582-.581-.291-1.163-.291-1.744-.582s-1.164-.291-2.036-.582c-.582 0-1.454-.582-2.036-.291-.581-.291-.872 0-1.453 0h-1.454c-.873 0-1.454.291-2.327.291h-.291s-.29-.291-.29 0l-.291.291c-.873.291-1.745.291-2.326.582-.291.291-.872 0-1.454.291 0-.291-.291 0-.291 0l-.291.291-2.617.873c.872-.873-.291-.873-1.163-.291-.872.291-1.454.873-2.326 1.164-.582.291-.872.582-1.454.873-.291.291-.582.291-.872.582l-2.617 1.746-.872.873c-.291.291-.872.582-1.163 1.164-.872 1.164-2.036 2.037-2.908 3.2-.291.291-.582.291-.582.582-.291.582-.582 1.164-1.163 1.746-.291.582-.872.873-1.163 1.455l-.872 1.746c-.582.582-1.163 1.455-1.454 2.328-.291.582-.582 1.164-1.163 1.746l-.581.582c0 .291-.582.582-.582.873 0 .582-.291 1.455-.582 2.037 0 .291-.291.291-.291.582v.582c0 .582-.291.873-.582 1.164 0 .582-.291 1.164-.582 2.036v.873c-.582.873-.582 1.746-.582 2.618s0 1.746-.291 2.618c0 .582-.291 1.164-.291 1.746 0 .291 0 .873-.291 1.164-.291.582-.291 1.164-.291 1.746s0 1.164-.291 1.455-.291.582-.291.582c0 .582-.291.873-.582 1.164l-.291.291c-.291.582-.872 1.164-1.454 1.746-.291.291-.582.873-1.163.873-.291 0-.582.291-.872.582 0 .291-.291 0-.291 0 0 .291 0 .582-.291.873s-.872.582-1.163.873c-.582.291-1.454.582-2.036 1.164l-.581.581c.291-.29 0-.29-.582 0zM111.408 150c-.872 0-1.745 0-2.617-.291-1.163-.291-2.035-.291-3.199-.582-.581 0-.872-.291-1.454-.291-1.454-.291-2.617-.582-4.071-1.163-1.163-.582-2.035-1.164-2.617-2.328-.582-.582-.872-1.164-1.163-1.746a3.51 3.51 0 0 0-1.454-1.454c-.291-.291-.872-.873-1.163-1.455a3.51 3.51 0 0 0-1.454-1.455c-.291-.291-.872 0-1.454-.291l-4.071-.872c-1.163 0-2.617-.291-3.78 0h-1.163c-1.745 0-3.199.291-4.943.581-.582 0-1.454.291-2.035.291-.872 0-1.454 0-2.326.291-.582 0-1.454.291-2.035 0-.291-.291-.872 0-1.454 0h-2.617-.291c-.291 0 0 .291 0 .291h-.582c-.582-.291-1.454-.291-2.326-.291s-1.454 0-2.326-.291c-.582-.291-1.454-.291-2.036-.291s-.872 0-1.163-.29l-1.745-.873c-.872-.582-1.745-.873-2.617-1.164-.291-.291-.872-.291-1.163-.873-1.163-.582-1.745-1.455-2.326-2.327-1.163-1.164-1.745-2.619-2.036-4.073-.291-.873-.291-2.037-.291-2.91s0-1.455.291-2.327c.582-1.164.872-2.328 1.745-3.201l2.617-2.618c.582-.582 1.454-1.164 2.036-1.746.291-.291.291-.291.581-.291l3.489-1.745c1.454-.873 2.908-1.164 4.071-1.746s2.617-.873 3.78-1.164c.582-.291 1.163-.291 1.745-.582 1.454-.581 3.199-1.163 4.653-1.454.872-.291 2.036-.291 2.908-.582.582 0 1.163-.291 1.745-.291 1.454-.291 2.908-.291 4.653-.582 1.163-.291 2.326-.291 3.489-.582s2.035-.291 3.199 0c1.454 0 2.908.291 4.362.582.872 0 1.745.291 2.908.582.872.291 1.745.291 2.326.291.872 0 1.745.291 2.617.582 1.163.582 2.617.873 3.78 1.454.873.291 1.745.873 2.327 1.746v.291c.872.291 1.163 1.164 1.744 1.746.291.291.582.581.582 1.163s.291 1.455.291 2.037c0 .291.29.291.29.582.291.873.291 1.745.291 2.327s-.291 1.164-.291 1.746c-.29.582-.29 1.455-.872 2.036l-.291.291c0 1.164-.581 2.037-1.163 2.619v.291c0 .582-.291.873-.581 1.164 0 .29-.291.291-.291.581-.291.873-1.163 1.164-1.745 2.037 0 .291-.291.291-.582.582-.581.582-1.163 1.164-1.744 1.455-.291 0-.291.291-.291.291-.291.581-.582.581-1.163.872a.63.63 0 0 0-.582.582c-.291.291-.291.291 0 .582.291.873.582 1.746.582 2.619 0 .29.29.581.29.872.291.291.582.582.582.873s.291.582.582.873l.29.291c.291 1.164 1.164 1.746 2.327 2.618l2.617 1.746c.581.291 1.454.873 2.035 1.455.291.291.582.872.873 1.163l.291.291c.581.291.581.873.581 1.455zM49.76 122.361c-.291.582-.872.873-.872 1.455 0 .291-.291.291-.291.581-.291.873-.582 2.037-.582 2.91s0 2.036.291 2.909c.291 1.455.872 2.619 1.745 3.492.291.29.291.581.582.872.872.582 1.454 1.164 2.617 1.746.582.291 1.454.582 2.036.873 1.745.582 3.489 1.164 5.525 1.164.582 0 1.163.29 1.745 0h1.454 1.163c.872-.291 1.745 0 2.617-.291h3.199 2.326c1.163-.291 2.617-.291 3.78-.582.582 0 1.454 0 2.035-.291s1.454-.291 2.326-.291c1.454 0 3.199-.291 4.653 0 .872 0 1.745.291 2.908.291.582 0 1.454.291 2.036.291 1.454 0 2.617.873 3.78 1.163.291 0 .291.291.582.291.582.582 1.163.873 1.454 1.746a.63.63 0 0 0 .582.582c.582.582.872 1.164 1.454 1.746.291 0 .291.29.291.581.291.873.872 1.455 1.454 1.746.291.291.581.873 1.163.873.872.582 1.745.873 2.908 1.164.291 0 .582.291.872.291-.29-.291-.581-.291-.581-.582-.582-.582-.873-1.164-1.454-1.746-.873-1.164-1.745-2.327-2.327-3.491-.29-.582-.29-.873-.581-1.455-.291-.873-.582-1.455-.873-2.036-.582-1.164-.582-2.619-1.163-3.783v-.582c.291-.581.291-1.163.872-1.454l.581-.582c.291-.291.291-.582.873-.582.29-.291.581-.291.872-.582.291-.582.582-.582 1.163-1.164.291-.291.873-.291.873-.872 0-.291.29-.582.581-.582v-.291c0-.291 0-.582.291-.873.291 0 .291-.291.291-.291 0-.291.291-.291.291-.291.29 0 .581-.291.29-.582s0-.291 0-.291a.63.63 0 0 0 .582-.582c-.291-.291 0-.582.291-.872 0-.291.291-.582.291-.873.29-.873.29-1.746.581-2.619.291-1.163.291-2.327-.291-3.491-.29-.291-.29-.582-.581-.873-.582-1.164-1.163-2.327-2.617-2.909-.291-.873-1.164-.873-1.745-1.164-1.454-.582-2.908-.873-4.071-1.164-.872-.291-2.036-.291-2.908-.582-1.454-.29-3.199-.581-4.653-.581h-1.745c-1.163-.291-2.326-.291-3.49 0s-2.326.291-3.199.291h-1.163-1.454-1.163c-.872 0-1.454 0-2.326.29h-.582-1.454-.582c-.582.582-1.454.582-2.326.582-.291 0-.582 0-.872.291s-.582.291-.872.582c-.872.291-1.745.291-2.908.582h-.582c-.582.291-.872.582-1.454.582-.872.291-1.454.291-2.036.582-.291.291-.582.291-.872.291-.872 0-1.454.582-2.326.873-.872.581-1.745.872-2.617 1.745-1.163.873-2.036 1.455-2.908 2.328-.582.582-1.163.872-1.454 1.454l-2.326 2.037z"></path><path fill="currentColor" d="M36.966 114.506c.872 1.163 1.745 1.163 2.908 1.454.582 0 .872 0 1.454.291s.291.582.582.873 0 .582-.291.582c-.291.582-.872.873-1.454 1.164s-1.163.582-2.036.872-1.745 0-2.326 0c-1.163 0-2.036-.581-3.199-.872-1.163-.582-2.036-1.164-2.908-1.746l-3.199-2.327c-.582-.582-1.454-1.164-2.036-2.037-.291-.291-.291-.582-.582-.582.872.291 1.745 0 2.617.873.291.291.582.291.872.291.291.291.872.291 1.163.873l.291.291c.582.291.872.581 1.454.872s.872.873 1.454 1.164c1.163.582 2.326 1.455 3.78 2.037s2.908.582 4.362 0l.291-.291c.291-.291.291-.291.291-.873 0-.291-.291-.291-.582-.291-.872 0-1.745-.291-2.617-.582a.63.63 0 0 1-.582-.582l-.291-.291c-.582 0-1.163-.582-1.745-.872.291-.291.872-.582 1.163-.582.582 0 .872-.291 1.163-.291l1.745-.873c.872-.291 1.745-1.164 2.617-2.037-.291 0-.582 0-.872-.291-1.163-.291-2.036-.872-2.617-1.454l-.582-.582c-.291-.291-.291-.291-.582 0 0-.291.291-.291.582-.291.872 0 1.745.291 2.617.582 1.163.582 2.326.582 3.489.873.582 0 1.163 0 1.454-.291.291 0 .582-.582.582-.873 0-.582 0-1.164-.291-1.455-.582-.582-1.454-1.455-2.035-2.327-.291-.291-.872-.582-1.163-1.164-.291-.291-.291-.582-.582-.873-.872-1.164-1.745-2.036-2.326-3.491-.582-1.164-1.163-2.037-1.454-3.2-.291-.582-.291-.873-.581-1.455-.582-1.164-.872-2.328-.872-3.782v-.291c.291-.291.582-1.164.872-1.455s.581-.291.581-.873c0 0 0-.291.291-.291 0 0 .582 0 .291-.291h.291c.291 0 .872 0 1.163-.291.582 0 .582-.582.872-.582s0-.291 0-.582-.291-.291-.291-.291c-.582.291-.872 0-1.454 0-.291 0-.872 0-1.163-.291-.872-.291-1.454-.873-2.326-1.455l-.291-.291c-.872-1.164-1.745-2.618-2.326-4.073-.291-.291-.291-.873-.291-1.164a.63.63 0 0 0-.582-.582c0 .582 0 1.164.291 1.746s.291 1.164 0 1.746v.291a3.21 3.21 0 0 1 0 2.328c0 .582-.291 1.164 0 1.746 0 .291 0 .582-.291.873s-.291.582-.291.873c0 .873-.291 1.455-.582 2.328 0 .291-.291.582-.582 1.164s-.291.873-.582 1.455-.872 1.164-1.163 1.746c-.582.873-1.454 1.746-2.326 2.618-.291.291-.291 0-.582 0s-.291-.291-.582-.291c0-.291-.291-.582-.291-.873 0-.873-.291-1.455-.291-2.328 0-1.164-.582-2.037-1.163-3.2 0-.291-.291-.291-.291-.291-.291.291-.291.582 0 1.164s0 1.164 0 1.746c-.291.873-.291 1.455-.291 2.328s0 1.455-.291 2.037c0 .291-.291.582-.291 1.164-.291 0-.291.291-.291.582.291.291 0 .291 0 .582 0 .873-.291 1.454-.582 2.036a.63.63 0 0 1-.582.582c-.291 0-.291 0-.291-.291 0 0 0-.291.291-.291.291-.291.291-.582.291-.872.291-.873 0-1.455.291-2.328v-.291-.291c.582-.291.291-.873.582-1.164v-.291c-.291-.873-.291-1.746-.291-2.328v-.582a.89.89 0 0 0 0-1.164V90.65c0-.582 0-1.164.291-1.746 0-.291.291-.291.291-.582 0 0 .291 0 .291-.291.582-.291.582-.291.582.291.291.291.291.582.581.873.582 1.164 1.454 2.328 1.745 3.782 0 .291.291.582.291.873s.291.873.291 1.164 0 .582.291 1.164c.291-.582.582-.873.872-1.455.582-.582.872-1.455 1.163-2.037.872-2.037 1.745-4.073 1.745-6.11v-.291c.291-.582.291-1.164.291-1.746v-2.328c0-.582.291-1.164 0-2.037V79.01c0-.291-.291-.873-.582-1.164s0-.873 0-1.164c.291-.291.872-.582 1.163-.291.291 0 .291.291.291.291.291.582.582.873.872 1.164l1.745 1.746c.582.582.872 1.164 1.163 1.746.291.291.291.582.582.873l1.745 1.746c.291 0 .291.291.291.582.582.291 1.163.873 1.745 1.164s.872.582 1.163 1.164c0 .291.291.582.291.582.291.582.582 1.164.582 1.455s0 .291-.291.582h-.291c-.291-.291-.291-.291-.582-.291-1.163-.291-2.036.291-2.617.873-.872.873-1.454 1.746-.872 2.909.291.582.291.873.291 1.455.581.873.872 2.037 1.454 2.909l.872 1.746c0 .291.291.291.291.291.291.582.582 1.164 1.163 1.455l.582.581c.291 0 .291.291.291.291.582.873 1.163 1.455 2.036 2.328h.291v-1.455c0-.291.291-.291.291-.582-.291 0-.291-.291-.291-.582v-2.036c0-.582 0-1.455-.291-2.037 0-.291-.291-.291-.291-.582.582 0 .872 0 .872.291.291.582.582 1.455.582 2.037s0 1.164.291 1.746v.581c0 .582.291 1.164 0 1.746 0 .291 0 .582-.291.873s-.291.582 0 1.164l.291.291c.291.29.872.872 1.163 1.454a.89.89 0 0 1 0 1.164v.291c0 .582-.291 1.164-.872 1.455-1.163.581-2.326.872-3.489 1.163-.291 0-.582 0-.872.291s-.872.582-1.163 1.164c-.291.291-.582.582-1.163.873 0 .582-.872.873-1.745 1.164zM21.263 98.213c-.291-.291-.291 0-.291 0s.291.291.291 0zm149.467 10.183c-.291.291 0 .582.29.582l.873.873c0 .291 0 .581-.291.872l-.582.582c-.29.582-.581 1.455-.872 2.037a.89.89 0 0 0 0 1.164c.291.581.582 1.163 1.454 1.454.582.291.872.582 1.163 1.164.291.291.582.582.291 1.164 0 .582-.291.582-.582.582-.872 0-1.163.582-1.454 1.163s-.581.873-.29 1.455c0 .291.29.582.29.873.291.291 0 .873-.29.873h-.291c-.291.291-.291.291-.582.291s-.581-.291-.872-.582c-.582-.873-.872-1.746-.582-2.619 0-.291.291-.582 0-1.163v-.582c.291-.291.291-.582.582-1.164.291-.291 0-.291-.291-.582-.291 0-.581-.291-.581-.291-.582-.582-1.164-1.455-1.164-2.618s0-2.328.291-3.492v-.29c-.581 0-1.454 0-2.035-.291-.873 0-1.745-.291-2.327-1.164-.581-.582-.872-1.455-1.163-2.037-.291-1.163-.291-2.036-.291-3.2v-2.328-.581c0-.291-.29-.291-.581-.291l-.582.582c-.291.29-.581.581-.581.872a3.51 3.51 0 0 1-1.454 1.455c-.582.582-1.164.873-2.036 1.164-.291 0-.291.291-.581.291s-.582.291-.873.291c-.581.291-1.454.582-2.326.582h-.291c-.872 0-1.454 0-2.326-.291-.291-.291-.873-.291-1.163-.291s-.291-.291-.582-.291c-.872-.582-1.745-1.164-2.326-2.328-.291-.582-.291-.873-.582-1.454-.291-.291-.582-.582-.582-.873s0-.873-.29-1.164c0-.291 0-.291.29-.291.873.291 1.745.582 2.618.582.29 0 .29.291.29.291.291.582.873 1.164 1.164 1.745.872 1.164 2.326 1.746 3.489 2.037.291 0 .582 0 .582.291h.29c.582-.291 1.164 0 1.454-.291.582-.582 1.454-1.164 2.327-1.455 1.163-.582 2.035-1.454 2.908-2.036l.581-.582c.873-.873 1.745-.873 2.908-.582.582.291 1.163.291 1.454.582s.582.582.291 1.164v.872c0 .873 0 1.455-.291 2.328s0 1.455 0 2.327c0 .291.291.291.291.582l1.163 1.164c.291.291.872.291 1.454.291h.582c1.163.582 2.035.582 2.617.582zm-16.866 26.184c-.582.291-1.454 0-2.036.582-.581.291-1.163.291-1.745.291h-1.744c-.291 0-.873 0-1.163-.291-.582-.291-1.164-.291-1.745-.582-1.163-.582-1.745-1.454-1.745-2.618v-.291c0-.291-.291-.291-.582-.291-1.163.291-2.035.291-3.198 0-.582 0-.873-.291-1.454-.291-.291 0-.291-.291-.291-.582 0-.582 0-1.164.291-1.745.291-.873.872-1.455 1.454-2.037.291-.291.581-.873.872-1.455.582-.873 1.163-1.454 2.036-2.327.581-.582 1.163-1.455 1.744-2.037.582-1.164 1.164-2.036 1.454-3.2s.291-2.037 0-2.909-.872-1.164-1.454-1.164c-.581-.291-1.454-.291-2.326-.291.291-.582.582-.582 1.163-.582.873 0 1.454.291 2.327.291.581.291 1.454.582 1.744 1.164.291.291.291 1.163.291 1.745s-.291 1.455-.291 2.037-.581.873-.29 1.164c-.582.291-.582.872-.873 1.163-.291.873-.872 1.455-1.163 2.328-.291.291-.582.582-.872 1.164s-.873.872-1.164 1.454v.291c-.581.291-.872.873-1.163 1.164l-.29.291s0 .291-.291.291c-.582.291-.873.873-1.163 1.164l-.291.291c0 .29 0 .291.291.291.872.29 1.744.581 2.617.581s1.454 0 2.326-.291 1.454-.581 2.036-.872c.29 0 .581-.291.872-.291l1.745-.873c.29-.291.29 0 .581 0 .291.291 0 .291 0 .582a8.83 8.83 0 0 1-2.035 1.454c-.291 0-.291.291-.582.582-.872.582-1.745.582-2.617 1.164.291.291.582.582.582 1.164 0 .291.29.582.581.582.291.291.582.291 1.163.582h.291c2.617.872 4.944.29 7.27-.291.872-.291 1.454 0 2.035 0s.582.291.582.872-.582 1.164-1.163 1.455c-.872.291-1.454.873-2.036 1.455s-1.454.873-2.035 1.455h-.291c-.291-.291-.582 0-1.163.29-.291.291-.582-.29-.873 0s-.581 0-.872 0-.581 0-.291.291c0 .291.291.291.291.582.582.582 1.163.873 1.745 1.164 1.454.873 2.908.873 4.362.873 1.163 0 2.035-.291 3.198-.873.291-.291.873-.291 1.454-.582.582 0 1.164-.582 1.745-.873s1.454-.582 2.036-1.163c1.163-.873 2.326-1.455 3.489-2.619.291-.291.582-.291.873-.582.581-.291 1.163-.582 1.454-1.454 0-.291.29 0 .29 0 .291 0 .291.291 0 .291 0 .29-.29.581 0 .872 0 .291-.29.582-.29.873-.582.873-1.454 1.455-2.327 2.037-1.454 1.163-2.908 2.036-4.362 2.618-.29.291-.581.582-1.163.873-.291 0-.581.291-.872.291l-1.745.873c-1.454.582-2.908 1.163-4.653.873-1.454 0-2.617-.582-4.071-1.164-.291 0-.291-.291-.581-.291-.873-.291-1.163-.873-1.745-1.746-.291-.582-.291-1.454-.291-2.036 0-.291.582-.582.873-.582 1.163.291 2.326-.291 3.489-.582 1.163-.582 2.036-1.455 2.908-2.037-1.163.582-.872.291-1.163 0z"></path><path fill="currentColor" d="M17.192 75.229c.872-.291 1.745-.873 2.326-1.164s.872-.582 1.454-.582c.291 0 .582-.291.872-.582.291-.582.582-1.164.872-1.455.291-.873 1.163-1.164 2.036-1.164.291 0 .291 0 .291.291-.291.873-.291 1.746-.291 2.618 0 .291.291.291.291.291l1.745-.873c.872-.582 2.036-.873 3.199-.582.582 0 .582 0 .582.873 0 .582.291.873.582 1.164h.291c.872.291 1.745.582 2.326 1.164.872.291 1.454.873 2.036 1.455s1.163.873 1.745 1.455a6.34 6.34 0 0 1 1.454 2.327s0 .291.291.291c.291.582.582.873.582 1.455 0 .291 0 .582.291.582.291.291.291.582.291.873v.291h-.291c0-.291-.582-.582-.582-.873-.872-1.164-1.454-2.328-2.326-3.491-.291-.291-.291-.582-.872-.873-1.163-1.164-2.617-2.037-4.362-2.328-1.163-.291-2.036-.873-2.617-1.746-.291-.291-.582-.582-.582-.873s-.291-.291-.582-.291-.582.291-.872.291c-.582.582-1.163.873-1.745 1.164-.291.291-.582.291-.872 0l-.291-.291c-.582-.582-.872-.582-1.745 0 0 0-.291 0-.291.291-1.163.291-2.036.873-3.199 1.455h-.291c-.582-.873-1.163-.873-1.745-1.164 0 .291 0 .291 0 0zm-3.199 20.075c-.291-.291-.291-.582-.582-.873-.291 0 0 .291 0 .291 0 .291.291.582 0 .873v.291c.291 0 .291.291.582.582.872 0 .582.873 1.163 1.164.291.582.872 1.164 1.163 1.746.581.582 1.163 1.164 1.454 1.745v.291c-.291.582.291.873.582 1.164.582.582 1.163 1.164 1.745 1.455l.291.291c-.581 0-1.163-.291-1.454-.582-.872-.582-1.745-1.164-2.326-2.037-.581-.582-1.163-.872-1.454-1.454-1.163-.873-1.745-2.328-2.326-3.783l-.872-2.328c-.291-2.328-.291-4.364-.291-6.401 0-1.455.291-2.909.582-4.364l.872-2.618c.291-.582.582-1.164.872-2.037.291-.582.872-1.164 1.454-1.746 0 .582-.291.873-.582 1.164l-.291.291c0 .291 0 .582-.291.873-.291 1.164-.872 2.328-1.163 3.491-.291.873-.291 1.746-.582 2.618-.291 2.037 0 4.073.291 6.11 0 .291-.291 0-.291.291s0 .291.291.291l1.163 3.2zm4.071 8.437c-.582 0-1.163-.291-1.745-.291-.291 0-.872 0-1.163-.291-.291 0-.291 0-.291.291 0 .873.582 1.455.872 2.037 0 0 .291 0 .291.29.581.582 1.163 1.164 2.035 1.455l.291.291c.291.582 1.163.873 1.745.873h.872.291v.291.291c-.582 0-.872.291-1.454.582-1.163.291-2.036-.291-2.908-.873a13.79 13.79 0 0 1-2.908-2.91c-.582-.872-.582-1.745-.872-2.618 0-.291.291-.291.291-.291.582 0 1.163 0 2.036.291.872 0 1.745.291 2.617.582zm143.07 18.62s-.291-.291 0-.291c.581-.873.29-1.746.29-2.618-.29-.873-.872-1.746-1.454-2.328a2.22 2.22 0 0 0-1.454-.582c-.581 0-1.163-.582-1.454-1.164.582.291.873.291 1.454 0h.873l1.745.873c.872.582 1.163 1.455 1.744 2.328v.873c0 .872 0 2.036-.581 2.909-.291.291-.582.291-1.163 0zm-21.228-12.51c1.454-.582 2.326-1.455 2.908-2.91.29-.291.581-.582.581-.873.291-.872.873-1.454 1.163-2.327 0 0 .582-.291.873-.291s.291.291.291.582c-.291.582-.291 1.455-.582 2.036v.582c0 .582-.582 1.164-.872 1.455-.582.582-1.164.873-1.454 1.455l-.291.291c-1.163-.291-1.745 0-2.617 0zm-1.163 6.4c.29 0 .29.291.581.291s.291.291.291.291c0 .873 0 1.455-.291 2.328v1.454c.291 1.164.291 2.328.873 3.492.29.29.29.872.581 1.454 0 .291 0 .291-.291.582h-.581l-.291-.291c-1.163-1.745-1.454-3.782-1.454-5.819 0-.581.291-1.163.291-1.454.291-.873.291-1.455.291-2.328zM29.405 101.704c0 .291 0 .291-.291.291-1.163.582-1.745 1.455-2.908 1.746-.582.291-1.163.582-1.745.582 0-.291 0-.291.291-.291a6.33 6.33 0 0 0 2.326-1.455c.291-.291.872-.582 1.454-.873h.872zm114.572 16.002c-.291 0-.291 0-.291-.291s0-.582-.291-.582c0 0 0-.291-.291-.291 0-.582-.29-.873-.581-1.164v-.291s0-.29.291 0 .872.291.872.582v.291c.582.291.582.582.872 1.164 0 .291.291.291.291.582h-.872zm12.213 1.164c.582.582 1.163.872 1.745 1.454.291.291.291.582 0 .873-.291 0-.291.291-.582.291-.291-.291-.581-.291-.581-.582s0-.582-.291-.873c-.582-.581-.582-.872-.291-1.163zM41.327 92.685c-.291.582-.582.873-.872 1.164s-.582.582-.582.873a.63.63 0 0 1-.582.582c.291-1.455 1.163-2.618 2.035-2.618zm110.792 10.765h1.454 1.163c-.872.873-1.745.582-2.617 0z"></path><path fill="currentColor" d="M161.134 122.361c0 .582 0 .873-.582 1.164h-.291v-.291c.582-.291.582-.582.873-.873zm-11.341-19.784c.29.291.872.291.872.873l-.872-.873zM67.79 140.108h-1.163 1.163zM15.447 77.266c0-.291.291-.291.582-.582 0 .291 0 .582-.582.582zm-1.163 18.62s-.291 0-.291-.291c.291 0 .291.291.291.291zm126.203-6.401h0c0 .291 0 .291-.29.582 0-.291.29-.291.29-.582zm2.036 20.657c0 .29-.291.29-.291.29v-.29c-.291-.291 0 0 .291 0zm-38.675 32.876h0 0z"></path><path fill="currentColor" d="M149.793 102.286c-.291 0-.291 0-.582-.291.291.291.582.291.582.291zm-49.435 34.04c.291.291 0 .291 0 .582v-.582zm1.745-54.114c-.291.291-.582.582-.582.873-.872.291-1.454 1.164-2.326 1.455-.291 0-.582.291-.872.291-1.163.582-2.326.582-3.489.291s-2.036-.873-2.908-1.746l-.291-.291s-.291 0-.291-.291v-.291c-.582 0-.291-.582-.291-.582 0-.873 0-1.746.582-2.618.582-1.455 1.745-2.037 2.908-2.909.582-.291 1.163-.873 1.745-1.164l.291-.291c0-.291-.291 0-.291 0-.291-.291-.872-.291-1.163-.582-.582-.291-1.163-.582-1.745-.582-1.163-.291-2.035-.873-2.908-1.455s-1.163-1.746-.872-2.909v-.582c0-.582.291-1.164.872-1.455.582-.582 1.163-1.164 2.036-1.455.291-.291.582 0 1.163 0h2.036c.582 0 1.163.291 2.035.291.291 0 .582 0 .291-.291-.291-1.164-.291-2.327-.291-3.491v-.873-.291c.291-.291.291-.873.291-1.164 0-.582.291-.873.291-1.455.291-.291.291-.582.582-.873h.291c0-.291 0-.582.291-.582.581-.291.872-.582 1.744-.582s1.745 0 2.327.291c.872.291 1.454.582 2.035 1.164.291.291.873.291 1.164.873.581.582 1.163 1.164 1.163 2.328 0 .291 0 .582.29.873.291.582.291.873.291 1.455.582-.582.873-1.164 1.163-1.455.582-.582 1.164-1.164 2.036-1.746a5.28 5.28 0 0 1 5.816 0s.291 0 .291.291c.29.582.872 1.164.872 2.037s0 1.746-.291 2.619v.582c0 .582-.291 1.164-.872 1.455 0 0-.291 0-.291.291s-.291.291-.291.582c-.291.291-.581.582-1.163.873l-.291.291s-.29.291 0 .291h.291 2.036c.872 0 1.454.291 2.035.582.873.291 1.454 1.164 2.036 1.746.581 1.164.581 2.328.29 3.491-.29.582-.29 1.164-.872 1.746-.581.873-1.163 1.455-2.326 1.746-.291 0-.873 0-.873.291-.581.582-1.454.582-2.326.582h-.872c-.291 0-.873-.291-.873-.582-.29-.291-.581-.291-.872-.291.582.291.872.582 1.454.873.291.291.581.291.581.582s.291.582.291.873c.291.291.291.582.291 1.164-.291 1.164-.872 2.328-1.163 3.491a2.19 2.19 0 0 1-2.036 1.455c-.872 0-2.035.291-2.908.291-1.454 0-2.907-.582-3.78-1.746-.872-.873-1.163-1.746-1.454-2.618-2.035-.582-2.035-.873-2.326-1.164.291.291.291.291 0 0zm4.071-13.965c0-.291-.291-.873-.291-1.164-.291-.291-.291-.582 0-.873 0-.582.291-.873.291-1.455-.291-1.455-.291-2.618-.872-4.073-.291-.582-.582-1.164-1.164-1.455-.29-.291-.872-.291-1.163-.582a1.85 1.85 0 0 0-1.745 0 3.51 3.51 0 0 0-1.454 1.455v.291c0 .582 0 1.164-.291 1.455 0 .291 0 .582.291.873.582.873.873 1.746.873 2.619a2.23 2.23 0 0 0 .581 1.455c.291.291.582.873.873 1.164s0 .582 0 .873-.582.291-.873.291h-1.163c-.29 0-.872 0-1.163-.291-.291-.582-.872-.582-1.454-.873s-1.454-.291-2.326-.582c-.582 0-.872 0-1.454-.291-.872 0-1.454.291-2.035.873-.291.291-.291.291-.291.582-.291.582-.291.873 0 1.455.291.291.872.582 1.454.873 1.745.873 3.49 1.164 5.234 1.746a.63.63 0 0 1 .582.582c0 .291.291.291.582.291.582 0 1.163.582 1.745.582.29 0 .291.291.581.582-.29.291-.581.291-.872.291-.291.291-.291.582-.582.873l-.29.291c-.291.291-.582.291-.582.582l-.291.291h-.291c-.291 0 0 .291 0 .291a12.93 12.93 0 0 0-3.199 2.328c-.582.582-.582 1.164-.872 1.746-.582 1.164.291 2.328 1.454 2.328.872 0 1.454-.291 2.326-.582.872-.582 1.744-1.164 2.617-2.037l.29-.291c.291.291.291-.291.582-.291 0-.291 0-.291.291-.291s.291-.291.291-.291c0-.582.29-.873.872-.873 0-.291.582-.291.582-.582 0 0 0-.291.29-.291h1.454c.873 0 1.164.291 1.454 1.164v.582 2.909c0 .873.582 1.746 1.163 2.327.873.582 2.036.582 2.908.582 0 0 .291 0 .291-.291.873-.873 1.454-2.328.873-3.491-.291-.291-.582-.873-.582-1.164l-.872-1.746v-.291c-.291 0-.291-.291-.291-.291-.291-.291-.582-.873 0-1.164v-.291c0-.291 0-.291.291-.291.29.291.29.291.581 0h.291 2.326a4.03 4.03 0 0 0 2.617 0h.582c.291.291.582 0 .872 0 .873-.291 1.745-.873 2.618-1.455.29 0 .29-.291.581-.582.291-.873.582-1.455.582-2.328s-.582-1.455-1.454-1.746h-.582c-1.163 0-2.326 0-3.489.291l-3.199.873c-.291 0-.291 0-.291.291-.291.291-.581.291-.581 0-.291-.582-.291-.873-.582-1.455s0-1.164.582-1.455c.581-.582 1.454-1.164 2.326-2.037.581-.582 1.454-.873 1.745-2.037.581-.582.872-1.164 1.163-1.746s.291-1.164.291-1.746c0-.291 0-.582-.582-.582s-1.454 0-2.036.291a5.71 5.71 0 0 0-2.617 2.618c-.581.873-.872 2.037-1.454 2.909-.29.291-.29.873-.29 1.164s0 .291-.291.582c0 .291-.291.291-.582.291-2.908 0-3.489-.291-3.78-.582zm-35.477 57.896v.582c0 .291-.291.582-.582.873-.872.291-1.454 0-2.326-.291s-1.163-1.164-1.163-2.037v-.291c0-.872.291-1.163.872-1.454h.291c.581.291 1.163.291 1.745.872.291.291.582.291.582.291.291 0 .291.291.291.291-.291.291 0 .582 0 .873.291 0 .291.291.291.291zm-2.036-.582c0-.291 0-.582-.291-.582h-.291a.89.89 0 0 0 0 1.164l.291.291c.291 0 .291-.291.291-.291v-.582zm11.342.873c-.582 0-.872 0-1.163-.582s-.872-.873-.872-1.455v-.29c.291-.291.582-.291.291-.873 0 0 .291-.291.291-.582s.291 0 .582.291c0 0 .291.291.291 0 .291-.582.872-.291 1.454-.291.291 0 .872 0 1.163.291.291 0 .581.291.291.582v1.163c0 .291 0 .291-.291.582-.291 0-.291.291-.582.582 0 .291-.291.291-.291.291-.582 0-.872.291-1.163.291zm.582-1.455c0-.291 0-.582-.582-.582h-.291c-.291 0-.291-.29-.582 0l-.582.582v.291l.872.873c.582-.291 1.163-.873 1.163-1.164zm7.269-2.618c.582 0 1.163.291 1.745 0h.582c.872 0 1.163.291 1.163 1.164 0 .291.291.582.291.872 0 1.164-1.163 1.746-2.326 1.164-.291-.291-.582-.291-.872-.582s-.291-.291-.582-.872c0-.291-.291-.582 0-.873v-.291s.291-.291 0-.582zm1.745.873c-.291 0-.291.291-.582.291 0 0-.291.291 0 .291 0 .291.291.872.582 1.163h.291c.291 0 .582-.582.582-.872-.291-.582-.582-.873-.872-.873zm-39.839-.873h.291s0 .291-.291 0z"></path><path fill="currentColor" d="M106.174 68.247v.291c.291.291 0 .291 0 .582-.291-.291 0-.582 0-.873z"></path></svg>