<svg width="40" height="40" viewBox="0 0 62 40" xmlns="http://www.w3.org/2000/svg"><g fill="darkGrey"><path d="M8.2 14.9l-1-2.4-.9 2.4zM32.1 12.7c-.2-.1-.4-.1-.7-.1h-1.8V14h1.8c.3 0 .5 0 .7-.1s.3-.3.3-.6-.1-.5-.3-.6zM44.8 12.5l-.9 2.4h1.8zM60.5 26v-4.8H25l-1.3 1.4-1.2-1.4h-8.8v10.3h8.6l1.3-1.4 1.2 1.4h5.5v-2.3h.3c.7 0 1.3-.1 1.9-.3v2.6h24.2c2.5 0 4.1-1.5 4.1-3.8 0-.6-.1-1.2-.3-1.7zm-29.8 1.7h-1.9V30h-3.2l-1.9-2.2-2 2.3h-6.4v-7.2h6.5l1.9 2.2 2-2.2h5.1c1.8 0 2.8.8 2.8 2.4s-1 2.4-2.9 2.4zm9.6-.5c.2.4.3.7.3 1.3V30h-1.8v-1.1c0-.4 0-.9-.2-1.2-.2-.2-.5-.3-1.1-.3h-1.6V30h-1.8v-7.2h3.8c.8 0 1.4 0 2 .3.6.4.9.9.9 1.6 0 1-.5 1.6-1 1.9.1.2.4.4.5.6zm6.5-2.7h-3.7v1.1h3.6v1.6h-3.6v1.2h3.7V30h-5.5v-7.2h5.5zm4 5.5h-3.2v-1.7h3.2c.3 0 .5 0 .6-.1s.2-.2.2-.4-.1-.3-.2-.4-.3-.1-.5-.1h-.3c-1.4 0-3.1-.1-3.1-2.3 0-1.1.6-2.2 2.4-2.2H53v1.7h-3c-.3 0-.4 0-.6.1-.1.1-.2.2-.2.4s.1.4.3.4c.1.1.3.1.6.1h.9c.9 0 1.5.2 1.9.6s.5.8.5 1.6c-.1 1.5-.9 2.3-2.6 2.3zm5.9 0h-3.2v-1.7h3.2c.3 0 .5 0 .6-.1s.2-.2.2-.4-.1-.3-.2-.4-.3-.1-.5-.1h-.3c-1.4 0-3.1-.1-3.1-2.3 0-1.1.6-2.2 2.4-2.2H59v1.7h-3c-.3 0-.4 0-.6.1-.1.1-.2.2-.2.4s.1.4.3.4c.1.1.3.1.6.1h.9c.9 0 1.5.2 1.9.6s.5.8.5 1.6c-.1 1.5-1 2.3-2.7 2.3z"></path><path d="M17.1 24.5v1h3.5v1.7h-3.5v1.2h3.7l1.8-2-1.7-1.9zM28.8 26h1.9c.6 0 .9-.3.9-.8s-.3-.8-.9-.8h-2V26zM27.1 29v-5.1l-2.2 2.5zM38.4 19.2c.9.4 1.8.5 2.3.5h3l.6-1.6h1.1l.6 1.6h11.2V9.4H40.8c-.9 0-1.7.2-2.4.5v-.5H16.6l-.9 2.2-.9-2.2H5L.8 19.7h5.3l.6-1.6h1.1l.6 1.6h30zm-18-1.1h-1.8V13l-2.1 5.1H15L12.9 13v5.1H9.4l-.6-1.6H5.7L5 18.1H3.1L6 10.9h2.5l2.5 6.2v-6.2h2.7l2 4.6 1.8-4.6h2.8v7.2zm6.5-5.5h-3.7v1.1h3.6v1.6h-3.6v1.2h3.7v1.6h-5.5v-7.2h5.5zm7.1 2.7c.2.4.3.7.3 1.3v1.5h-1.8V17c0-.4 0-.9-.2-1.2-.2-.2-.6-.3-1.1-.3h-1.6V18h-1.8v-7.2h3.7c.8 0 1.4 0 2 .3.6.4.8.9.8 1.6 0 1.1-.7 1.7-1 1.9.3.3.6.5.7.7zm2.9 2.8h-1.8v-7.2h1.8zm.6-3.5c0-1.3.3-2.1.9-2.8.5-.6 1.3-.8 2.5-.8h1.6v1.7h-1.6c-.6 0-.9.1-1.1.4-.3.3-.4.8-.4 1.5s.1 1.2.4 1.6c.2.3.7.3 1 .3h.6l2.2-5.5h2.5l2.5 6.2V11h2.6v.1l2.6 4.5V11h1.8v7.2h-2.4v-.1l-2.8-4.9v5H47v-.1l-.6-1.5h-3.1l-.6 1.6h-1.9c-.5 0-1.7-.1-2.4-.8s-.9-1.5-.9-2.8zM37.7 24.5h-1.8v1.4h1.8c.3 0 .5 0 .7-.1s.3-.3.3-.6-.1-.4-.3-.5c-.1-.2-.4-.2-.7-.2z"></path></g></svg>