<svg height="70" viewBox="0 0 120 120" width="70" xmlns="http://www.w3.org/2000/svg"><path d="M28.7645 75.3961C29.0622 76.5744 28.7645 76.5744 27.8716 76.5744C26.681 76.5744 25.4904 75.6907 24.0022 76.5744H23.7045C23.1093 75.3961 21.9187 76.5744 21.3234 75.9853C21.3234 75.9853 21.0257 75.9853 20.7281 75.9853C19.5375 76.5744 18.6446 79.5201 18.6446 80.6984C18.9422 83.3495 20.4305 86.0006 21.621 88.3572C21.9187 89.2409 22.514 90.1246 22.8116 91.0084C24.0022 93.0703 25.7881 94.2486 27.574 95.4269C28.1692 95.7215 28.1692 95.7215 29.0622 95.4269C28.7645 96.016 29.3598 96.3106 29.9551 96.6052C31.741 97.4889 33.8245 97.7834 35.908 97.7834C37.0986 97.7834 38.2892 98.078 39.4798 98.3726C40.0751 98.3726 40.3727 98.3726 40.6704 97.7834C40.968 96.6051 41.8609 95.7215 42.1586 94.5432C42.1586 93.3649 43.0515 92.7757 43.6468 91.892C44.2421 91.0083 44.8374 89.8301 45.7303 89.2409C47.8138 87.7681 50.4927 86.8844 52.8739 87.7681C54.3621 88.0626 56.148 88.9464 57.3385 90.1246C58.2315 91.0083 58.8268 92.1866 59.4221 93.3649C60.0173 94.2486 60.315 95.1323 60.9103 96.016C61.5056 96.6052 61.5056 97.1943 61.5056 98.078C61.2079 98.9617 61.8032 99.5509 62.1008 100.14C62.3985 100.729 62.6961 101.318 62.9938 101.907C63.2914 102.202 62.9938 102.497 62.6961 102.791C62.3985 103.086 61.8032 103.086 62.1008 103.969C62.1008 104.264 61.5056 104.264 60.9103 104.264C60.315 104.264 60.0173 104.559 59.7197 104.853C58.5291 106.621 57.0409 107.504 55.255 108.388C54.0644 108.683 53.1715 109.566 51.9809 110.155C49.0044 111.628 45.7303 112.512 42.7539 112.807C40.968 113.101 39.1821 113.101 37.3962 112.512C36.5033 112.217 35.6104 112.512 34.7174 112.512C32.3363 112.807 29.6575 112.512 27.574 111.628C24.8951 110.745 22.514 109.861 20.1328 108.388C17.454 106.621 15.6681 104.559 13.5846 102.202C11.7987 100.14 10.6081 98.078 9.41754 95.7215C8.22696 93.6595 7.63166 91.5975 7.03636 89.5355C5.84578 86.2952 5.54814 83.055 4.95285 79.8147C4.65521 78.3418 4.65522 76.869 4.35757 75.3961C4.05992 73.9233 4.05991 72.1558 4.05991 70.683C3.76226 69.2101 4.65521 68.3264 4.95285 67.1482C4.95285 66.8536 4.95287 66.8536 5.25052 67.1482C5.84581 67.4427 5.8458 66.8536 5.8458 66.559C5.8458 66.2645 5.84581 65.9699 5.25052 66.2644C5.25052 66.2644 5.2505 66.2644 4.95285 66.2644C4.65521 65.9699 5.54815 64.497 5.8458 64.497C6.44109 64.2025 6.73875 63.3187 6.73875 63.0242C6.4411 62.1405 7.03638 61.5513 7.33403 61.2568C7.92932 60.3731 8.22695 59.4893 8.52459 58.6056C9.11988 57.1328 10.3105 55.9545 11.2034 54.7762C11.7987 53.8925 12.9893 53.8925 13.2869 52.7142H13.5846C14.1799 53.3034 14.4775 52.7142 15.0728 52.4197C15.6681 51.8305 15.9657 51.2414 16.561 51.2414H16.8587C17.454 53.0088 18.6446 51.5359 19.8351 51.5359C21.621 51.5359 23.1093 51.2414 24.5975 52.7142C24.8951 53.3034 24.8951 53.8925 25.1928 54.1871C26.0857 55.9545 26.9786 57.4274 27.2763 59.4893C27.2763 59.7839 27.574 60.0785 27.574 60.373C28.4669 61.2568 28.4669 62.7296 29.0622 63.9079C29.6575 65.0862 30.2527 66.559 30.848 67.7373C31.1457 68.3264 31.4433 69.2102 31.4433 69.7993C31.4433 70.683 31.4434 71.2721 32.0386 71.8613V72.1558C31.1457 72.1558 31.4433 72.745 31.741 73.0396C32.0386 74.2178 31.1457 74.807 30.5504 75.6907C30.5504 75.6907 29.6575 75.6907 28.7645 75.3961Z" fill="currentColor"></path><path d="M92.7584 71.5667C92.4607 71.5667 92.1631 71.5667 91.8654 71.5667C91.2701 71.5667 90.3772 71.2721 89.7819 72.1558C88.5913 71.5667 87.6984 73.0396 86.2102 72.4504C85.6149 72.1559 85.0196 72.1558 84.4243 72.1558C83.829 72.1558 82.9361 72.1558 82.3408 71.5667C82.3408 71.5667 82.0431 71.2721 82.0431 71.5667C80.8525 72.1558 79.6619 71.5667 78.4714 70.9776C77.2808 70.683 76.3878 70.0939 75.4949 69.7993C74.3043 69.2102 72.8161 68.9156 71.6255 68.3264C71.3279 68.3264 71.0302 68.0319 70.4349 68.0319C68.6491 67.7373 66.8632 68.0319 65.375 69.2101C63.5891 70.683 61.8032 71.5667 59.4221 72.1558C58.2315 72.4504 57.0409 73.3341 55.5526 73.3341C53.7668 73.6287 51.9809 74.2178 50.195 74.2178C48.7068 73.9233 46.9209 72.1558 46.6233 70.683C46.6233 70.0938 46.6233 69.2101 47.8138 69.2101C48.4091 69.2101 49.0044 68.621 49.3021 68.3264C51.0879 66.2645 52.8739 64.2024 54.3621 61.8459C55.5527 60.0785 56.7432 58.0165 56.7432 55.6599C56.7432 53.5979 56.4456 51.5359 56.1479 49.474C55.8503 47.1174 55.255 44.7608 54.9574 42.4043C54.6597 40.6369 54.3621 38.5749 54.3621 36.8074C54.3621 35.6292 54.6597 34.4509 54.9574 32.978C55.255 31.2106 55.8503 29.7378 56.4456 27.9703C57.0409 26.4975 57.9338 25.0246 58.8268 23.5518C59.4221 22.3735 60.0173 20.9007 61.2079 19.7224C63.8867 16.4821 66.5655 13.831 70.1373 11.4744C72.2208 10.0016 74.602 8.82329 76.9831 7.93958C78.4714 7.35044 79.9596 6.7613 81.7455 6.46673H82.0431C83.829 5.58302 85.9125 6.17216 87.6984 6.46673C89.7819 6.7613 91.2702 7.64501 93.056 8.23415C94.2466 8.82329 95.7348 9.11786 96.9254 9.707C98.116 10.2961 99.3066 11.1799 100.497 12.0636C100.795 12.3581 101.39 12.6527 101.985 12.6527C104.367 13.831 105.855 15.5984 107.641 17.6604C108.236 18.2495 108.831 19.1332 109.427 19.7224C110.32 20.9007 111.212 22.0789 112.105 23.2572C112.998 24.4355 113.296 25.6138 113.891 26.7921C114.784 28.2649 115.082 30.0323 115.677 31.7998C115.975 33.2726 115.975 34.7455 116.272 35.9237C116.57 37.102 116.272 38.5749 116.868 39.7531C116.868 40.0477 116.868 40.0477 116.868 40.3423C116.57 41.226 116.57 42.4043 116.868 43.288C116.868 43.5826 117.165 43.8771 116.868 44.1717C116.57 45.0554 116.272 45.9391 116.868 47.1174C116.868 47.412 116.868 47.7065 116.57 48.0011C116.272 48.2957 115.975 48.8848 116.57 49.474C116.57 49.7685 116.868 49.7685 116.57 50.0631C115.677 50.6522 115.975 51.5359 115.975 52.4197V52.7142C115.082 53.5979 114.784 54.7762 115.082 55.9545C115.082 56.5436 114.189 56.5436 114.189 57.1328C113.891 58.6056 112.403 59.4893 112.105 61.2568C112.105 61.2568 112.105 61.5513 111.808 61.5513C110.022 62.1405 109.427 64.2025 107.938 65.0862C107.343 65.3807 107.045 65.9699 106.45 65.9699C106.152 65.9699 105.855 65.9699 105.855 66.2644C105.557 67.1481 104.962 67.1482 104.367 67.1482C103.771 67.1482 103.176 67.4427 102.581 68.0319C102.283 68.621 101.985 68.621 101.39 68.621C100.497 68.621 99.9019 68.9156 99.009 69.2101C97.5207 70.0938 95.7348 69.7993 94.2466 70.683C93.056 71.5667 92.7584 71.5667 92.7584 71.5667ZM79.0667 10.2961C77.5784 10.2961 76.3879 10.8853 75.1973 11.1799C73.1138 12.0636 71.3279 13.2418 69.542 14.4201C66.5655 16.4821 64.482 19.1332 62.6961 22.0789C61.8032 23.2572 61.2079 25.0246 60.6126 26.4975C60.315 27.3812 59.7197 28.2649 59.7197 29.7378C59.7197 31.2106 59.7197 32.6835 59.7197 34.1563C59.422 37.9857 60.6126 41.5206 60.9103 45.35V45.6445C60.6126 46.2337 61.5055 46.8228 61.2079 47.412C61.2079 48.0011 60.0173 48.8848 61.5056 49.474V49.7685C61.5056 52.1251 61.2079 54.7762 60.315 56.8382C59.7197 58.0165 58.8268 59.1948 57.9338 60.0785C57.6362 60.373 57.0409 60.6676 57.0409 60.9622C56.4456 62.1405 55.5527 63.0242 54.9574 63.9079C53.7668 65.3807 52.2786 67.1482 51.3856 68.9156C51.3856 69.2101 51.088 69.5047 51.3856 69.7993C51.6833 70.0939 51.9809 70.0939 52.2785 69.7993C53.1715 69.5047 54.0644 69.5047 55.255 68.9156C56.4456 68.3264 57.6362 68.0319 58.8268 67.4427C59.7197 66.8536 60.0173 65.3807 61.5056 65.9699C61.5056 65.9699 61.8032 65.9699 61.8032 65.6753C62.1009 64.7916 63.8867 65.3807 63.5891 63.9079C64.1844 63.9079 65.0773 63.3188 65.6726 63.6133C67.7561 63.9079 69.8396 64.497 71.9232 65.3807C73.709 65.9699 75.4949 66.8536 77.2808 67.4427C79.3643 68.0319 81.1502 68.3264 83.2337 68.0319C84.7219 67.7373 86.2102 67.7373 87.6984 67.7373C90.0796 67.7373 92.4608 66.8536 94.5443 65.9699C96.0325 65.3807 97.2231 64.7916 98.7113 64.497C99.0089 64.2024 99.9019 64.497 99.9019 63.9079C100.2 62.7296 100.497 62.1405 101.688 61.8459C101.688 61.8459 101.688 61.8459 101.688 61.5513C103.176 59.4893 105.259 57.7219 106.748 55.6599C108.534 53.3034 110.319 51.2414 110.617 48.2957C111.212 45.35 110.617 42.1097 110.319 39.164C110.022 36.8074 108.831 34.7455 108.236 32.6835C107.641 30.6215 107.045 28.2649 106.152 26.2029C104.962 24.1409 104.069 22.0789 102.581 20.3115C101.39 18.8387 99.6042 18.2495 98.116 17.0713C94.5443 13.831 90.3772 12.0636 85.9125 10.5907C83.2337 10.8853 81.4478 9.70699 79.0667 10.2961Z" fill="currentColor"></path><path d="M84.4243 55.0708C83.829 54.4817 83.829 53.5979 83.5313 52.7142C83.829 53.0088 84.1266 53.3034 84.4243 53.3034C84.7219 52.7142 84.4243 52.1251 84.4243 51.5359C84.1266 50.3577 84.1267 49.1794 84.1267 47.7065C84.1267 45.6446 83.829 43.5826 83.829 41.8151C83.829 40.9314 82.9361 40.9314 82.3408 40.6369C81.4478 40.0477 80.2572 40.0477 79.0667 39.7531C79.3643 39.4586 79.9596 39.7531 80.2573 39.4586C80.2573 39.164 79.6619 39.164 79.9596 38.8694C81.1502 39.164 82.3408 39.164 83.5313 38.2803C84.1266 37.9857 84.7219 38.2803 85.0196 37.9857C86.8054 37.6912 88.5913 37.6912 90.3772 37.6912C90.6749 37.6912 91.2701 37.6911 91.2701 38.2803C91.2701 38.8694 90.9725 39.164 90.3772 39.164C89.7819 39.164 89.4843 39.4586 89.1866 39.7531C88.5913 40.0477 88.2937 40.6368 88.889 41.226C89.4843 41.8151 89.4843 42.6988 89.4843 43.5826C89.4843 45.0554 90.0796 46.5283 89.4843 48.0011C89.4843 48.2957 89.4843 48.8848 89.4843 49.474C89.7819 50.3577 89.4843 51.2414 89.4843 52.1251C89.4843 53.0088 89.7819 53.5979 89.4843 54.4816C89.4843 54.7762 89.7819 54.7762 90.0796 54.7762C90.6749 54.7762 91.2701 54.7762 91.8654 55.0708C91.8654 55.0708 92.1631 54.7762 92.1631 55.0708C92.1631 55.3654 91.8654 55.3654 91.8654 55.3654C90.6749 56.2491 89.4843 56.5436 88.2937 56.8382C87.6984 57.1328 87.1031 56.8382 86.5078 57.4273C86.2102 57.4273 85.9125 57.7219 85.9125 57.4273C85.0196 56.5436 83.5314 56.5436 82.6384 55.6599C82.3408 55.3654 82.0431 55.3654 82.3408 55.0708C82.6384 54.7762 82.6384 55.0708 82.9361 55.0708C83.5313 55.0708 83.829 55.3654 84.4243 55.0708Z" fill="currentColor"></path><path d="M85.6149 22.6681C87.1031 22.6681 88.2937 24.1409 87.996 25.6138C87.996 25.9084 87.996 25.9084 87.996 26.2029C88.2937 27.3812 87.996 28.2649 86.8055 28.2649C85.9125 28.2649 85.3172 28.5595 84.7219 28.8541C84.1267 29.1486 82.6384 28.8541 82.3408 28.2649C81.7455 27.3812 81.7455 26.2029 80.8525 25.3192C80.8525 25.3192 80.8525 25.0246 80.8525 24.7301C81.1502 23.8464 82.0431 23.8464 82.6384 23.5518C83.2337 23.2572 84.4243 22.6681 85.6149 22.6681Z" fill="currentColor"></path></svg>