<svg height="40" width="40" viewBox="0 0 52 40" fill="none" xmlns="http://www.w3.org/2000/svg"><path d="M11.8671 36.9018V34.6815C11.8671 33.8276 11.3484 33.3152 10.4839 33.3152C10.0516 33.3152 9.53293 33.486 9.27358 33.913C9.01422 33.486 8.66841 33.3152 8.06325 33.3152C7.71744 33.3152 7.28518 33.4006 7.02582 33.8276V33.4006H6.24775V36.9018H7.02582V34.9377C7.02582 34.3399 7.37163 33.9984 7.89034 33.9984C8.40906 33.9984 8.66841 34.3399 8.66841 34.9377V36.9018H9.44648V34.9377C9.44648 34.3399 9.79229 33.9984 10.311 33.9984C10.8297 33.9984 11.0891 34.3399 11.0891 34.9377V36.9018H11.8671ZM23.4517 33.4006H22.1549V32.3759H21.3769V33.4006H20.6853V34.0838H21.3769V35.7063C21.3769 36.5602 21.7227 36.9872 22.5872 36.9872C22.933 36.9872 23.2788 36.9018 23.5382 36.731L23.2788 36.0478C23.0195 36.2186 22.7601 36.2186 22.5872 36.2186C22.2414 36.2186 22.0685 35.9624 22.0685 35.6209V34.0838H23.4517V33.4006ZM30.0221 33.3152C29.5898 33.3152 29.3305 33.486 29.0711 33.8276V33.4006H28.293V36.9018H29.0711V34.9377C29.0711 34.3399 29.3305 33.9984 29.8492 33.9984C30.0221 33.9984 30.195 33.9984 30.3679 34.0838L30.6272 33.4006C30.3679 33.3152 30.195 33.3152 30.0221 33.3152V33.3152ZM20.0801 33.6568C19.7343 33.4006 19.2156 33.3152 18.6104 33.3152C17.7459 33.3152 17.1407 33.7422 17.1407 34.4253C17.1407 35.0231 17.573 35.3647 18.351 35.4501L18.6969 35.5355C19.1291 35.6209 19.302 35.7063 19.302 35.877C19.302 36.1332 19.0427 36.304 18.524 36.304C18.0052 36.304 17.573 36.1332 17.3136 35.9624L16.9678 36.5602C17.4001 36.9018 17.9188 36.9872 18.524 36.9872C19.5614 36.9872 20.1665 36.4748 20.1665 35.877C20.1665 35.2793 19.7343 34.9377 18.9562 34.8523L18.6104 34.7669C18.2646 34.6815 18.0052 34.6815 18.0052 34.4253C18.0052 34.1692 18.2646 33.9984 18.6969 33.9984C19.1291 33.9984 19.5614 34.1692 19.8207 34.3399L20.0801 33.6568ZM40.7421 33.3152C40.3099 33.3152 40.0505 33.486 39.7912 33.8276V33.4006H39.0131V36.9018H39.7912V34.9377C39.7912 34.3399 40.0505 33.9984 40.5692 33.9984C40.7421 33.9984 40.915 33.9984 41.088 34.0838L41.3473 33.4006C41.088 33.3152 40.915 33.3152 40.7421 33.3152V33.3152ZM30.8001 35.1085C30.8001 36.1332 31.5782 36.9872 32.7021 36.9872C33.2208 36.9872 33.5666 36.9018 33.9989 36.5602L33.6531 35.9624C33.3937 36.1332 33.0479 36.304 32.7021 36.304C32.0969 36.304 31.6647 35.877 31.6647 35.1939C31.6647 34.5107 32.0969 34.0838 32.7021 34.0838C33.0479 34.0838 33.3073 34.1692 33.6531 34.4253L33.9989 33.8276C33.6531 33.486 33.2208 33.4006 32.7021 33.4006C31.5782 33.3152 30.8001 34.0838 30.8001 35.1085V35.1085ZM37.9757 35.1085V33.3152H37.2841V33.7422C37.0247 33.4006 36.6789 33.2298 36.1602 33.2298C35.1228 33.2298 34.3447 33.9984 34.3447 35.1085C34.3447 36.2186 35.1228 36.9872 36.1602 36.9872C36.6789 36.9872 37.0247 36.8164 37.2841 36.4748V36.9018H38.0621V35.1085H37.9757ZM35.1228 35.1085C35.1228 34.5107 35.555 33.9984 36.1602 33.9984C36.7653 33.9984 37.1976 34.5107 37.1976 35.1085C37.1976 35.7063 36.7653 36.2186 36.1602 36.2186C35.555 36.2186 35.1228 35.7063 35.1228 35.1085ZM25.8724 33.3152C24.835 33.3152 24.1433 34.0838 24.1433 35.1939C24.1433 36.304 24.9214 37.0726 25.9588 37.0726C26.4775 37.0726 26.9963 36.9018 27.4285 36.5602L27.0827 35.9624C26.8234 36.2186 26.3911 36.304 26.0453 36.304C25.5266 36.304 25.0943 36.0478 25.0079 35.4501H27.6014V35.1939C27.515 33.9984 26.8234 33.3152 25.8724 33.3152V33.3152ZM25.7859 33.9984C26.3046 33.9984 26.564 34.3399 26.6504 34.8523H24.835C24.9214 34.3399 25.2672 33.9984 25.7859 33.9984ZM45.1512 35.1085V31.9489H44.3731V33.7422C44.1138 33.4006 43.768 33.2298 43.2493 33.2298C42.2118 33.2298 41.4338 33.9984 41.4338 35.1085C41.4338 36.2186 42.2118 36.9872 43.2493 36.9872C43.768 36.9872 44.1138 36.8164 44.3731 36.4748V36.9018H45.1512V35.1085ZM42.2983 35.1085C42.2983 34.5107 42.7305 33.9984 43.3357 33.9984C43.9409 33.9984 44.3731 34.5107 44.3731 35.1085C44.3731 35.7063 43.9409 36.2186 43.3357 36.2186C42.7305 36.2186 42.2983 35.7063 42.2983 35.1085ZM16.2762 35.1085V33.3152H15.4981V33.7422C15.2388 33.4006 14.893 33.2298 14.3743 33.2298C13.3368 33.2298 12.5588 33.9984 12.5588 35.1085C12.5588 36.2186 13.3368 36.9872 14.3743 36.9872C14.893 36.9872 15.2388 36.8164 15.4981 36.4748V36.9018H16.2762V35.1085ZM13.3368 35.1085C13.3368 34.5107 13.7691 33.9984 14.3743 33.9984C14.9794 33.9984 15.4117 34.5107 15.4117 35.1085C15.4117 35.7063 14.9794 36.2186 14.3743 36.2186C13.7691 36.2186 13.3368 35.7063 13.3368 35.1085V35.1085ZM24.4891 26.9106C24.5756 26.996 24.6621 27.0814 24.835 27.1668C22.7601 28.5331 20.1665 29.387 17.4001 29.387C10.0516 29.387 4 23.4948 4 16.1508C4 8.80685 10.0516 3 17.4001 3C20.1665 3 22.6737 3.85395 24.835 5.22027C24.7485 5.30566 24.5756 5.39106 24.4891 5.47645C21.3769 8.20909 19.5614 12.0519 19.5614 16.2362C19.4749 20.2498 21.2904 24.1779 24.4891 26.9106V26.9106ZM33.9124 3C31.146 3 28.6388 3.85395 26.4775 5.22027C26.564 5.30566 26.7369 5.39106 26.8234 5.47645C29.9356 8.20909 31.7511 12.0519 31.7511 16.2362C31.7511 20.3352 29.9356 24.2633 26.8234 26.996C26.7369 27.0814 26.6504 27.1668 26.4775 27.2522C28.5524 28.6185 31.146 29.4724 33.9124 29.4724C41.2609 29.4724 47.3125 23.5802 47.3125 16.2362C47.226 8.89225 41.2609 3 33.9124 3ZM25.613 5.81803C25.4401 5.90343 25.2672 6.07422 25.1808 6.24501C22.3278 8.63607 20.5988 12.2227 20.5988 16.2362C20.5988 20.2498 22.4143 23.751 25.1808 26.2274C25.3537 26.3982 25.5266 26.4836 25.6995 26.6544C25.8724 26.4836 26.0453 26.3982 26.2182 26.2274C29.0711 23.8364 30.8001 20.2498 30.8001 16.2362C30.8001 12.2227 28.9847 8.72146 26.2182 6.24501C25.9588 6.07422 25.7859 5.90343 25.613 5.81803" fill="currentColor"></path></svg>