<svg height="24" viewBox="0 0 24 24" width="24" xmlns="http://www.w3.org/2000/svg"><path d="M8.79996 16.4488H18.1595L19.7714 17.7459V8.01951H20.6857C20.9282 8.01951 21.1607 8.11818 21.3322 8.29383C21.5036 8.46947 21.6 8.70769 21.6 8.95609V21.6L17.5268 18.3219H9.71425C9.47177 18.3219 9.23921 18.2233 9.06775 18.0476C8.89629 17.872 8.79996 17.6338 8.79996 17.3854V16.4488ZM6.47311 14.5756L2.39996 17.8537V3.33658C2.39996 3.08818 2.49629 2.84996 2.66775 2.67431C2.83921 2.49867 3.07177 2.39999 3.31425 2.39999H17.0285C17.271 2.39999 17.5036 2.49867 17.675 2.67431C17.8465 2.84996 17.9428 3.08818 17.9428 3.33658V14.5756H6.47311Z" fill="currentColor"></path></svg>