<svg width="70" height="70" viewBox="0 0 120 120" xmlns="http://www.w3.org/2000/svg"><path d="M25.4142 6.37859C26.0125 6.98184 26.6108 6.68022 26.9099 6.37859C27.2091 5.77534 27.8074 5.77534 28.4056 5.17209C28.7048 4.87046 29.6022 4.56884 30.2005 5.47371C30.4997 6.07697 31.0979 6.68022 31.6962 7.28347C32.5937 8.18835 33.4911 9.09323 34.3886 9.99811C34.9868 10.6014 35.286 11.2046 36.1834 11.2046C36.7817 11.2046 37.0809 11.8079 37.0809 12.1095C37.0809 12.4111 37.38 12.7127 37.6792 13.0144C38.8757 14.2209 39.474 14.2209 40.3715 12.7127C41.2689 10.903 42.4655 9.39486 43.3629 7.5851C43.6621 6.98185 43.6621 6.07697 44.2604 5.47371C44.5595 4.87046 45.1578 5.17209 45.457 4.56884C45.7561 3.66396 46.9527 3.96559 47.551 3.06071C47.8501 2.75908 49.9441 3.66396 49.9441 3.96558C50.5424 6.07697 52.0382 7.58509 52.3373 9.39485C52.6364 10.2997 53.2347 11.2046 53.833 11.8079C54.1322 12.1095 54.1322 12.7127 54.1322 13.316C54.1322 13.9192 54.7305 14.5225 55.0296 14.8241C55.6279 14.8241 55.6279 14.2209 55.9271 13.9192C57.1236 13.0144 57.4228 11.2046 59.2177 11.2046C58.9185 10.2997 59.8159 10.2997 60.1151 9.99811C61.0125 9.09323 61.6108 8.18835 62.5083 7.5851C64.004 6.3786 65.4997 4.56883 67.8929 5.17209C67.2946 5.17209 67.8929 6.3786 66.9954 6.07697C66.6963 6.07697 66.6963 6.37859 66.6963 6.68022C66.9954 6.98184 66.9954 6.68022 67.2946 6.68022C67.5937 6.37859 68.192 6.37859 68.4912 6.37859C69.3886 6.37859 69.6878 6.3786 69.9869 7.5851C69.9869 9.39486 69.9869 11.2046 70.5852 12.7127C70.8843 13.9193 70.8843 15.1258 70.8843 16.0306C70.8843 16.6339 70.8843 16.9355 71.1835 17.5388C71.4826 17.8404 71.4826 18.142 71.1835 18.4436C70.5852 19.3485 71.1835 20.2534 71.4826 21.1583C71.7818 21.7615 71.4826 22.6664 70.8843 22.968C70.5852 23.2697 70.5852 23.5713 70.5852 23.8729C70.5852 24.1745 70.8843 24.1745 71.1835 24.1745C74.1749 22.968 77.1664 23.5713 79.8587 23.8729C81.6536 23.8729 83.4484 23.8729 85.5425 24.1745C86.1408 24.1745 86.4399 24.4762 86.4399 25.0794C86.4399 25.6827 87.0382 25.9843 87.3374 26.2859C88.5339 27.4924 88.5339 28.0957 87.3374 29.3022C86.4399 29.9054 86.4399 30.8103 86.1408 31.7152C85.8416 32.3184 85.2433 32.6201 84.9442 33.2233C84.0468 34.7315 83.4484 36.2396 82.551 37.7477C82.2519 38.351 82.551 38.6526 82.8502 38.9542C84.3459 39.8591 86.1408 40.4624 87.3374 41.3672C88.8331 42.2721 90.0297 42.8754 91.8245 43.177C92.1237 43.177 92.1237 43.7802 92.4228 44.0819C92.4228 44.0819 92.4228 44.9867 93.0211 44.3835C93.0211 44.0819 93.3203 44.3835 93.3203 44.6851C93.0211 45.2884 93.3203 45.59 94.2177 45.8916C94.816 45.8916 95.7134 45.8916 94.816 46.7965C94.5169 47.0981 95.1151 47.0981 95.1151 47.7014C92.722 47.3998 92.4228 49.2095 91.5254 50.7176C90.9271 51.3209 90.628 52.2258 89.7305 52.829C88.5339 53.4323 87.6365 54.3372 86.7391 54.6388C85.8416 55.242 85.2433 56.4485 84.0467 56.4485C83.4484 56.4485 83.7476 57.0518 83.7476 57.3534C84.645 57.9567 84.9442 58.8615 85.5425 59.1632C86.7391 60.0681 87.6365 60.9729 88.8331 61.2746C89.7305 61.5762 90.0297 62.4811 90.628 63.0843C91.2262 63.6876 92.1237 64.5924 92.722 65.4973C93.3203 66.7038 93.3203 67.9103 93.0211 69.4185C92.722 70.3233 92.1237 69.4185 91.5254 69.4185C91.5254 69.4185 91.2262 69.1168 90.9271 69.1168C90.628 69.1168 90.9271 69.4185 90.9271 69.7201C90.3288 70.625 89.7305 70.9266 88.5339 70.625C88.5339 71.2282 88.8331 71.2282 89.1322 71.5299C91.2262 72.7364 93.3203 74.2445 94.816 75.7526C96.91 77.5624 98.7049 79.9754 100.5 81.7851C100.799 82.0868 100.799 82.9916 101.696 82.0868C101.995 82.69 102.893 82.9916 102.893 83.5949C102.893 83.8965 103.192 84.1981 103.192 84.1981C106.184 85.7063 108.577 87.8177 111.269 89.3258C112.166 89.929 113.064 90.5323 113.662 91.4372C113.662 91.7388 113.961 91.7388 113.961 92.0404C113.662 93.2469 114.859 93.2469 115.457 93.5486C116.055 93.5486 116.654 93.8502 116.953 94.4534C117.252 94.7551 116.055 96.2632 115.457 96.2632C114.26 96.5648 113.064 97.1681 111.867 96.5648C111.568 96.5648 110.671 96.8664 110.372 97.1681C108.577 98.3746 106.184 97.7713 104.389 98.073C102.893 98.3746 101.696 98.6762 100.201 98.3746C98.4057 98.073 96.91 98.073 95.1151 98.3746C95.4143 100.486 95.7134 102.296 95.7134 104.407C95.7134 106.217 96.3117 107.725 96.3117 109.233C96.3117 110.138 96.6109 111.345 96.3117 112.249C96.0126 113.154 96.0126 114.059 95.7134 114.964C95.7134 115.567 95.4143 116.171 95.4143 116.774C95.4143 117.075 94.2177 117.075 93.9186 116.774C92.4228 114.964 90.9271 113.154 89.7305 111.344C87.9356 108.63 86.4399 105.614 84.0467 103.201C82.551 101.692 81.6536 100.184 80.1579 98.3746C79.5596 97.4697 78.9613 96.8664 78.363 96.2632C76.5681 94.4534 75.3715 92.342 74.1749 90.2307C73.8758 89.6274 73.2775 89.3258 72.6792 89.0242C72.0809 89.3258 72.9784 89.6274 72.3801 89.929C72.0809 89.929 71.4826 89.929 71.1835 89.6274C70.5852 89.0242 69.6877 88.4209 69.0895 87.516C69.0895 87.516 68.7903 87.2144 68.4912 87.516V87.8177C68.4912 88.1193 69.0895 88.4209 68.7903 88.4209C68.4912 88.7225 67.8929 88.4209 67.5937 88.1193C66.6963 87.516 65.4997 86.6112 64.6023 85.7063C63.4057 84.4998 61.91 83.2933 60.4142 82.3884C59.2177 81.4835 58.6194 80.277 57.7219 79.3721C57.4228 79.0705 57.4228 79.0705 57.1236 78.7689C56.2262 77.864 55.3288 78.1656 55.0296 79.3721C54.7305 80.5786 54.4313 82.0868 53.2347 82.69C52.9356 82.9916 53.2347 82.9916 53.2347 83.2933C53.5339 83.8965 53.5339 84.4998 52.9356 85.103C52.6365 85.4047 52.3373 85.4047 52.6364 86.0079C52.6364 86.3095 52.3373 87.2144 52.0382 87.2144C51.1407 87.8177 52.0382 89.6274 50.2433 89.3258C50.2433 89.3258 50.2433 89.3258 50.2433 89.6274C50.8416 91.4372 48.4484 91.7388 48.7476 93.2469C47.8501 93.8502 47.2518 94.7551 46.3544 95.0567C46.0552 95.0567 45.7561 95.0567 45.7561 94.7551C45.7561 94.4534 45.7561 94.4534 46.0552 94.4534C46.9527 94.7551 46.3544 94.1518 46.3544 93.8502C45.457 93.5486 45.7561 92.342 45.1578 91.7388C44.8587 91.4372 44.2604 90.5323 44.2604 89.6274C43.9612 89.0242 43.3629 88.7225 43.3629 87.8177C43.3629 87.516 43.0638 86.3095 42.7646 85.7063C42.1664 84.8014 42.1664 83.8965 41.5681 82.9916C40.6706 81.7851 40.3715 80.5786 39.7732 79.3721C39.474 79.0705 39.7732 78.4673 38.8757 78.4673C38.2775 78.7689 38.8757 78.1656 38.8757 77.864C38.5766 77.5624 38.5766 77.2607 38.2775 77.2607C37.6792 77.2607 38.2775 77.5624 38.2775 77.864C38.2775 78.4672 37.9783 78.4672 37.6792 78.7689C37.6792 78.7689 37.38 78.7689 37.38 79.0705C37.38 80.5786 35.8843 80.5786 35.286 81.1819C34.6877 82.0868 33.7903 82.69 32.8928 83.2933C31.9954 83.8965 30.7988 84.1982 29.6022 84.4998C29.0039 84.8014 28.7048 85.103 28.4056 85.4046C28.1065 85.7063 28.1065 86.0079 27.8074 85.7063C27.5082 85.7063 27.2091 85.7063 27.5082 86.3095C27.5082 86.6112 27.5082 86.9128 27.2091 86.9128C26.0125 87.2144 25.115 88.1193 23.9185 87.516C23.3202 87.2144 22.7219 87.8177 21.8244 87.516C21.5253 87.516 21.2261 88.1193 21.2261 87.2144C21.8244 87.2144 21.2262 86.6112 21.5253 86.6112C22.1236 86.3095 21.8244 86.0079 21.8244 85.7063C20.6279 82.0868 20.6279 79.6738 20.6279 76.9591C20.6279 74.2445 20.927 71.8315 20.6279 69.1168C20.6279 68.212 20.0296 67.9103 19.1321 67.9103C17.0381 67.9103 15.2432 67.9103 13.1492 67.9103C11.6535 67.9103 9.85862 68.212 8.36289 68.8152C8.06374 69.1168 7.46544 69.1168 7.46544 68.5136C7.46544 67.9103 7.1663 67.3071 7.46544 67.0055C8.06373 66.7038 8.06374 66.4022 8.36289 65.799C8.96118 64.5924 9.85861 63.9892 10.1578 62.7827C10.756 60.0681 12.2518 57.9567 13.4484 55.5437C14.0466 54.3372 14.9441 53.4323 16.1407 52.829C14.9441 51.9241 13.7475 51.3209 12.8501 50.7176C11.0552 49.5111 8.96117 48.3046 7.1663 47.3998C6.86715 47.0981 6.26886 46.7965 5.67057 46.7965C5.37143 46.7965 4.77313 46.4949 4.47398 46.1932C3.57655 45.59 4.17484 45.2884 4.47398 45.2884C5.37142 45.2884 5.96971 44.3835 6.26885 43.7802C6.86715 42.8754 7.7646 42.2721 8.36289 41.3672C9.55947 40.1607 10.4569 38.9542 11.9526 38.0493C12.8501 37.4461 14.0466 37.1445 14.9441 36.2396C15.5424 35.6363 16.4398 35.3347 17.3373 35.0331C17.9356 34.7315 17.9355 34.4298 17.6364 34.1282C14.9441 31.4136 13.4484 27.7941 11.9526 24.1745C11.9526 23.8729 11.6535 23.5713 11.3543 23.5713C10.1578 22.968 10.4569 22.0632 11.0552 21.4599C11.3543 21.1583 11.3543 20.8566 11.3543 20.555C11.9526 20.555 12.5509 21.4599 12.5509 21.1583C12.8501 20.555 13.4484 19.9518 12.8501 19.0469C14.6449 19.3485 16.4398 19.6501 18.2347 19.9518C20.0296 19.9518 22.1236 19.9518 23.9185 20.2534C24.2176 20.2534 24.8159 20.555 24.5168 19.6501C24.2176 18.7453 24.5167 17.5388 23.9185 16.3323C23.6193 16.0306 23.3202 15.4274 24.2176 15.1258C24.5167 15.1258 24.5168 14.5225 24.5168 14.2209C24.5168 12.4111 24.8159 10.6014 24.8159 8.48998C24.8159 8.48998 25.4142 7.5851 25.4142 6.37859ZM23.021 51.0193C23.021 52.829 23.3202 54.6388 23.9185 56.4485C24.5167 58.2583 25.115 60.0681 26.3116 61.8778C26.9099 62.7827 27.5082 63.6876 28.1065 64.2908C28.4056 64.5924 28.1065 65.4973 29.0039 65.799C29.6022 65.799 29.6022 66.1006 29.9014 66.4022C31.6962 68.212 33.7903 69.4185 35.5851 70.9266C37.38 72.1331 39.1749 72.1331 40.9698 72.1331C42.4655 72.1331 43.9612 72.1331 45.457 71.8315C46.0553 71.8315 46.9527 72.1331 47.551 71.8315C49.9441 71.5298 52.0382 70.9266 54.4313 70.625C56.2262 70.3233 57.7219 69.7201 59.5168 69.4185C61.91 68.8152 63.7048 67.3071 65.7989 66.1006C66.3971 65.7989 66.9954 65.1957 67.5937 64.8941C68.7903 64.2908 69.3886 63.0843 69.9869 61.8778C70.5852 60.9729 70.8843 59.7664 71.4826 58.8615C72.3801 57.0518 72.9784 55.242 72.9784 53.4323C73.2775 49.8128 72.3801 46.4949 70.5852 43.177C70.286 42.8754 70.286 42.5737 70.286 41.9705C70.286 40.764 69.9869 39.2558 69.3886 38.0493C68.7903 36.5412 68.192 35.0331 67.5937 33.5249C66.3971 31.1119 65.2006 28.3973 63.1065 26.5875C62.2091 25.6827 61.0125 25.381 60.1151 24.4762C57.7219 21.7615 55.0296 20.8566 51.739 20.555C48.7476 20.555 45.7561 21.1583 42.7646 21.4599H42.4655C42.4655 22.6664 41.8672 22.0632 41.2689 22.0632C40.9698 22.0632 40.6706 22.0632 40.6706 22.0632C39.474 22.968 38.2775 23.8729 37.0809 24.7778C36.1834 25.0794 35.5852 26.2859 34.9869 26.2859C33.4911 26.2859 33.4911 28.3973 31.6962 28.0957C30.7988 29.3022 29.9014 30.5087 28.7048 31.7152C28.1065 32.3184 27.5082 32.9217 27.2091 33.8266C26.9099 34.7315 26.9099 35.938 26.0125 36.5412C25.7133 36.8428 26.0125 37.1445 25.4142 37.1445C25.7133 38.6526 23.9185 39.5575 23.9185 41.0656C23.9185 41.6689 23.6193 42.5737 23.3202 43.177C23.021 46.1932 22.7219 48.6063 23.021 51.0193ZM85.8416 25.6827C84.9442 25.381 84.0468 25.9843 83.1493 25.9843C80.7561 26.2859 78.0638 26.2859 75.6707 25.9843C74.1749 25.6827 72.6792 25.0794 70.8843 25.0794C70.2861 25.0794 69.6877 25.381 69.0895 24.4762C69.0895 24.1745 68.7903 24.1745 68.7903 23.8729C68.7903 23.5713 69.0895 23.5713 69.3886 23.8729C69.9869 23.8729 70.2861 23.8729 70.8843 23.5713C69.6878 23.5713 69.9869 22.3648 69.3886 22.0632C68.4912 21.4599 68.192 20.8567 67.8929 19.6501C67.5937 18.142 67.2946 16.9355 67.2946 15.4274C66.9954 13.0144 66.3972 10.6014 65.2006 8.48998C64.9014 8.18835 64.9014 7.88672 64.6023 7.88672C64.3031 7.88672 64.3031 8.18835 64.004 8.48998C64.004 8.7916 63.7048 9.09323 63.7048 9.09323C63.1066 9.39486 62.2091 9.69648 61.91 10.2997C61.3117 11.5062 59.5168 11.5062 59.2177 13.316C57.4228 13.9192 57.4228 16.6339 55.0296 16.3323C54.7305 16.3323 54.7305 16.6339 54.7305 16.6339C54.1322 16.9355 52.3373 16.6339 52.0382 16.0306C51.4399 13.9192 50.2433 11.8079 49.0467 9.99811C48.1493 8.48998 47.2518 7.28347 46.3544 6.07697C46.0552 5.77534 45.7561 5.77534 45.457 6.37859C45.1578 7.28347 44.8587 8.18835 44.2604 8.7916C43.9612 9.09323 43.3629 9.99811 43.6621 10.6014C43.9612 11.5062 43.3629 11.8079 43.0638 12.1095C42.4655 13.0144 41.8672 13.6176 41.5681 14.8241C41.5681 16.0306 40.0723 16.9355 39.1749 16.3323C38.5766 16.0306 37.9783 16.0306 37.38 15.729C37.0809 15.729 36.4826 16.0306 36.4826 15.729C35.286 14.2209 33.7903 13.0144 32.2945 11.8079C31.098 10.903 30.2005 9.69648 29.0039 9.09323C28.7048 8.7916 28.1065 8.7916 28.1065 9.39485C28.1065 10.903 28.1065 12.4111 28.4056 13.6176C28.4056 15.4274 28.7048 16.9355 29.0039 18.7453C29.0039 19.3485 29.3031 19.6501 29.6022 19.9518C30.4997 20.555 30.2005 20.8567 30.4997 21.7615C30.7988 22.6664 29.6022 22.0632 29.6022 22.6664C29.6022 23.2697 29.9014 23.8729 29.3031 24.1745C29.0039 24.4762 28.7048 24.1745 28.4056 24.4762C27.5082 24.4762 26.6108 24.7778 25.7133 24.4762C25.115 24.1745 24.2176 24.7778 23.6193 24.7778C21.5253 24.1745 19.4313 24.1745 17.3373 24.1745C16.4398 24.1745 15.5424 24.4762 14.6449 23.8729C14.0467 23.5713 13.7475 23.8729 14.0467 24.4762C14.3458 25.6827 15.2432 26.5875 16.1407 27.4924C17.3373 29.0006 18.2347 30.5087 19.4313 32.0168C19.7304 32.3184 20.0296 32.6201 19.7304 32.9217C19.4313 34.1282 20.3287 34.7315 20.6279 35.0331C22.1236 35.938 21.2261 36.2396 20.6279 36.8428C20.3287 37.1445 19.7304 37.4461 19.4313 37.7477C18.2347 38.6526 17.3373 39.8591 16.1407 40.1607C14.9441 40.764 14.3458 41.6689 13.4484 42.2721C11.6535 43.177 10.756 44.9867 8.66203 45.8916C9.85861 46.7965 10.756 47.0981 11.9526 47.7014C14.0466 48.6063 16.4398 49.8128 18.5338 51.0193C18.833 51.3209 19.4313 51.6225 19.7304 51.6225C20.3287 51.3209 19.7304 50.7176 20.0296 50.416C20.0296 50.1144 20.0296 49.8128 20.0296 49.8128C20.3287 47.0981 20.927 44.6851 21.5253 41.9705C21.5253 40.764 22.1236 39.8591 22.1236 38.6526C22.4227 37.7477 22.7219 36.8428 23.021 35.938C23.3202 34.7314 24.2176 33.8266 24.5168 32.6201C24.8159 31.4136 26.0125 30.2071 26.6108 29.3022C27.8074 27.4924 29.3031 25.9843 30.7988 24.4762C32.8928 22.6664 35.5852 21.4599 37.9783 19.9518C38.8758 19.3485 40.0723 19.3485 41.2689 19.0469C43.6621 18.4436 46.0552 18.4436 48.1493 18.142C49.3458 17.8404 50.8416 17.8404 51.739 18.142C52.6365 18.4436 53.833 18.7453 54.7305 18.7453C57.1236 19.0469 59.5168 19.9518 61.6108 20.8566C62.8074 21.4599 63.7048 22.3648 64.6023 22.968C66.9954 23.8729 68.192 25.9843 69.9869 27.4924C70.5852 28.0957 71.1835 28.6989 71.4826 29.0006C72.9784 31.7152 74.1749 34.4298 75.6707 37.4461C75.9698 38.0493 76.5681 38.9542 76.5681 39.8591C76.5681 41.9705 77.4655 44.0819 77.7647 46.1932C77.7647 47.0981 78.363 48.003 77.4655 48.9079C76.8672 49.5111 76.8673 50.1144 77.1664 50.7176C77.1664 51.0193 77.4655 51.3209 77.4655 51.9241C77.4655 53.7339 77.4655 53.7339 79.2604 53.7339C80.457 53.7339 81.3544 53.4323 82.2519 52.5274C82.551 52.2258 82.2519 51.6225 82.8502 51.6225C84.0468 51.6225 84.645 51.0193 85.5425 50.416C86.1408 49.8128 86.7391 49.5111 87.3374 49.2095C87.9357 48.9079 88.2348 47.7014 89.1322 48.003L89.4314 47.7014C89.7305 46.4949 89.7305 46.4949 90.628 46.7965C91.2262 46.7965 91.5254 46.4949 91.5254 46.1932C91.5254 45.59 91.2262 45.8916 90.9271 45.8916C90.0297 45.59 89.1322 45.8916 88.2348 45.59C86.1408 44.9867 83.7476 44.0819 81.6536 43.177C81.0553 42.8754 80.1579 42.5737 79.8587 42.2721C79.5596 41.3672 78.6621 40.4623 78.0638 39.5575C78.6621 39.5575 78.6621 40.1607 79.2604 40.1607C79.2604 39.5575 79.5596 39.2558 78.9613 38.9542C78.6621 38.6526 78.6621 38.6526 78.9613 38.351C79.5596 38.0493 79.8587 37.4461 78.9613 37.1445C78.363 37.1445 78.6621 36.5412 78.6621 36.5412C78.6621 36.2396 78.9613 36.2396 79.2604 36.5412C79.5596 36.8428 79.5596 36.8428 79.8587 36.5412C80.457 35.938 81.0553 35.6363 81.6536 34.7315C83.4485 30.8103 85.2433 28.3973 85.8416 25.6827ZM109.474 91.7388C109.474 91.4372 109.474 91.4372 109.474 91.7388C109.175 91.1355 109.175 90.8339 108.577 90.5323C106.782 89.3258 104.987 88.1193 103.192 86.6112C100.5 84.1982 97.8075 82.0868 95.1151 79.6738C93.3203 77.864 91.2262 75.7526 89.1322 74.2445C87.6365 73.038 86.4399 71.8315 85.2433 70.3233C84.645 69.4185 83.7476 69.1168 83.1493 69.4185C81.6536 69.7201 80.457 70.0217 78.6621 70.0217C77.1664 69.7201 75.6707 70.0217 74.1749 69.4185C73.5767 69.1168 73.2775 69.7201 73.5766 70.0217C74.4741 71.2282 73.8758 72.7364 74.1749 73.9429C74.4741 76.0542 74.1749 78.4673 75.6707 80.5786C75.6707 80.5786 75.9698 80.8803 75.6707 80.8803C74.7732 81.7851 75.0724 83.2933 74.7732 84.4998C74.7732 85.103 74.7732 85.4046 75.3715 85.7063C76.5681 86.9128 78.0638 88.1193 78.9613 89.6274C80.457 91.7388 82.551 93.5486 84.0467 95.6599C85.2433 97.1681 86.7391 98.3746 87.9356 100.184C88.8331 101.692 90.0297 103.201 90.9271 104.407C91.2262 104.709 90.9271 105.614 91.5254 105.614C92.4228 105.915 92.722 106.518 93.0211 107.423C93.3203 108.027 93.9185 108.328 94.5168 108.63C94.5168 108.027 94.5168 107.725 94.5168 107.423C93.9185 105.614 93.9186 103.804 93.9186 102.296C93.9186 100.184 93.3203 98.073 93.3203 95.9616C93.3203 95.6599 93.3203 95.6599 93.0211 95.3583C92.1237 95.0567 93.0211 93.8502 91.8245 93.5486C91.8245 93.5486 91.8245 93.2469 92.1237 93.2469C92.4228 93.2469 92.4228 92.9453 92.4228 92.6437C92.4228 92.3421 91.8245 92.6437 91.8245 92.0404C92.4228 92.0404 92.722 92.3421 93.3203 92.6437C94.2177 93.5486 95.4143 93.5486 96.6109 92.9453C98.7049 91.7388 101.098 92.0404 103.192 91.7388C105.286 91.4372 107.38 91.4372 109.474 91.7388ZM36.4826 75.1494C34.9869 74.2445 33.4911 73.6412 32.2945 72.7364C29.6022 70.9266 27.5082 68.8152 25.7133 66.4022C24.2176 64.8941 23.3202 63.0843 22.1236 61.2746C21.5253 60.0681 20.6279 58.5599 20.6279 57.3534C20.3287 56.1469 19.7304 54.9404 20.0296 53.7339C20.0296 53.4323 20.0296 53.4323 19.7304 53.4323H19.4313C19.4313 54.3372 18.2347 54.9404 18.5338 56.1469C18.5338 56.4485 18.2347 56.7502 18.2347 56.7502C17.6364 56.7502 17.6364 57.3534 17.6364 57.655C17.6364 57.9567 17.6364 57.9567 17.3373 58.2583C16.739 59.1632 16.1407 60.0681 15.8415 60.6713C14.9441 61.8778 14.6449 63.0843 13.7475 63.9892C13.4484 64.2908 13.4484 64.5924 13.4484 64.8941C13.4484 65.1957 13.7475 65.1957 14.0467 65.1957C16.1407 65.1957 18.5338 65.1957 20.6279 65.1957C21.8244 65.1957 23.3202 65.4973 24.5168 66.1006C24.8159 66.4022 25.115 66.4022 25.115 67.0055C25.115 67.6087 24.8159 67.3071 24.2176 67.3071C23.3202 67.3071 23.6193 67.9103 23.6193 68.212C23.6193 68.8152 24.2176 69.4185 24.2176 70.3233C23.9185 71.5298 23.6193 72.7364 23.6193 74.2445C23.6193 74.8477 23.6193 75.7526 23.6193 76.3559C23.6193 77.5624 23.3202 78.4672 23.6193 79.6738C23.9185 80.8803 23.9185 82.0868 23.6193 83.2933C23.6193 83.5949 23.6193 83.8965 23.9185 84.1981C24.2176 84.4998 24.5168 84.1981 24.5168 84.1981C24.8159 83.8965 25.4142 83.5949 25.7133 83.2933C27.2091 81.7851 28.7048 80.8803 30.4997 79.6738C31.6963 78.7689 33.4911 78.1656 34.6877 76.9591C34.6877 76.3559 35.5852 75.7526 36.4826 75.1494ZM72.6792 78.4673C72.3801 75.451 72.0809 72.7364 71.7818 69.7201C71.7818 69.1168 71.7818 68.212 71.1835 67.6087C70.8843 67.3071 70.5852 67.0054 70.286 67.6087C69.6878 68.5136 69.0895 69.1168 68.192 69.4185C67.2946 69.7201 66.3972 70.625 65.2006 70.9266C64.004 71.5298 63.1065 72.4347 61.6108 72.4347C61.3117 72.4347 61.0125 72.4347 61.0125 72.7364C60.7134 73.3396 60.1151 73.6412 59.5168 73.9429C59.2177 74.2445 59.2177 74.2445 59.5168 74.5461C61.3117 76.6575 64.004 77.864 66.3972 79.3721C67.5937 80.277 69.0895 80.8803 69.6878 82.0868C70.286 82.9916 71.1835 82.9916 72.0809 83.2933C72.3801 83.2933 72.3801 83.2933 72.3801 82.9916C72.3801 82.0868 72.6792 80.8803 72.0809 79.9754C72.6792 79.3721 72.3801 79.0705 72.6792 78.4673ZM83.1493 65.4973C84.9442 65.799 86.7391 64.8941 88.5339 64.8941C89.1322 64.8941 88.8331 64.2908 88.8331 63.9892C87.0382 62.7827 85.5425 61.2746 84.0467 59.7664C83.4484 59.1632 82.8502 58.2583 81.9527 57.9567C81.6536 57.655 81.0553 58.2583 80.7561 57.3534C80.7561 56.7502 80.1578 56.7502 79.5596 56.7502C78.9613 56.7502 78.6621 56.7502 78.363 56.1469C78.0638 55.5437 77.7647 55.8453 77.1664 55.5437C77.1664 56.4485 75.9698 56.7502 76.269 57.3534C76.8672 58.8615 75.6707 59.4648 75.0724 60.3697C74.7732 60.9729 74.7732 61.8778 74.1749 62.4811C73.5767 63.3859 74.4741 63.3859 75.3715 63.6876C76.5681 63.9892 77.4655 65.4973 78.9613 64.8941H79.2604C80.457 65.4973 81.6536 65.4973 83.1493 65.4973ZM46.3544 90.2307C46.6535 90.2307 47.551 90.5323 47.2518 89.929C46.9527 89.0242 47.551 88.4209 47.8501 87.8177C47.8501 87.516 47.8501 86.9128 48.1493 86.3095C48.7475 85.4046 48.7476 84.1981 49.3458 83.2933C50.5424 81.4835 51.1407 79.0705 52.3373 76.9591C52.6364 76.6575 52.9356 76.3559 52.9356 75.7526C52.9356 75.451 52.9356 74.8477 52.3373 75.1494C51.739 75.451 50.8416 75.1494 50.2433 75.1494C48.1493 75.1494 46.0553 75.451 43.9612 75.451C43.3629 75.451 42.7646 75.1494 42.7646 76.0542C42.7646 76.6575 42.4655 77.2607 42.4655 77.864C43.3629 79.6738 44.2604 81.4835 45.1578 82.9916C45.4569 83.5949 46.0552 84.4998 46.0552 85.103C46.0552 86.3095 47.2518 87.2144 46.3544 88.4209V89.0242C47.551 89.3258 46.3544 89.6274 46.3544 90.2307Z" fill="currentColor"></path><path d="M47.2518 53.4323C47.551 51.9241 48.1493 50.416 49.0467 49.2095C50.2433 47.3998 50.8416 45.2884 52.0382 43.4786C52.9356 41.6688 53.5339 39.8591 54.4313 38.351C55.0296 37.4461 55.0296 35.938 56.2262 35.3347C55.9271 34.4298 56.8245 34.4298 57.1236 34.1282C57.7219 32.3184 59.5168 33.2233 60.7134 32.3184C60.7134 32.3184 61.3117 32.3184 61.3117 32.6201C61.3117 33.2233 61.0125 33.5249 61.0125 34.1282C60.7134 35.0331 59.5168 35.3347 59.816 36.5412C59.816 37.1445 59.2177 36.8428 59.2177 37.1445C58.6194 38.9542 57.4228 40.1607 57.1236 41.9705C57.1236 42.2721 56.8245 42.5737 56.5254 42.8754C55.0296 44.6851 54.7305 46.7965 53.5339 48.6063C52.6365 50.1144 52.3373 51.9241 50.8416 53.1306C51.1407 54.3372 49.645 54.0355 49.645 54.9404C49.645 56.1469 48.4484 56.4485 48.1493 57.0518C47.8501 57.3534 48.1493 57.9567 47.551 58.2583C46.3544 58.5599 45.457 58.5599 44.5595 57.655C43.9612 57.3534 43.6621 56.7502 42.7647 57.0518C42.1664 57.0518 41.5681 56.4485 41.8672 55.8453C42.4655 54.9404 41.5681 54.3372 41.2689 54.0355C40.0723 52.829 39.1749 51.6225 38.2775 50.1144C37.9783 49.5111 37.6792 49.2095 37.9783 48.6063C37.9783 48.3046 38.8758 48.3046 39.4741 48.6063C40.9698 49.5111 42.4655 50.1144 43.9612 51.0193C44.8587 51.6225 45.7561 52.2258 46.3544 53.1306C46.3544 53.1306 46.6535 53.4323 47.2518 53.4323Z" fill="currentColor"></path></svg>