<svg height="70" width="70" viewBox="0 0 120 120" xmlns="http://www.w3.org/2000/svg"><path fill="currentColor" d="M46.861 99.029l-1.3-3.89c-.163-.487-.326-1.136-.326-1.622 0-1.459-.325-2.756-.65-4.053v-.324c.162-.324 0-.324-.326-.162s-.65.162-1.139.162c-.325 0-.325.324-.65.324-.488 0-.813.325-1.301-.162h-.326c-.976 0-1.789-.324-2.44-.81-.325-.163-.65-.163-.975-.325s-.163.325-.326.325c-.488-.163-.65.486-1.138.324-.325-.162-.813 0-1.139-.162-.488-.162-.813-.162-1.3-.325-.651 0-1.302-.324-2.115-.486-.163 0-.326-.162-.488-.162-.65-.486-1.464-.648-2.277-.973s-1.627-.81-2.277-1.459c-.651-.486-1.302-.972-1.79-1.62-.488-.487-.813-1.136-1.138-1.784l-1.464-2.432c-.488-.648-.65-1.296-.65-2.107 0-.973-.163-1.945-.326-2.756v-3.242l.488-3.404c.163-.649.325-1.46.813-2.108s.488-1.297.814-1.945c.487-.973 1.138-1.783 1.463-2.918.163-.649.488-1.297.976-1.783s.976-1.135 1.464-1.621.813-.973 1.139-1.46c.162-.324.488-.486.65-.81.163-.162.488-.486.488-.648.325-.487.65-.811 1.139-.973.162 0 .162-.162.325-.324s.163-.325.325-.325c.65-.162.814-.81 1.464-1.134.325-.162.488-.487.813-.649.488-.486 1.139-.486 1.627-.81.163-.162.325-.162.488-.487.65-.81 1.464-1.297 2.602-1.62.65-.163 1.464-.487 2.115-.973.813-.649 1.789-.973 2.928-.811.325 0 .487-.162.813-.324.65-.162 1.138 0 1.789 0 0 0 .163 0 .163.162.325.324 0 1.297-.488 1.459-.651.324-1.464.162-2.115.324l-2.765.81c-.813.325-1.464.65-2.114 1.135l-2.278 1.46-1.789 1.458c-.976.649-1.951 1.135-2.602 2.108-.813 1.135-1.79 2.107-2.765 3.242-1.139 1.135-1.952 2.594-2.602 4.053 0 .162-.163.162-.163.324-.488.81-.65 1.621-1.139 2.432-.325.486-.325 1.135-.488 1.783l-.65 2.756c0 .648-.163 1.297 0 1.783.488 1.135 0 2.432.325 3.566.325.973.813 1.946 1.301 2.756.65 1.297 1.79 2.108 2.765 3.08.488.487 1.139.973 1.79 1.46 1.138.972 2.44 1.458 3.74 1.945.976.324 1.79.648 2.766.81 1.138.325 2.277.325 3.415.325a10.94 10.94 0 0 1 3.253 0c.65.162.813 0 .813-.649l.488-3.242V79.9c0-.487.163-.81.326-1.135.162-.648.488-1.297.65-1.945.163-.487.325-.81.488-1.135.325-.81.976-1.621 1.139-2.432v-.162c-.325 0-.813-.324-1.139.324h-.163c-.162 1.135-1.138.81-1.951.973-.488.162-1.139.162-1.627.324a3.743 3.743 0 0 1-2.277-.162c-.163 0-.163-.162-.325-.162-.976 0-1.79-.648-2.44-1.459-.325-.324-.65-.648-.976-1.135-.488-.81-.65-1.783-.976-2.756-.325-1.459-.162-2.918 0-4.377.163-.81.488-1.459.65-2.107s.651-1.297.977-1.945.488-1.297 1.138-1.784c.488-.486.976-.972.976-1.783a.35.35 0 0 1 .325-.324c.651 0 .976-.486 1.14-.973.162-.324.65-.486.65-.972 0-.163.325 0 .325 0 .163.162.325.162.488.162.488.162.813.324 1.301.162.163-.162.488.162.65.324s.163.486-.162.81l-1.952 1.946c-.813.81-1.464 1.783-1.952 2.756-.487.648-.813 1.459-1.138 2.27-.488 1.458-.813 2.755-.325 4.376.325 1.135 1.138 1.946 2.277 2.432.813.486 1.789.648 2.765.81.162 0 .162 0 .162.163.488.324.814.324 1.302.324.813 0 1.464.324 2.277.486.488.162.813 0 .976-.324.488-.81 1.3-1.297 1.951-1.621.488-.162 1.139-.324 1.627-.162.163.162.325-.162.65-.162.651 0 1.464-.162 2.115.162.163 0 .488.162.325-.324-.162-.649-.325-1.297-.325-1.946s0-1.297.163-1.945c.162-.324 0-.648.162-.973.163-.81.488-1.62.488-2.431v-.325c-.162-.486 0-.81.163-1.134s.325-.649.65-.973c0-.162.163-.162 0-.324s-.162 0-.325 0c-.976.162-1.626.972-2.602 1.297-.488.162-.813.648-1.464.648-.813 0-.813 0-1.139-.81-.325-1.297 0-2.432.163-3.729.163-.81.488-1.459.488-2.27.163-.972.488-1.783.325-2.755 0-.487.163-.973.326-1.297.325-.487.813-.487 1.463-.325-.162-.486-.162-.972-.162-1.296a11.94 11.94 0 0 1 0-3.405c0-.486.163-.81.163-1.297 0-.324.325-.324.65-.486.163-.162.488 0 .65.162.163.324.651.162.651.649-.162 1.459-.325 3.08 0 4.7.163.65.326 1.46.65 1.946s.489 1.135.651 1.783c.326.81.976 1.46 1.302 2.27.488.972 1.138 1.621 2.114 1.945 1.139.486 2.277 1.135 3.578.973.163 0 .326 0 .326.162.813.324 1.626.486 2.277-.162.325-.324.813-.324 1.138-.649.976-.648 1.79-1.62 2.603-2.593l.488-.487c.162-.162.325-.162.488.162.162.163.325.325 0 .649-.65.972-1.302 1.621-2.115 2.431-.162.325-.325.487-.162.811-.488 0-.976.162-1.302.486-.65.649-1.3 1.135-2.44 1.135-.65 0-1.138-.162-1.789 0-.813.162-1.789-.162-2.602-.486-.488-.162-1.139-.324-1.626-.81-.163 0-.163-.163-.326 0-.162 0-.162.161 0 .323.163.487.163.811.326 1.297.325.81.325 1.622.65 2.27.163.324.325.324.488.162.65-.486 1.301-.973 1.627-1.783.325-.486.813-.81 1.3-.486 0 0 .163.162 0 .162-.324.324 0 .648-.324.972-.651.649-.976 1.621-1.79 2.108v.162c.163.648-.487.81-.65 1.135s-.325.162-.488 0c-.65-.649-1.464-1.297-1.627-2.27 0-.324-.488-.648-.488-1.135l-.162-.162-.163.162c.163 1.297-.163 2.432-.163 3.729v.486c.326.486.488 1.135.326 1.783s0 1.297.325 1.946c0 .162.163.162.325.162.488 0 .976.162 1.627-.162.488-.162.813.162 1.301.162.813.162 1.627.486 2.277 1.135.325.324.488.486.488.81.65.649 0 1.297-.325 1.945l-.976 2.756c0 .162-.325.325-.163.649.65-.487 1.301-.649 1.952-.81.976-.163 1.79-.65 2.928-.487 1.138 0 2.277 0 3.253.162 1.301.162 2.44.486 3.578 1.135.325.162.65.324 1.139.324.162 0 .325 0 .488-.162.488-.324.975-.649 1.464-.81s.65-.163.813-.811c0-.973.325-1.946 1.464-2.432.487-.162.813-.81 1.463-.973.488-.162.976-.162 1.464.163-.488.162-.813 0-.976.162v.162c.651.162.814.81 1.139 1.297 0 0 0 .162.163.162.487-.162.65.162.813.648 0-.972-.326-1.783-.65-2.107-.163.162 0 .486-.326.648-.163-.324 0-.486 0-.81 0-.162.325-.162.325 0 .163.162.325.486.325.648.163.649.489 1.46.489 2.108s.325.648.813.486h.325c-.163-.81 0-1.46 0-2.27.163-.81.65-1.459.65-2.431 0-.649.489-1.135.976-1.46.326-.323.651-.81 1.14-1.134.324-.162.65-.162 1.138-.162-.326.162-.65.324-.814.648 0 .162-.162.325 0 .325.163.162.326.162.326 0a1.481 1.481 0 0 1 1.626 0 .496.496 0 0 0 .65 0c.489-.163.651.324.977.648s.325.81.488 1.297c0 .162 0 .486.488.486v.162c0 .81-.326 1.621-.326 2.27 0 .324-.325.648-.488 1.135 0 .324 0 .324.326.486.325 0 .325-.162.162-.324 0-.325.326-.487.488-.81.326-1.136 1.302-1.946 1.79-2.919 0 0 0-.162.162-.162.325.162.488 0 .813-.162s.65 0 .976.162c.65.162 1.139.81 1.464 1.297.813 1.135.65 2.107.325 3.404-.162.486 0 .81.651 1.135s1.301.81 1.952 1.297c.976.648 1.138 1.459 1.138 2.431 0 .325.163.487.163.811 0 .81-.325 1.459-.976 1.945-.325.325-.488.649-.651.973-.162.486-.487.973-1.138.973l-3.09.486c-1.302.324-2.766.486-4.067.649-.488.162-1.138 0-1.789.162l-2.602.486h-.65c-.814-.162-1.79.162-2.603 0-.163 0-.163.162-.163.162 0 .486-.65 1.135-.976 1.135s-.488.324-.813.324c-.976.324-1.952.81-2.765 1.135-.65.324-1.464.486-2.277.648-1.464.324-2.765.324-4.23.324-1.138 0-2.439 0-3.415-.486-.813-.324-1.626-.648-2.277-1.459-.163-.162-.488-.162-.65-.324-.651-.162-1.464-.486-2.115-.648s-1.301-.163-2.114-.163c-.326 0-.488-.162-.651-.162-.325 0-.488 0-.488.487.163.972.325 1.783.65 2.593.326.973.489 1.784.326 2.756 0 .649.325 1.297.488 1.946a1.46 1.46 0 0 0 .976.972c.325.162.488.649.325.81-.488.487-1.139 1.135-1.79 1.298-.162 0-.162.162-.324.162-.488.972-1.464.972-2.44 1.135-.976.324-2.115.324-3.253.648-.65.162-1.301-.162-2.115 0s-1.626.162-2.44.162-1.788.162-2.44-.324c-.162-.162-.487-.162-.65-.162s-.162 0-.325-.162c-.325-.649-.813-.81-1.464-.973-.325-.162-.813-.162-1.139-.648 1.302.162 1.14.162.976.324zm14.964-24.641c0-.648-.162-.81-.813-.973-.325 0-.488-.162-.813-.162-.976 0-1.952.162-2.765 0-.976-.162-2.115-.162-3.09-.324-.489 0-.977.162-1.465-.162-.325-.162-.487-.162-.813-.162s-.488.162-.813.162c-.163 0-.65-.324-.488.324h-.163a.35.35 0 0 0-.325.324c-.488.487-.488 1.135-.976 1.621-.325.325-.488.487-.325.973v.162c-.325.162-.325.486-.488.81-.325.487-.163.973-.325 1.46-.326.81-.488 1.459-.65 2.27 0 .486-.001.972-.164 1.458 0 .162-.162.487 0 .649s.163.324 0 .648c0 0-.162.162-.162.324v3.405c0 1.135.162 2.431.325 3.566.163 1.783.488 3.567 1.301 5.188.326.648.488 1.459 1.464 1.134h.163c.976.163 2.114 0 3.09 0 .65 0 1.139-.162 1.79-.162s1.138-.324 1.626-.324c1.138 0 2.44-.162 3.578-.324.325 0 .325-.162.163-.324-.163-.325 0-.649-.163-.973-.163-.648-.163-1.459-.65-2.107s0-1.46-.163-2.108V90.6c-.325-1.135-.325-2.107-.325-3.242 0-.81.325-1.621.325-2.594-.163-.648.325-.973.325-1.621s.163-1.46.163-2.108l.488-3.242c0-.486 0-.81.162-1.297.814-.324.976-1.134.976-2.107zm.814 12.807c1.3-.162 2.44-.324 3.74-.162.651 0 1.302.162 1.79.162h.325l2.765 1.297c.325.162.488.324.813.486.813 0 1.627.162 2.277.162.976 0 1.952.162 2.766 0 1.138-.324 2.44-.324 3.74-.81.814-.325 1.627-.487 2.44-.649-.325-.162-.813-.162-1.301-.162-.976 0-1.952.162-3.09-.162-1.139-.162-2.115-.324-3.09-1.135-.326-.162-.814-.486-1.302-.162h-.488c-.976-.486-2.277-.486-3.09-1.297-.163-.162-.326-.162-.488-.324-.488-.162-.488-.649-.976-.81v-.163c.162-.324 0-.648-.325-.81-.488-.325-.326-.81-.163-1.297.325-.325.488-.81.65-1.135.489-.81 1.952-1.135 2.928-.81.488.162.976.486 1.627.486.162 0 .325.162.325.162.65.324 1.139.324 1.464-.324.325-.81.325-.973-.65-1.135-.489-.162-.977-.162-1.302-.486-.162-.163-.325-.163-.65-.325-1.14-.324-2.278-.81-3.416-.81s-2.44-.162-3.579.324c-.162 0-.325.324-.487.162-.651 0-1.302 0-1.79.324-.162.162-.488.325-.488-.162 0-.162 0-.162-.162-.162s-.163.162-.163.162c0 .162 0 .162-.163.324-.325 1.135-.325 2.27-.487 3.243a36.9 36.9 0 0 0 0 5.998zm23.91-5.674c0-.324 0-.649-.326-.649-.325-.162-.65-.324-.813-.648l-.488-.486c-.326-.325-.65-.649-.976-1.135s-.814-.81-1.139-1.297c0 0-.162-.162-.325 0 .325.648.813 1.297 1.139 1.945l.975 2.108c.163.486.163.972-.325 1.135-.163 0-.163.162-.163.324-.162.162-.162.81-.65.324h-.163c-1.138.486-2.277.486-3.416.324-.162 0-.325-.162-.487-.486 0-.324 0-.973-.651-1.135-.163-.162-.325-.324-.163-.486.163-.487.814-.487.976-.973h.325c.163 0 .163.162.326.162.325.162.813.162 1.138 0 .163-.162 0-.486-.162-.81-.163-.487-.65-.81-.813-1.297-.163-.325-.163-.487-.326-.81-.163-.163-.163-.487-.65-.163-.163.162-.651.324-.976.324-.163 0-.326 0-.326.162-.162.163 0 .163 0 .325s.163.162.163.324c-.65 0-.325.486-.325.648 0 .325-.813 1.46-1.139 1.46-.488 0-.976.323-1.464.486.488 0 .488.324.326.648 0 .162 0 .162.162.162.488.162.326.324.163.649-.163.486 0 .648.325.972.65.649 1.464 1.135 2.277 1.297.326.162.814.324 1.301 0 0 0 .163 0 .163.162s.163.162.163.162c1.138 0 2.277.325 3.416.163.325 0 .813-.163 1.138 0 1.301.324 2.602.162 3.741.162 1.301 0 2.602-.325 3.904-.487l3.903-.648h.325c.651 0 1.464 0 2.115-.324.976-.649 1.626-1.621 1.789-2.918.163-.487-.325-1.297-.65-1.46a3.544 3.544 0 0 1-1.302-.81c-.162-.162-.488-.162-.65.162-.326.649-.65 1.297-.813 1.945 0 .325 0 .487.325.325.65-.325 1.138 0 1.626.162.488 0 .488.324.163.648-.488.325-.65.81-1.139.973s-.975 0-1.3.648c-.326-.162-.814 0-1.302-.324-.163-.324-.325-.648-.325-.972 0-.811 0-1.784.325-2.594.163-.487.163-.973.325-1.46v-.161c-.325-.162-.65-.325-1.138-.325-.163 0-.163.325-.163.487-.163.972-.65 1.945-1.626 2.593-.326.163-.651.487-.976.649-.488.162-1.627-.649-1.627-1.135-.163-.81-.325-1.459-.163-2.27 0-.162.163-.648-.325-.648-.325-.162-.813-.324-.976 0-.325.324-.65.81-.488 1.297 0 .486-.162.973 0 1.297.163.648-.325.81-.65 1.297-.163.162-.326.162-.488.162-.163-.162-.325-.162-.65-.162zM58.246 56.88c-.163-.163-.163-.325-.325-.487-.65-.81-1.139-1.621-1.627-2.594-.163-.648-.488-1.135-.65-1.783-.163-.487-.488-.973-.651-1.297 0-.162-.325-.162-.325 0 0 .648-.326 1.135-.326 1.621-.162.648-.162 1.297-.325 1.783l-.813 3.404c-.163.325.163.325.325.487.65.162 1.139-.324 1.79-.486.975-.163 1.788-.649 2.927-.649zm32.368 16.372c0-.648-.326-1.297-.326-1.945 0-.162-.163-.324-.488-.324-.65.162-1.301.81-1.301 1.62 0 .973 0 1.784.163 2.757a.35.35 0 0 0 .325.324c.325 0 .65 0 .976.162.325 0 .488-.162.488-.324 0-.81.163-1.46.163-2.27zM73.86 84.115c-.162-.649 0-1.135.163-1.621 0-.325 0-.811.488-.973 0 0 .163 0 .163-.162l-.163-.162c-.488 0-.976-.163-1.627-.325-.487-.162-.813.162-1.138.325s-.163.486-.163.81c0 .486 0 .973.488 1.297.326.486.976.486 1.79.81zm22.934-8.592c0-.162 0-.487-.163-.81 0-.325-.325-.487-.65-.487s-.325.324-.488.486-.163.486-.163.81c-.325.811-.325.811.488.811.65.162.976 0 .976-.81zm-4.88 3.566c.489-.324.489-.972.651-1.297 0-.162 0-.162-.162-.324-.163 0-.326-.162-.326 0-.325.324-.325 1.46-.162 1.621zm-6.017-1.62c-.163 0-.326-.163-.326.161 0 .162.163.487.326.487s.325-.163.325-.325c.163-.324-.163-.324-.325-.324zM74.024 21.702c-.162.649.325.973.488 1.46 0 .323.163.486 0 .81-.325-.325-.488.162-.488.324-.162.486-.488.324-.813.324-.163 0-.326-.162-.326-.162-.325-.162-.65-.324-1.138-.486-.325-.162-.488-.325-.325-.81.162-.325.162-.811.162-1.136.163-.972.65-1.459 1.79-1.62 0 0 .162 0 .162-.163a1.22 1.22 0 0 1 1.464 0c.163.162.488.162.65.162 1.14 0 1.627.81 2.115 1.621.325.649.163 1.135 0 1.784-.163 1.134-.813 1.945-1.464 2.756-.65.972-1.626 1.783-2.602 2.431-.163.162-.325.162-.65.162-.489 0-.977.324-1.465.487-.65.324-1.463.162-1.952-.487-.162-.162-.162-.162-.325-.162-.65-.162-1.301-.648-1.138-1.459.162-.486-.163-.973-.326-1.459-.162-.162-.162-.486-.162-.648-.163-.649-.163-.973-1.139-.81-.488.161-1.138.648-1.138 1.134s-.326.973-.488 1.297-.488.324-.814.324c-1.3.162-2.602.162-3.74-.324-.489-.162-.651-.649-.651-1.46.163-1.134.65-1.944 1.138-2.917.163-.324.488-.649.814-.973s.976-.486 1.464-.162c.325.162.325.81.162 1.135-.325.324-.488.648-.65 1.135-.163.324-.163.648.162.81.325.324.65.162.813-.162.326-.486.814-.648 1.139-1.135.325-.324.65-.486 1.139-.486a3.181 3.181 0 0 1 2.44 0c.487.324.975.486 1.138 1.297.162.648.325 1.297.325 1.945 0 .324.488.649.976.649.813 0 1.627.162 2.44-.325.976-.486 1.789-1.134 2.114-2.107.163-.486.163-.973.163-1.621v-.162c-.488.162-.65-.325-.813-.649-.163-.162-.488-.162-.65-.162zM71.91 41.804c.162-.162 0-.486.162-.649s.326-.324.488 0c0 0 .163.163.325 0 .489-.324.814-.162 1.302 0 .162 0 .162.163.162.325 0 .972.163 2.107.163 3.08v4.052c0 .973 0 1.946.325 2.919 0 .324.326.81-.325.972-.163 0 .163.324-.163.486-.325 0-.488.163-.813 0-.162-.162-.325.163-.65.163-1.302-.163-2.278-.649-3.416-.973-.488-.162-.813-.324-1.301-.648-.814-.325-1.139-1.135-.814-1.946l1.464-3.404c.326-.973.976-1.621 1.464-2.594.325-.648.813-1.135 1.301-1.783-.162-.162.163 0 .326 0zm.325 1.62c-.163.487-.488.812-.65 1.136-.489.81-.814 1.62-1.302 2.431-.325.487-.65 1.135-.976 1.784-.325.486-.162.648.325 1.134.976.649 1.952.973 3.09 1.297.326 0 .326 0 .163-.162-.162-.81-.162-1.459-.162-2.27 0-1.458.162-3.08-.325-4.538-.163-.325 0-.487-.163-.811zM55.482 40.02c-.325-.324-.488-.648-.65-.81s.162-.648-.489-.324c-.162-.162-.325-.324-.325-.486a10.327 10.327 0 0 0-1.301-2.27c-.325-.324-.163-1.783.163-2.108h.162c.488 0 .976-.324 1.301-.648s1.139-.162 1.627 0c.813.324 1.138.973 1.626 1.783.163.325.326.81.326 1.297v.973s0 .162.162.162.163 0 .163-.162c0-.81.163-1.46.325-2.27l.488-1.945c.325-.486.65-.973.488-1.621 0-.486.488-.486.65-.649.326-.486.977-.486 1.465-.81.162-.162.325-.162.488-.324s.325-.325.488-.163a.492.492 0 0 1 0 .649l-.488.486c-.814.325-.814 1.297-1.464 1.783-.163.163-.163.487-.163.487.163.486-.488.648-.325 1.135v.162c-.65.81-.813 1.783-1.139 2.918 0 .162-.162.324-.325.486-.325.162-.65.486-1.139.486 0 0-.162 0 0 .163 0 .81-.488 1.459-.325 2.269 0 .486-.325.649-.488.973 0 0-.325.162-.325 0 0-.325-.325-.487-.65-.649-.163 0-.163-.162-.163-.324.162-.486 0-.973.162-1.459l.163-.162c0-1.135-.163-2.27-.813-3.08-.163-.162-.326-.162-.488 0-.326.324-.326.81 0 1.459.325.81.976 1.459.813 2.431.163-.324 0-.162 0 .163zm15.614-1.296c0 .324-.65 1.297-.975 1.297-.489.162-.814-.163-1.14-.487-.324-.486-.975-.486-1.626-.648h-.813c-.163 0-.325 0-.488-.162-.65-.487-1.138-.487-1.952-.324a.895.895 0 0 1-.813-.487c-.163-.162 0-.486.163-.648.488-.487 1.138-.81 1.789-.649 1.138.162 2.114.325 3.253.649.813.162 1.464.486 2.114.81.488.325.651.487.488.649zm6.019-.162l-.163-5.026c0-.486 0-.81.163-1.135.162-.486.975-.81 1.463-.648.326.162.163.486.163.648-.163 1.784-.163 3.567.163 5.35.162.649 0 1.297-.488 1.945-.326.325-.814 0-.976-.162 0-.162-.488-.486-.325-.972zm3.578-11.834c.162.81-.488 1.296-.976 1.783-.65.486-1.301 1.135-2.115 1.135-.65.162-1.138-.163-1.789-.325-.162 0-.162-.162-.162-.324.488-.648.65-1.459 1.626-1.621.325 0 .65-.324.976-.648s.65-.649.976-.811c.488-.648.813-.162 1.301 0 .163.162.163.486.163.81z"></path><path fill="currentColor" d="M63.29 54.448c.162-.162.487-.162.487-.324 0-.324-.325-.162-.325-.162-.163-.162-.163-.324-.163-.486 0-.325 0-.487.163-.81s.325-.325.488-.163c.325.324.813.324.976.973 0 .162.162.162.325.324.813.486 1.627.486 2.44.81.325.163.488.325.65.487s0 .162-.162.324c-.163 0-.163.324-.163.486s0 .325-.163.325c-.813 0-1.626 0-2.277-.163-.488 0-.976-.324-1.3-.648a1.464 1.464 0 0 0-.977-.973zm5.367-12.158c0 .324-.326.324-.488.486s-.326.163-.326.487c0 .162-.162.162-.325.162l-2.277-.486c-.325-.163-.65-.163-.813-.649 0-.162-.163-.162-.326-.324-.65-.324-.488-.648 0-1.135s.814-.324 1.302 0c.65.324 1.464.486 2.114.81.325.163.976.163 1.139.811v-.162zm9.921.973c-.162 0-.325-.162-.488.162-.162.162-.488 0-.488-.162-.325-.486-.813-.486-1.3-.486h-.489c-.162 0-.162 0-.325-.163 0 0-.163-1.296 0-1.296.488-.649.65-.649 1.464-.487s1.464.81 2.114 1.297c.326.324.488.486.325.81-.325.325-.65.163-.813.325zm-1.788 3.404c-.489 0-.977-.324-1.465-.324-.162 0-.65-.973-.65-1.135.162-.486.65-.648 1.3-.486s.977.648 1.465.972c.162.163.325.487.162.649-.162 0-.325.324-.813.324z"></path></svg>