<svg width="40" height="40" viewBox="0 0 52 40" fill="none" xmlns="http://www.w3.org/2000/svg"><path fill-rule="evenodd" clip-rule="evenodd" d="M46.5625 20.6442C46.5625 17.7851 45.1653 15.5292 42.495 15.5292C39.8134 15.5292 38.1909 17.7851 38.1909 20.6219C38.1909 23.9835 40.1063 25.6811 42.8555 25.6811C44.1964 25.6811 45.2104 25.3795 45.9766 24.9551V22.7215C45.2104 23.1012 44.3316 23.3357 43.2161 23.3357C42.1232 23.3357 41.1542 22.956 41.0302 21.6382H46.54C46.54 21.493 46.5625 20.9122 46.5625 20.6442ZM40.9964 19.5832C40.9964 18.3212 41.7739 17.7963 42.4837 17.7963C43.171 17.7963 43.9034 18.3212 43.9034 19.5832H40.9964ZM33.8417 15.5292C32.7374 15.5292 32.0276 16.0429 31.6332 16.4003L31.4868 15.7078H29.008V28.73L31.8248 28.1381L31.8361 24.9775C32.2417 25.2678 32.8389 25.6811 33.8304 25.6811C35.8472 25.6811 37.6838 24.0728 37.6838 20.5325C37.6726 17.2937 35.8134 15.5292 33.8417 15.5292ZM33.1656 23.2241C32.5008 23.2241 32.1065 22.9895 31.8361 22.6991L31.8248 18.5557C32.1177 18.2319 32.5234 18.0085 33.1656 18.0085C34.1909 18.0085 34.9008 19.1477 34.9008 20.6107C34.9008 22.1072 34.2022 23.2241 33.1656 23.2241ZM25.132 14.8702L27.9601 14.2671V12L25.132 12.5919V14.8702ZM25.132 15.719H27.9601V25.4912H25.132V15.719ZM22.1011 16.5455L21.9208 15.719H19.487V25.4912H22.3039V18.8684C22.9686 18.0085 24.0954 18.1649 24.4447 18.2877V15.719C24.0841 15.585 22.7658 15.3393 22.1011 16.5455ZM16.4674 13.2955L13.7181 13.8763L13.7069 22.822C13.7069 24.4749 14.9576 25.6922 16.6251 25.6922C17.549 25.6922 18.2251 25.5247 18.5969 25.3237V23.0565C18.2364 23.2017 16.4561 23.7155 16.4561 22.0626V18.0978H18.5969V15.719H16.4561L16.4674 13.2955ZM8.85064 18.5557C8.85064 18.1202 9.2112 17.9527 9.80837 17.9527C10.6647 17.9527 11.7464 18.2095 12.6027 18.6674V16.0429C11.6675 15.6743 10.7436 15.5292 9.80837 15.5292C7.52109 15.5292 6 16.713 6 18.6898C6 21.7722 10.2816 21.2808 10.2816 22.6098C10.2816 23.1235 9.8309 23.2911 9.19993 23.2911C8.26474 23.2911 7.0704 22.9113 6.12394 22.3976V25.0556C7.17181 25.5024 8.23094 25.6922 9.19993 25.6922C11.5435 25.6922 13.1548 24.5419 13.1548 22.5428C13.1435 19.2147 8.85064 19.8066 8.85064 18.5557Z" fill="currentColor"></path></svg>