<svg width="100" height="100" viewBox="0 0 120 120" xmlns="http://www.w3.org/2000/svg"><path d="M90.758 93.9182C90.2968 93.9182 90.2967 93.4545 89.8355 93.9182C87.529 95.7727 85.6839 93.9182 84.3 92.9909C81.5323 91.6 80.1485 88.8182 78.3033 86.0364C76.4582 83.2545 74.613 80.4727 72.7679 78.1545C71.8453 76.7636 70.9227 75.3727 70.0002 73.9818C68.6163 72.1273 67.2325 70.7364 65.3873 68.8818C64.926 68.4182 64.4647 68.4182 64.0034 68.4182C60.3132 69.3455 57.0841 69.8091 53.3939 69.3455C49.7036 68.8818 46.0133 67.9545 41.8617 66.5636C39.094 65.6364 36.7876 64.7091 34.4811 63.3182C30.3296 60.5364 26.6393 57.2909 25.2554 52.1909C24.7941 50.8 24.3329 48.9455 23.8716 48.0182C22.949 46.1636 23.4103 45.2364 23.4103 43.3818C23.4103 40.6 24.3328 37.3545 24.7941 34.5727C25.2554 32.7182 25.7167 30.8636 26.6393 29.0091C28.4844 24.8364 31.2521 22.0545 34.0199 19.2727C34.9424 18.3455 36.3263 16.9545 37.7102 16.4909C39.5553 15.5636 41.8617 13.7091 44.1681 15.1C44.6294 15.5636 45.552 15.1 46.0133 14.6364C49.7036 14.1727 53.8551 14.6364 57.5454 15.5636C61.2357 16.4909 64.926 17.8818 67.6937 19.7364C70.9227 22.0545 74.613 24.3727 76.4582 28.0818C76.4582 28.5455 76.9195 29.0091 77.3807 29.0091C78.7646 29.9364 78.3033 32.2545 79.2259 33.1818C79.6872 33.6455 79.6872 34.1091 80.1485 34.5727C81.5323 36.4273 81.9936 38.2818 81.9936 40.6C81.9936 43.8455 82.4549 47.0909 82.4549 50.3364C81.9936 53.5818 81.5323 57.2909 79.2259 60.0727C78.3033 61 76.9194 61.4636 76.4582 62.8545C76.4582 63.3182 75.9969 63.7818 76.4582 64.2455C77.3807 64.7091 77.842 65.1727 77.842 66.5636C77.842 67.4909 79.2259 67.9545 79.6872 68.8818C81.5323 72.1273 83.3774 74.9091 85.6839 77.6909C87.9903 80.4727 90.2967 83.7182 92.1419 86.9636C93.0645 88.3545 93.5257 89.7455 92.6032 91.1364C92.6032 91.6 92.1419 91.6 92.1419 92.0636C92.1419 92.5273 93.0645 93.4545 92.1419 93.9182C92.6032 93.9182 91.6806 93.9182 90.758 93.9182ZM58.468 63.7818C61.2357 64.7091 64.0034 62.3909 67.2324 61.9273C68.6163 61.4636 70.0002 60.0727 70.9227 59.1455C74.613 56.3636 76.9195 52.1909 77.3807 47.5545C77.3807 46.1636 77.3807 44.7727 77.842 43.3818C78.3033 40.6 77.842 37.8182 77.3807 35.5C76.9195 33.1818 75.0743 31.7909 74.1517 29.9364C72.3066 26.2273 69.0776 24.3727 65.8486 22.0545C64.4647 21.1273 63.0809 20.2 61.2357 20.2C59.3906 20.2 57.0841 20.2 55.239 19.7364C53.8551 19.7364 52.4713 19.7364 51.0874 19.2727C49.7036 18.8091 47.8584 19.2727 46.4746 19.2727C43.7068 19.7364 41.4004 21.1273 39.094 22.9818C37.2489 23.9091 35.865 25.7636 34.4811 27.1545C33.0973 28.5455 31.2522 30.4 30.7909 32.7182C30.3296 34.1091 30.3296 35.5 29.8683 36.8909C28.9457 39.2091 29.407 41.5273 29.407 43.8455C29.8683 47.5546 31.2521 50.8 33.5586 54.0455C36.3263 58.2182 40.0166 61.9273 45.0907 63.3182C47.8584 63.7818 50.1649 65.6364 52.9326 64.7091C53.8551 63.7818 55.7003 63.7818 58.468 63.7818Z" fill="currentColor"></path><path d="M57.0841 111.073C54.3164 110.609 51.5487 111.073 48.781 110.609C43.2455 110.145 37.7101 111.073 31.7134 111.073C31.2521 111.073 30.3295 111.073 29.8682 111.073C26.178 111.073 22.949 111.536 19.72 112C18.3361 112 16.9522 112 16.0297 111.536C12.3394 111.073 8.64909 112 4.9588 111.536C4.03623 111.536 2.65238 111.536 1.72981 112C1.26853 112 1.26853 112 1.26853 111.536C1.26853 111.073 1.26853 111.073 1.26853 111.073C2.1911 110.145 1.72982 109.682 1.26853 108.755C-0.576611 105.973 -0.115318 103.191 0.807254 100.409C1.72983 98.5545 2.65237 97.1636 4.9588 97.1636H5.42011C6.80397 95.3091 8.18781 96.2364 9.11038 97.1636C9.57167 97.6273 10.033 97.1636 10.4943 97.6273C10.4943 97.6273 10.9555 97.6273 10.9555 97.1636C10.9555 94.8454 12.3394 92.5273 12.3394 89.7454C13.7233 89.7454 12.3394 87.8909 14.1845 87.4273C15.1071 87.4273 14.6458 86.0364 15.1071 85.5727C16.491 84.6455 17.4135 83.7182 19.2587 83.7182C21.1038 83.7182 22.4877 83.2545 24.3328 83.7182C26.178 84.1818 28.0231 84.6454 28.9457 86.5C29.8683 87.8909 31.7134 88.8182 32.636 90.2091C34.0198 92.0636 34.4811 91.1364 35.865 90.6727C37.7101 89.7454 39.5553 89.2818 41.4004 90.2091C42.7843 91.1364 44.1681 92.0636 45.0907 93.4545C46.0133 94.8454 47.3971 95.7727 48.3197 97.1636C48.3197 97.6273 49.2423 97.1636 49.2423 97.1636C51.5487 97.1636 53.8551 96.7 56.1616 98.0909C57.5454 99.0182 58.468 100.409 58.9293 101.336C59.3906 102.727 59.8518 103.655 60.3131 105.045C60.7744 106.9 60.7744 107.364 58.9293 108.291C58.468 108.291 58.468 108.755 58.468 108.755C59.8519 110.609 58.0067 110.609 57.0841 110.609C57.0841 111.073 57.0841 111.073 57.0841 111.073ZM36.7875 99.0182C34.9424 99.4818 33.5585 97.6273 31.7134 98.0909C31.7134 98.0909 31.2521 97.6273 31.2521 97.1636C32.1747 96.2364 31.2521 95.7727 30.7908 94.8455C30.3296 94.3818 29.8682 93.4545 30.3295 92.5273C30.3295 92.0636 29.8682 91.1364 29.8682 90.6727C28.9457 88.8182 27.1005 87.8909 25.7167 86.5C25.2554 86.0364 24.3328 85.5727 23.4102 85.5727C21.1038 86.0364 19.2587 87.4273 17.4135 88.8182C16.0297 89.7454 16.0297 91.6 15.5684 93.4545C15.1071 96.7 16.0297 99.0182 17.8748 101.336C18.3361 102.264 18.3361 102.264 17.4135 102.727C16.491 102.727 15.5684 102.727 15.1071 102.727C13.262 103.191 11.4168 103.191 10.033 101.336C9.57169 100.409 8.64912 99.9454 7.72654 99.4818C5.8814 98.5545 4.03623 99.4818 2.65237 101.336C1.7298 103.191 1.7298 105.509 2.65237 107.364C3.11366 107.827 4.03625 108.291 3.57496 109.218C3.57496 109.682 2.6524 109.682 3.11368 110.145C3.57497 110.609 4.03624 110.145 4.03624 110.145C4.49753 110.145 4.49751 110.145 4.9588 109.682C8.1878 109.218 11.4168 109.218 14.6458 109.218C16.9523 108.755 19.2587 108.755 21.5651 108.291C23.8716 107.827 25.7167 107.827 28.0231 107.827C29.8682 107.827 31.7134 107.827 33.5586 107.827C37.2488 107.364 40.9391 107.364 45.0907 107.827C46.0133 107.827 46.9358 107.827 47.8584 107.827C50.1648 107.364 52.01 107.364 54.3164 108.291C55.7003 108.755 56.1616 108.291 56.6229 106.9C57.0841 104.582 55.239 103.191 53.8551 101.336C52.9326 100.409 51.5487 100.409 50.6261 101.336C50.1648 101.8 50.1648 102.727 49.7036 103.191C48.781 102.727 47.3971 101.8 46.4745 101.336C44.1681 100.409 44.1681 98.0909 44.1681 96.2364C44.1681 95.7727 43.7068 95.3091 43.2456 94.8455C42.323 93.9182 40.9391 93.4545 40.0166 92.9909C38.6327 92.5273 36.7875 92.9909 36.7875 94.3818C36.7875 95.7727 36.7875 97.1636 36.7875 99.0182Z" fill="currentColor"></path><path d="M87.0677 26.2273C87.0677 24.8364 87.0677 23.4455 86.6064 22.0545C86.1452 19.2727 88.9129 16.0273 91.2193 15.5636C92.1419 15.5636 92.6032 15.5636 93.5257 16.0273C95.3709 16.4909 95.8322 14.6364 96.7547 13.7091C98.1386 11.3909 100.445 10 103.213 10C105.058 10 106.442 10.9273 107.364 12.3182C108.748 14.1727 110.132 14.6364 112.438 13.7091C114.284 13.2455 118.435 15.1 118.896 16.9545C119.819 19.7364 120.28 22.9818 119.819 26.2273C119.819 26.6909 119.819 26.6909 119.358 26.6909C117.974 26.2273 116.129 27.6182 114.745 27.1545C114.284 27.1545 113.822 26.6909 113.361 26.2273C111.977 25.3 110.593 26.2273 109.671 26.2273C106.442 26.6909 103.213 26.2273 99.9837 26.6909C97.216 26.6909 94.9096 26.6909 92.1419 26.6909C91.2193 26.6909 89.8354 25.7636 88.9129 26.2273C88.4516 25.7636 89.3742 25.3 88.9129 25.3C87.9903 24.8364 87.529 25.7636 87.0677 26.2273ZM116.129 23.9091C115.667 22.9818 115.206 22.0545 115.667 20.6636C116.129 18.8091 114.745 17.4182 113.822 16.0273C113.361 15.1 112.438 15.5636 111.977 16.4909C111.977 16.9545 111.977 17.8818 111.516 18.3455C111.055 18.8091 111.055 20.2 110.132 19.7364C107.826 18.8091 105.98 17.8818 105.519 15.1C105.058 14.1727 104.597 13.2455 103.674 12.3182C102.751 11.3909 100.445 11.8545 100.445 13.2455C99.9837 15.1 99.9837 16.4909 100.445 18.3455C100.906 19.7364 100.445 20.2 99.0612 20.2C96.7547 20.2 94.9096 20.2 93.0645 18.3455C92.1419 17.4182 91.2193 17.8818 90.2967 18.3455C89.8354 18.8091 88.9129 19.2727 89.3742 20.2C89.8354 20.6636 89.3742 21.5909 89.3742 22.0545C88.9129 24.8364 89.8354 25.7636 92.6031 24.8364C94.9096 24.3727 97.216 23.9091 99.9837 23.9091C103.674 23.9091 107.826 23.9091 111.516 23.9091C113.361 23.4455 114.745 23.4455 116.129 23.9091Z" fill="currentColor"></path><path d="M58.9293 57.2909C58.0067 57.7545 57.5454 56.8273 56.6229 57.2909C56.1616 57.2909 56.1616 56.8273 56.1616 56.8273C55.239 53.1182 53.3938 49.8727 51.0874 46.6273C49.7036 44.7727 48.3197 43.8455 46.0133 44.3091C45.552 44.3091 45.0907 44.7727 44.6294 43.8455C44.1682 43.3818 44.6294 42.4545 45.0907 42.4545C46.4746 41.9909 46.4746 40.1364 47.8584 40.1364C48.3197 40.1364 47.3971 39.2091 48.3197 38.7455C51.0874 35.9636 51.0874 32.2545 50.6261 28.5455C50.6261 27.6182 52.01 26.2273 52.9326 26.2273C54.3164 26.2273 54.3164 26.6909 54.3164 28.0818C54.3164 30.4 55.239 32.2545 56.1616 34.1091C57.0842 35.9636 58.0067 37.3545 59.8519 37.8182C61.2357 38.2818 62.1583 39.2091 63.0809 38.7455C64.4647 41.0636 62.6196 41.9909 61.2357 42.9182C59.3906 44.3091 58.468 46.1636 58.0067 48.4818C57.5454 50.8 58.0067 53.5818 57.5454 55.9C58.0067 56.3636 58.9293 56.8273 58.9293 57.2909Z" fill="currentColor"></path><path d="M31.2521 39.6727C34.0198 39.2091 35.865 37.3545 35.865 34.1091C35.865 32.7182 36.3263 31.3273 36.3263 29.9364C36.3263 29.4727 36.7875 29.4727 36.7875 29.4727C37.2488 29.9364 38.1714 29.4727 38.6327 29.9364C39.094 29.9364 39.094 30.4 39.094 30.8636C39.094 31.3273 39.094 32.2545 39.094 32.7182C39.094 35.0364 40.4778 36.4273 41.8617 37.8182C42.323 38.2818 43.2456 39.2091 41.4004 39.6727C39.5553 40.1364 39.5553 42.4546 39.094 43.8455C39.094 44.7727 39.5553 46.1636 39.094 47.0909V47.5545C39.094 47.5545 38.6327 47.5545 38.6327 47.0909C37.7101 45.7 36.7876 44.3091 36.3263 42.4545C35.865 40.6 34.4811 39.2091 32.636 39.2091C32.1747 40.1364 31.7134 40.1364 31.2521 39.6727Z" fill="currentColor"></path><path d="M67.6937 45.2364C68.155 45.7 68.6163 46.1636 68.6163 46.6273C69.0776 48.0182 70.0001 48.9454 71.384 48.9454C71.8453 48.9454 71.8453 48.9454 72.3066 49.4091C72.3066 49.8727 71.8453 49.8727 71.8453 49.8727C70.4614 50.8 70.9227 52.1909 70.9227 53.5818C70.9227 54.5091 70.4614 54.9727 69.5388 54.9727C68.6163 54.9727 68.6163 54.5091 68.155 53.5818C67.6937 51.2636 67.6937 51.2636 64.926 50.8C64.4647 50.8 63.5421 50.8 63.5421 50.3364C63.5421 49.8727 64.0034 49.4091 64.926 49.8727C65.8486 48.4818 67.2324 48.0182 67.2324 46.1636C67.2324 46.1636 67.2324 45.7 67.6937 45.2364Z" fill="currentColor"></path></svg>