<svg width="25" height="32" viewBox="0 0 25 32" fill="none" xmlns="http://www.w3.org/2000/svg">
<g clip-path="url(#clip0_9_23)">
<path d="M16.9643 8C16.9643 6.67392 16.4939 5.40215 15.6567 4.46447C14.8195 3.52678 13.684 3 12.5 3C11.316 3 10.1805 3.52678 9.34327 4.46447C8.50606 5.40215 8.03571 6.67392 8.03571 8C8.03571 9.32608 8.50606 10.5979 9.34327 11.5355C10.1805 12.4732 11.316 13 12.5 13C13.684 13 14.8195 12.4732 15.6567 11.5355C16.4939 10.5979 16.9643 9.32608 16.9643 8ZM5.35714 8C5.35714 5.87827 6.10969 3.84344 7.44924 2.34315C8.78878 0.842855 10.6056 0 12.5 0C14.3944 0 16.2112 0.842855 17.5508 2.34315C18.8903 3.84344 19.6429 5.87827 19.6429 8C19.6429 10.1217 18.8903 12.1566 17.5508 13.6569C16.2112 15.1571 14.3944 16 12.5 16C10.6056 16 8.78878 15.1571 7.44924 13.6569C6.10969 12.1566 5.35714 10.1217 5.35714 8ZM2.75112 29H22.2489C21.7522 25.0438 18.7165 22 15.0502 22H9.94978C6.28348 22 3.24777 25.0438 2.75112 29ZM0 30.1437C0 23.9875 4.45312 19 9.94978 19H15.0502C20.5469 19 25 23.9875 25 30.1437C25 31.1687 24.2578 32 23.3426 32H1.65737C0.742188 32 0 31.1687 0 30.1437Z" fill="black"/>
</g>
<defs>
<clipPath id="clip0_9_23">
<rect width="25" height="32" fill="white"/>
</clipPath>
</defs>
</svg>
