<svg width="40" height="40" viewBox="0 0 48 16" xmlns="http://www.w3.org/2000/svg"><path d="M44.5779 0.399613H41.479C40.0487 0.399613 39.6514 1.50227 39.6514 1.50227L33.8509 15.5217H37.9033L38.6979 13.2377H43.6244L44.1011 15.5217H47.6768L44.5779 0.399613ZM39.8898 10.166L41.9557 4.49519L43.0681 10.166H39.8898ZM28.6861 4.57395C28.6861 2.84121 32.5001 3.07749 34.1688 4.02262L34.725 0.793418C34.725 0.793418 32.9769 0.16333 31.2288 0.16333C29.3218 0.16333 24.7132 1.0297 24.7132 5.20404C24.7132 9.14209 30.1164 9.14209 30.1164 11.1899C30.1164 13.2377 25.2694 12.8439 23.6802 11.5837L23.124 14.9704C23.124 14.9704 24.8721 15.8368 27.4942 15.8368C30.1164 15.8368 34.1688 14.4191 34.1688 10.6385C34.1688 6.62174 28.6861 6.30669 28.6861 4.57395ZM19.2305 0.399613L16.8467 15.5217H20.7402L23.124 0.399613H19.2305ZM13.5095 0.399613L9.7749 10.7961L9.3776 8.512L8.10626 1.65979C8.10626 1.65979 7.94735 0.320852 6.27871 0.320852H0.0809224L0.00146361 0.557135C-0.0779952 0.478374 3.10036 1.65979 4.05386 2.28988L7.47059 15.443H11.523L17.7208 0.320852H13.5095V0.399613Z" fill="currentColor"></path></svg>